G04 #@! TF.GenerationSoftware,KiCad,Pcbnew,7.0.7*
G04 #@! TF.CreationDate,2023-10-03T13:22:08+10:00*
G04 #@! TF.ProjectId,grbl_controller,6772626c-5f63-46f6-9e74-726f6c6c6572,rev?*
G04 #@! TF.SameCoordinates,Original*
G04 #@! TF.FileFunction,Soldermask,Bot*
G04 #@! TF.FilePolarity,Negative*
%FSLAX46Y46*%
G04 Gerber Fmt 4.6, Leading zero omitted, Abs format (unit mm)*
G04 Created by KiCad (PCBNEW 7.0.7) date 2023-10-03 13:22:08*
%MOMM*%
%LPD*%
G01*
G04 APERTURE LIST*
%ADD10R,1.600000X1.600000*%
%ADD11O,1.600000X1.600000*%
%ADD12C,3.200000*%
%ADD13C,4.000000*%
%ADD14C,1.600000*%
%ADD15C,6.000000*%
%ADD16R,2.400000X1.600000*%
%ADD17O,2.400000X1.600000*%
G04 APERTURE END LIST*
D10*
X85300000Y-58540000D03*
D11*
X85300000Y-56000000D03*
X77680000Y-56000000D03*
X77680000Y-58540000D03*
D10*
X85500000Y-84540000D03*
D11*
X85500000Y-82000000D03*
X77880000Y-82000000D03*
X77880000Y-84540000D03*
D12*
X74500000Y-112000000D03*
D10*
X85800000Y-97500000D03*
D11*
X85800000Y-94960000D03*
X78180000Y-94960000D03*
X78180000Y-97500000D03*
D12*
X122000000Y-112000000D03*
D13*
X114580000Y-46380331D03*
X81280000Y-46380331D03*
D10*
X107625000Y-47800331D03*
D14*
X104855000Y-47800331D03*
X102085000Y-47800331D03*
X99315000Y-47800331D03*
X96545000Y-47800331D03*
X93775000Y-47800331D03*
X91005000Y-47800331D03*
X88235000Y-47800331D03*
X106240000Y-44960331D03*
X103470000Y-44960331D03*
X100700000Y-44960331D03*
X97930000Y-44960331D03*
X95160000Y-44960331D03*
X92390000Y-44960331D03*
X89620000Y-44960331D03*
D10*
X85800000Y-71500000D03*
D11*
X85800000Y-68960000D03*
X78180000Y-68960000D03*
X78180000Y-71500000D03*
D12*
X122000000Y-38500000D03*
D15*
X92500000Y-54500000D03*
X92500000Y-107500000D03*
X116500000Y-54500000D03*
X116500000Y-107500000D03*
D16*
X91800000Y-59397410D03*
D17*
X91800000Y-61937410D03*
X91800000Y-64477410D03*
X91800000Y-67017410D03*
X91800000Y-69557410D03*
X91800000Y-72097410D03*
X91800000Y-74637410D03*
X91800000Y-77177410D03*
X91800000Y-79717410D03*
X91800000Y-82257410D03*
X91800000Y-84797410D03*
X91800000Y-87337410D03*
X91800000Y-89877410D03*
X91800000Y-92417410D03*
X91800000Y-94957410D03*
X91800000Y-97497410D03*
X91800000Y-100037410D03*
X91800000Y-102577410D03*
X117200000Y-102577410D03*
X117200000Y-100037410D03*
X117200000Y-97497410D03*
X117200000Y-94957410D03*
X117200000Y-92417410D03*
X117200000Y-89877410D03*
X117200000Y-87337410D03*
X117200000Y-84797410D03*
X117200000Y-82257410D03*
X117200000Y-79717410D03*
X117200000Y-77177410D03*
X117200000Y-74637410D03*
X117200000Y-72097410D03*
X117200000Y-69557410D03*
X117200000Y-67017410D03*
X117200000Y-64477410D03*
X117200000Y-61937410D03*
D16*
X117200000Y-59397410D03*
D12*
X74500000Y-38500000D03*
M02*
