M48
; DRILL file {KiCad 7.0.7} date Tue 03 Oct 2023 13:22:20
; FORMAT={-:-/ absolute / metric / decimal}
; #@! TF.CreationDate,2023-10-03T13:22:20+10:00
; #@! TF.GenerationSoftware,Kicad,Pcbnew,7.0.7
; #@! TF.FileFunction,Plated,1,2,PTH
FMAT,2
METRIC
; #@! TA.AperFunction,Plated,PTH,ViaDrill
T1C0.400
; #@! TA.AperFunction,Plated,PTH,ComponentDrill
T2C0.800
; #@! TA.AperFunction,Plated,PTH,ComponentDrill
T3C1.000
; #@! TA.AperFunction,Plated,PTH,ComponentDrill
T4C3.200
%
G90
G05
T1
X84.5Y-66.5
X85.0Y-63.5
X85.0Y-89.5
X85.0Y-102.5
X85.5Y-76.5
X96.5Y-58.5
X96.5Y-75.0
X99.0Y-58.5
X101.5Y-58.5
X104.0Y-58.5
X106.5Y-58.5
X109.0Y-58.5
X110.0Y-83.5
X110.5Y-75.0
X112.0Y-73.0
X112.5Y-83.5
T2
X77.68Y-56.0
X77.68Y-58.54
X77.88Y-82.0
X77.88Y-84.54
X78.18Y-68.96
X78.18Y-71.5
X78.18Y-94.96
X78.18Y-97.5
X85.3Y-56.0
X85.3Y-58.54
X85.5Y-82.0
X85.5Y-84.54
X85.8Y-68.96
X85.8Y-71.5
X85.8Y-94.96
X85.8Y-97.5
X91.8Y-59.397
X91.8Y-61.937
X91.8Y-64.477
X91.8Y-67.017
X91.8Y-69.557
X91.8Y-72.097
X91.8Y-74.637
X91.8Y-77.177
X91.8Y-79.717
X91.8Y-82.257
X91.8Y-84.797
X91.8Y-87.337
X91.8Y-89.877
X91.8Y-92.417
X91.8Y-94.957
X91.8Y-97.497
X91.8Y-100.037
X91.8Y-102.577
X117.2Y-59.397
X117.2Y-61.937
X117.2Y-64.477
X117.2Y-67.017
X117.2Y-69.557
X117.2Y-72.097
X117.2Y-74.637
X117.2Y-77.177
X117.2Y-79.717
X117.2Y-82.257
X117.2Y-84.797
X117.2Y-87.337
X117.2Y-89.877
X117.2Y-92.417
X117.2Y-94.957
X117.2Y-97.497
X117.2Y-100.037
X117.2Y-102.577
T3
X88.235Y-47.8
X89.62Y-44.96
X91.005Y-47.8
X92.39Y-44.96
X93.775Y-47.8
X95.16Y-44.96
X96.545Y-47.8
X97.93Y-44.96
X99.315Y-47.8
X100.7Y-44.96
X102.085Y-47.8
X103.47Y-44.96
X104.855Y-47.8
X106.24Y-44.96
X107.625Y-47.8
T4
X81.28Y-46.38
X114.58Y-46.38
T0
M30
