G04 #@! TF.GenerationSoftware,KiCad,Pcbnew,7.0.7*
G04 #@! TF.CreationDate,2023-10-03T13:22:08+10:00*
G04 #@! TF.ProjectId,grbl_controller,6772626c-5f63-46f6-9e74-726f6c6c6572,rev?*
G04 #@! TF.SameCoordinates,Original*
G04 #@! TF.FileFunction,Copper,L2,Bot*
G04 #@! TF.FilePolarity,Positive*
%FSLAX46Y46*%
G04 Gerber Fmt 4.6, Leading zero omitted, Abs format (unit mm)*
G04 Created by KiCad (PCBNEW 7.0.7) date 2023-10-03 13:22:08*
%MOMM*%
%LPD*%
G01*
G04 APERTURE LIST*
G04 #@! TA.AperFunction,ComponentPad*
%ADD10R,1.600000X1.600000*%
G04 #@! TD*
G04 #@! TA.AperFunction,ComponentPad*
%ADD11O,1.600000X1.600000*%
G04 #@! TD*
G04 #@! TA.AperFunction,ComponentPad*
%ADD12C,4.000000*%
G04 #@! TD*
G04 #@! TA.AperFunction,ComponentPad*
%ADD13C,1.600000*%
G04 #@! TD*
G04 #@! TA.AperFunction,WasherPad*
%ADD14C,6.000000*%
G04 #@! TD*
G04 #@! TA.AperFunction,ComponentPad*
%ADD15R,2.400000X1.600000*%
G04 #@! TD*
G04 #@! TA.AperFunction,ComponentPad*
%ADD16O,2.400000X1.600000*%
G04 #@! TD*
G04 #@! TA.AperFunction,ViaPad*
%ADD17C,0.800000*%
G04 #@! TD*
G04 #@! TA.AperFunction,Conductor*
%ADD18C,0.250000*%
G04 #@! TD*
G04 APERTURE END LIST*
D10*
X85300000Y-58540000D03*
D11*
X85300000Y-56000000D03*
X77680000Y-56000000D03*
X77680000Y-58540000D03*
D10*
X85500000Y-84540000D03*
D11*
X85500000Y-82000000D03*
X77880000Y-82000000D03*
X77880000Y-84540000D03*
D10*
X85800000Y-97500000D03*
D11*
X85800000Y-94960000D03*
X78180000Y-94960000D03*
X78180000Y-97500000D03*
D12*
X114580000Y-46380331D03*
X81280000Y-46380331D03*
D10*
X107625000Y-47800331D03*
D13*
X104855000Y-47800331D03*
X102085000Y-47800331D03*
X99315000Y-47800331D03*
X96545000Y-47800331D03*
X93775000Y-47800331D03*
X91005000Y-47800331D03*
X88235000Y-47800331D03*
X106240000Y-44960331D03*
X103470000Y-44960331D03*
X100700000Y-44960331D03*
X97930000Y-44960331D03*
X95160000Y-44960331D03*
X92390000Y-44960331D03*
X89620000Y-44960331D03*
D10*
X85800000Y-71500000D03*
D11*
X85800000Y-68960000D03*
X78180000Y-68960000D03*
X78180000Y-71500000D03*
D14*
X92500000Y-54500000D03*
X92500000Y-107500000D03*
X116500000Y-54500000D03*
X116500000Y-107500000D03*
D15*
X91800000Y-59397410D03*
D16*
X91800000Y-61937410D03*
X91800000Y-64477410D03*
X91800000Y-67017410D03*
X91800000Y-69557410D03*
X91800000Y-72097410D03*
X91800000Y-74637410D03*
X91800000Y-77177410D03*
X91800000Y-79717410D03*
X91800000Y-82257410D03*
X91800000Y-84797410D03*
X91800000Y-87337410D03*
X91800000Y-89877410D03*
X91800000Y-92417410D03*
X91800000Y-94957410D03*
X91800000Y-97497410D03*
X91800000Y-100037410D03*
X91800000Y-102577410D03*
X117200000Y-102577410D03*
X117200000Y-100037410D03*
X117200000Y-97497410D03*
X117200000Y-94957410D03*
X117200000Y-92417410D03*
X117200000Y-89877410D03*
X117200000Y-87337410D03*
X117200000Y-84797410D03*
X117200000Y-82257410D03*
X117200000Y-79717410D03*
X117200000Y-77177410D03*
X117200000Y-74637410D03*
X117200000Y-72097410D03*
X117200000Y-69557410D03*
X117200000Y-67017410D03*
X117200000Y-64477410D03*
X117200000Y-61937410D03*
D15*
X117200000Y-59397410D03*
D17*
X85000000Y-102500000D03*
X85000000Y-63500000D03*
X85000000Y-89500000D03*
X85500000Y-76500000D03*
X96500000Y-75000000D03*
X84500000Y-66500000D03*
X110500000Y-75000000D03*
X106500000Y-58500000D03*
X96500000Y-58500000D03*
X110000000Y-83500000D03*
X101500000Y-58500000D03*
X99000000Y-58500000D03*
X112500000Y-83500000D03*
X104000000Y-58500000D03*
X112000000Y-73000000D03*
X109000000Y-58500000D03*
D18*
X84675000Y-96085000D02*
X84675000Y-102175000D01*
X84675000Y-102175000D02*
X85000000Y-102500000D01*
X85800000Y-94960000D02*
X84675000Y-96085000D01*
X85300000Y-56000000D02*
X84175000Y-57125000D01*
X84175000Y-57125000D02*
X84175000Y-62675000D01*
X84175000Y-62675000D02*
X85000000Y-63500000D01*
X84375000Y-88875000D02*
X85000000Y-89500000D01*
X84375000Y-83125000D02*
X84375000Y-88875000D01*
X85500000Y-82000000D02*
X84375000Y-83125000D01*
X84675000Y-75675000D02*
X85500000Y-76500000D01*
X85800000Y-68960000D02*
X84675000Y-70085000D01*
X84675000Y-70085000D02*
X84675000Y-75675000D01*
X96500000Y-71000000D02*
X96500000Y-75000000D01*
X84500000Y-66500000D02*
X87000000Y-66500000D01*
X96500000Y-75000000D02*
X110500000Y-75000000D01*
X93932410Y-68432410D02*
X96500000Y-71000000D01*
X87000000Y-66500000D02*
X88932410Y-68432410D01*
X88932410Y-68432410D02*
X93932410Y-68432410D01*
X81847590Y-93832410D02*
X115785000Y-93832410D01*
X115785000Y-93832410D02*
X117200000Y-92417410D01*
X78180000Y-97500000D02*
X81847590Y-93832410D01*
X85032410Y-65892410D02*
X109892410Y-65892410D01*
X113500000Y-69500000D02*
X113500000Y-83474696D01*
X109892410Y-65892410D02*
X113500000Y-69500000D01*
X113500000Y-83474696D02*
X114822714Y-84797410D01*
X77680000Y-58540000D02*
X85032410Y-65892410D01*
X114822714Y-84797410D02*
X117200000Y-84797410D01*
X83292410Y-91292410D02*
X77880000Y-85880000D01*
X77880000Y-85880000D02*
X77880000Y-84540000D01*
X115785000Y-91292410D02*
X83292410Y-91292410D01*
X117200000Y-89877410D02*
X115785000Y-91292410D01*
X94000000Y-81000000D02*
X87680000Y-81000000D01*
X100337410Y-87337410D02*
X94000000Y-81000000D01*
X117200000Y-87337410D02*
X100337410Y-87337410D01*
X87680000Y-81000000D02*
X78180000Y-71500000D01*
G04 #@! TA.AperFunction,Conductor*
G36*
X109648997Y-66537595D02*
G01*
X109669639Y-66554229D01*
X112838182Y-69722772D01*
X112871666Y-69784093D01*
X112874500Y-69810451D01*
X112874500Y-83391951D01*
X112872775Y-83407568D01*
X112873061Y-83407595D01*
X112872326Y-83415361D01*
X112874500Y-83484510D01*
X112874500Y-83514039D01*
X112874501Y-83514056D01*
X112875368Y-83520927D01*
X112875826Y-83526746D01*
X112877290Y-83573320D01*
X112877291Y-83573323D01*
X112882880Y-83592563D01*
X112886824Y-83611607D01*
X112889336Y-83631488D01*
X112892624Y-83639792D01*
X112906490Y-83674815D01*
X112908382Y-83680343D01*
X112921381Y-83725084D01*
X112931580Y-83742330D01*
X112940138Y-83759799D01*
X112947514Y-83778428D01*
X112974898Y-83816119D01*
X112978106Y-83821003D01*
X113001827Y-83861112D01*
X113001833Y-83861120D01*
X113015990Y-83875276D01*
X113028628Y-83890072D01*
X113040405Y-83906282D01*
X113040406Y-83906283D01*
X113076309Y-83935984D01*
X113080620Y-83939906D01*
X114127201Y-84986488D01*
X114321911Y-85181198D01*
X114331736Y-85193461D01*
X114331957Y-85193279D01*
X114336928Y-85199288D01*
X114362931Y-85223705D01*
X114387349Y-85246636D01*
X114408243Y-85267530D01*
X114413725Y-85271783D01*
X114418157Y-85275567D01*
X114452132Y-85307472D01*
X114469690Y-85317124D01*
X114485949Y-85327805D01*
X114501778Y-85340083D01*
X114544552Y-85358592D01*
X114549770Y-85361148D01*
X114590622Y-85383607D01*
X114610030Y-85388590D01*
X114628431Y-85394890D01*
X114646818Y-85402847D01*
X114690202Y-85409718D01*
X114692833Y-85410135D01*
X114698553Y-85411319D01*
X114743695Y-85422910D01*
X114763730Y-85422910D01*
X114783128Y-85424436D01*
X114802908Y-85427569D01*
X114802909Y-85427570D01*
X114802909Y-85427569D01*
X114802910Y-85427570D01*
X114849297Y-85423185D01*
X114855136Y-85422910D01*
X115585812Y-85422910D01*
X115652851Y-85442595D01*
X115687387Y-85475787D01*
X115799954Y-85636551D01*
X115960858Y-85797455D01*
X115960861Y-85797457D01*
X116147266Y-85927978D01*
X116205275Y-85955028D01*
X116257714Y-86001201D01*
X116276866Y-86068394D01*
X116256650Y-86135275D01*
X116205275Y-86179792D01*
X116147267Y-86206841D01*
X116147265Y-86206842D01*
X115960858Y-86337364D01*
X115799954Y-86498268D01*
X115687387Y-86659033D01*
X115632811Y-86702658D01*
X115585812Y-86711910D01*
X100647863Y-86711910D01*
X100580824Y-86692225D01*
X100560182Y-86675591D01*
X94500803Y-80616212D01*
X94490980Y-80603950D01*
X94490759Y-80604134D01*
X94485786Y-80598123D01*
X94435364Y-80550773D01*
X94424919Y-80540328D01*
X94414475Y-80529883D01*
X94408986Y-80525625D01*
X94404561Y-80521847D01*
X94370582Y-80489938D01*
X94370580Y-80489936D01*
X94370577Y-80489935D01*
X94353029Y-80480288D01*
X94336763Y-80469604D01*
X94320933Y-80457325D01*
X94278168Y-80438818D01*
X94272922Y-80436248D01*
X94232093Y-80413803D01*
X94232092Y-80413802D01*
X94212693Y-80408822D01*
X94194281Y-80402518D01*
X94175898Y-80394562D01*
X94175892Y-80394560D01*
X94129874Y-80387272D01*
X94124152Y-80386087D01*
X94079021Y-80374500D01*
X94079019Y-80374500D01*
X94058984Y-80374500D01*
X94039586Y-80372973D01*
X94032162Y-80371797D01*
X94019805Y-80369840D01*
X94019804Y-80369840D01*
X93973416Y-80374225D01*
X93967578Y-80374500D01*
X93523178Y-80374500D01*
X93456139Y-80354815D01*
X93410384Y-80302011D01*
X93400440Y-80232853D01*
X93410796Y-80198095D01*
X93426739Y-80163906D01*
X93485635Y-79944102D01*
X93505468Y-79717410D01*
X93485635Y-79490718D01*
X93426739Y-79270914D01*
X93330568Y-79064676D01*
X93200047Y-78878271D01*
X93200045Y-78878268D01*
X93039141Y-78717364D01*
X92852734Y-78586842D01*
X92852728Y-78586839D01*
X92794725Y-78559792D01*
X92742285Y-78513620D01*
X92723133Y-78446427D01*
X92743348Y-78379545D01*
X92794725Y-78335028D01*
X92852734Y-78307978D01*
X93039139Y-78177457D01*
X93200047Y-78016549D01*
X93330568Y-77830144D01*
X93426739Y-77623906D01*
X93485635Y-77404102D01*
X93505468Y-77177410D01*
X93505072Y-77172888D01*
X93485635Y-76950723D01*
X93485635Y-76950718D01*
X93426739Y-76730914D01*
X93330568Y-76524676D01*
X93200047Y-76338271D01*
X93200045Y-76338268D01*
X93039141Y-76177364D01*
X92852734Y-76046842D01*
X92852728Y-76046839D01*
X92794725Y-76019792D01*
X92742285Y-75973620D01*
X92723133Y-75906427D01*
X92743348Y-75839545D01*
X92794725Y-75795028D01*
X92852734Y-75767978D01*
X93039139Y-75637457D01*
X93200047Y-75476549D01*
X93330568Y-75290144D01*
X93426739Y-75083906D01*
X93485635Y-74864102D01*
X93505468Y-74637410D01*
X93504970Y-74631722D01*
X93499801Y-74572640D01*
X93485635Y-74410718D01*
X93426739Y-74190914D01*
X93330568Y-73984676D01*
X93200047Y-73798271D01*
X93200045Y-73798268D01*
X93039141Y-73637364D01*
X92852734Y-73506842D01*
X92852728Y-73506839D01*
X92794725Y-73479792D01*
X92742285Y-73433620D01*
X92723133Y-73366427D01*
X92743348Y-73299545D01*
X92794725Y-73255028D01*
X92852734Y-73227978D01*
X93039139Y-73097457D01*
X93200047Y-72936549D01*
X93330568Y-72750144D01*
X93426739Y-72543906D01*
X93485635Y-72324102D01*
X93505468Y-72097410D01*
X93485635Y-71870718D01*
X93426739Y-71650914D01*
X93330568Y-71444676D01*
X93200047Y-71258271D01*
X93200045Y-71258268D01*
X93039141Y-71097364D01*
X92852734Y-70966842D01*
X92852728Y-70966839D01*
X92818495Y-70950876D01*
X92794724Y-70939791D01*
X92742285Y-70893620D01*
X92723133Y-70826427D01*
X92743348Y-70759545D01*
X92794725Y-70715028D01*
X92852734Y-70687978D01*
X93039139Y-70557457D01*
X93200047Y-70396549D01*
X93330568Y-70210144D01*
X93426739Y-70003906D01*
X93485635Y-69784102D01*
X93487389Y-69764061D01*
X93505468Y-69557411D01*
X93505468Y-69557408D01*
X93492265Y-69406497D01*
X93485635Y-69330718D01*
X93472308Y-69280983D01*
X93454362Y-69214003D01*
X93456025Y-69144153D01*
X93495188Y-69086291D01*
X93559417Y-69058787D01*
X93574137Y-69057910D01*
X93621958Y-69057910D01*
X93688997Y-69077595D01*
X93709639Y-69094229D01*
X95838181Y-71222770D01*
X95871666Y-71284093D01*
X95874500Y-71310451D01*
X95874500Y-74301312D01*
X95854815Y-74368351D01*
X95842650Y-74384284D01*
X95767466Y-74467784D01*
X95672821Y-74631715D01*
X95672818Y-74631722D01*
X95614327Y-74811740D01*
X95614326Y-74811744D01*
X95594540Y-75000000D01*
X95614326Y-75188256D01*
X95614327Y-75188259D01*
X95672818Y-75368277D01*
X95672821Y-75368284D01*
X95767467Y-75532216D01*
X95863487Y-75638857D01*
X95894129Y-75672888D01*
X96047265Y-75784148D01*
X96047270Y-75784151D01*
X96220192Y-75861142D01*
X96220197Y-75861144D01*
X96405354Y-75900500D01*
X96405355Y-75900500D01*
X96594644Y-75900500D01*
X96594646Y-75900500D01*
X96779803Y-75861144D01*
X96952730Y-75784151D01*
X97105871Y-75672888D01*
X97108788Y-75669647D01*
X97111600Y-75666526D01*
X97171087Y-75629879D01*
X97203748Y-75625500D01*
X109796252Y-75625500D01*
X109863291Y-75645185D01*
X109888400Y-75666526D01*
X109894126Y-75672885D01*
X109894130Y-75672889D01*
X110047265Y-75784148D01*
X110047270Y-75784151D01*
X110220192Y-75861142D01*
X110220197Y-75861144D01*
X110405354Y-75900500D01*
X110405355Y-75900500D01*
X110594644Y-75900500D01*
X110594646Y-75900500D01*
X110779803Y-75861144D01*
X110952730Y-75784151D01*
X111105871Y-75672888D01*
X111232533Y-75532216D01*
X111327179Y-75368284D01*
X111385674Y-75188256D01*
X111405460Y-75000000D01*
X111385674Y-74811744D01*
X111327179Y-74631716D01*
X111232533Y-74467784D01*
X111105871Y-74327112D01*
X111105870Y-74327111D01*
X110952734Y-74215851D01*
X110952729Y-74215848D01*
X110779807Y-74138857D01*
X110779802Y-74138855D01*
X110634000Y-74107865D01*
X110594646Y-74099500D01*
X110405354Y-74099500D01*
X110372897Y-74106398D01*
X110220197Y-74138855D01*
X110220192Y-74138857D01*
X110047270Y-74215848D01*
X110047265Y-74215851D01*
X109894130Y-74327110D01*
X109894126Y-74327114D01*
X109888400Y-74333474D01*
X109828913Y-74370121D01*
X109796252Y-74374500D01*
X97249500Y-74374500D01*
X97182461Y-74354815D01*
X97136706Y-74302011D01*
X97125500Y-74250500D01*
X97125500Y-71082742D01*
X97127224Y-71067122D01*
X97126939Y-71067095D01*
X97127673Y-71059333D01*
X97125500Y-70990172D01*
X97125500Y-70960656D01*
X97125500Y-70960650D01*
X97124631Y-70953779D01*
X97124173Y-70947952D01*
X97123917Y-70939792D01*
X97122710Y-70901373D01*
X97117119Y-70882130D01*
X97113173Y-70863078D01*
X97110664Y-70843208D01*
X97093504Y-70799867D01*
X97091624Y-70794379D01*
X97078618Y-70749610D01*
X97068422Y-70732370D01*
X97059861Y-70714894D01*
X97052487Y-70696270D01*
X97046464Y-70687980D01*
X97025079Y-70658545D01*
X97021888Y-70653686D01*
X97020967Y-70652129D01*
X96998170Y-70613580D01*
X96998168Y-70613578D01*
X96998165Y-70613574D01*
X96984006Y-70599415D01*
X96971368Y-70584619D01*
X96959594Y-70568413D01*
X96946350Y-70557457D01*
X96923688Y-70538709D01*
X96919376Y-70534786D01*
X94433213Y-68048622D01*
X94423390Y-68036360D01*
X94423169Y-68036544D01*
X94418196Y-68030533D01*
X94367774Y-67983183D01*
X94357329Y-67972738D01*
X94346885Y-67962293D01*
X94341396Y-67958035D01*
X94336971Y-67954257D01*
X94302992Y-67922348D01*
X94302990Y-67922346D01*
X94302987Y-67922345D01*
X94285439Y-67912698D01*
X94269173Y-67902014D01*
X94253343Y-67889735D01*
X94210578Y-67871228D01*
X94205332Y-67868658D01*
X94164503Y-67846213D01*
X94164502Y-67846212D01*
X94145103Y-67841232D01*
X94126691Y-67834928D01*
X94108308Y-67826972D01*
X94108302Y-67826970D01*
X94062284Y-67819682D01*
X94056562Y-67818497D01*
X94011431Y-67806910D01*
X94011429Y-67806910D01*
X93991394Y-67806910D01*
X93971996Y-67805383D01*
X93964572Y-67804207D01*
X93952215Y-67802250D01*
X93952214Y-67802250D01*
X93905826Y-67806635D01*
X93899988Y-67806910D01*
X93461434Y-67806910D01*
X93394395Y-67787225D01*
X93348640Y-67734421D01*
X93338696Y-67665263D01*
X93349052Y-67630505D01*
X93426739Y-67463906D01*
X93485635Y-67244102D01*
X93505468Y-67017410D01*
X93485635Y-66790718D01*
X93469256Y-66729591D01*
X93454362Y-66674003D01*
X93456025Y-66604153D01*
X93495188Y-66546291D01*
X93559417Y-66518787D01*
X93574137Y-66517910D01*
X109581958Y-66517910D01*
X109648997Y-66537595D01*
G37*
G04 #@! TD.AperFunction*
G04 #@! TA.AperFunction,Conductor*
G36*
X122476960Y-35001342D02*
G01*
X122526508Y-35008691D01*
X122704770Y-35036926D01*
X122710086Y-35038010D01*
X122880788Y-35080769D01*
X123051983Y-35126640D01*
X123056793Y-35128142D01*
X123223973Y-35187960D01*
X123388319Y-35251047D01*
X123392586Y-35252873D01*
X123553926Y-35329181D01*
X123615668Y-35360640D01*
X123710277Y-35408847D01*
X123713981Y-35410896D01*
X123821167Y-35475141D01*
X123867605Y-35502975D01*
X124014593Y-35598430D01*
X124017759Y-35600629D01*
X124161963Y-35707578D01*
X124213314Y-35749161D01*
X124298179Y-35817883D01*
X124300765Y-35820099D01*
X124432898Y-35939857D01*
X124435102Y-35941956D01*
X124558042Y-36064896D01*
X124560141Y-36067100D01*
X124679889Y-36199222D01*
X124682121Y-36201826D01*
X124690369Y-36212011D01*
X124792421Y-36338036D01*
X124899369Y-36482239D01*
X124901568Y-36485405D01*
X124997024Y-36632394D01*
X125089088Y-36785993D01*
X125091151Y-36789720D01*
X125170822Y-36946081D01*
X125247125Y-37107412D01*
X125248961Y-37111703D01*
X125312042Y-37276034D01*
X125371848Y-37443181D01*
X125373360Y-37448023D01*
X125419237Y-37619239D01*
X125461982Y-37789886D01*
X125463077Y-37795254D01*
X125491318Y-37973560D01*
X125493081Y-37985448D01*
X125498657Y-38023042D01*
X125499999Y-38041234D01*
X125499999Y-112458765D01*
X125498657Y-112476956D01*
X125491327Y-112526378D01*
X125478886Y-112604933D01*
X125463077Y-112704744D01*
X125461982Y-112710112D01*
X125419237Y-112880760D01*
X125373360Y-113051975D01*
X125371848Y-113056817D01*
X125312042Y-113223965D01*
X125248961Y-113388295D01*
X125247125Y-113392586D01*
X125170822Y-113553918D01*
X125091151Y-113710278D01*
X125089088Y-113714005D01*
X124997024Y-113867605D01*
X124901568Y-114014593D01*
X124899369Y-114017759D01*
X124792421Y-114161963D01*
X124682134Y-114298157D01*
X124679889Y-114300776D01*
X124560141Y-114432898D01*
X124558042Y-114435102D01*
X124435102Y-114558042D01*
X124432898Y-114560141D01*
X124300776Y-114679889D01*
X124298157Y-114682134D01*
X124161963Y-114792421D01*
X124017759Y-114899369D01*
X124014593Y-114901568D01*
X123867605Y-114997024D01*
X123714005Y-115089088D01*
X123710278Y-115091151D01*
X123553918Y-115170822D01*
X123392586Y-115247125D01*
X123388295Y-115248961D01*
X123223965Y-115312042D01*
X123056817Y-115371848D01*
X123051975Y-115373360D01*
X122880760Y-115419237D01*
X122710112Y-115461982D01*
X122704744Y-115463077D01*
X122611589Y-115477831D01*
X122526408Y-115491322D01*
X122504188Y-115494619D01*
X122476958Y-115498658D01*
X122458764Y-115500000D01*
X74041235Y-115500000D01*
X74023041Y-115498658D01*
X73999270Y-115495132D01*
X73973612Y-115491326D01*
X73846950Y-115471265D01*
X73795254Y-115463077D01*
X73789886Y-115461982D01*
X73619239Y-115419237D01*
X73448023Y-115373360D01*
X73443181Y-115371848D01*
X73276034Y-115312042D01*
X73111703Y-115248961D01*
X73107412Y-115247125D01*
X72946081Y-115170822D01*
X72789720Y-115091151D01*
X72785993Y-115089088D01*
X72632394Y-114997024D01*
X72485405Y-114901568D01*
X72482239Y-114899369D01*
X72338036Y-114792421D01*
X72229029Y-114704150D01*
X72201826Y-114682121D01*
X72199222Y-114679889D01*
X72124944Y-114612568D01*
X72067095Y-114560136D01*
X72064896Y-114558042D01*
X71941956Y-114435102D01*
X71939857Y-114432898D01*
X71889664Y-114377518D01*
X71820099Y-114300765D01*
X71817883Y-114298179D01*
X71709538Y-114164384D01*
X71707578Y-114161963D01*
X71600629Y-114017759D01*
X71598430Y-114014593D01*
X71502975Y-113867605D01*
X71474487Y-113820076D01*
X71410896Y-113713981D01*
X71408847Y-113710277D01*
X71329177Y-113553918D01*
X71252873Y-113392586D01*
X71251047Y-113388319D01*
X71187960Y-113223973D01*
X71128142Y-113056793D01*
X71126640Y-113051983D01*
X71080762Y-112880760D01*
X71075617Y-112860222D01*
X71038010Y-112710086D01*
X71036926Y-112704770D01*
X71008686Y-112526469D01*
X71001341Y-112476959D01*
X71000000Y-112458767D01*
X71000000Y-112088678D01*
X71395700Y-112088678D01*
X71426044Y-112441961D01*
X71426047Y-112441983D01*
X71496459Y-112789479D01*
X71496465Y-112789501D01*
X71606038Y-113126729D01*
X71753333Y-113449261D01*
X71753338Y-113449271D01*
X71936434Y-113752901D01*
X71936438Y-113752906D01*
X71936443Y-113752915D01*
X71936448Y-113752921D01*
X72152963Y-114033704D01*
X72152975Y-114033718D01*
X72355977Y-114242601D01*
X72400095Y-114287997D01*
X72674595Y-114512455D01*
X72674597Y-114512456D01*
X72972875Y-114704150D01*
X72972881Y-114704153D01*
X72972883Y-114704154D01*
X72972891Y-114704159D01*
X73291096Y-114860609D01*
X73625061Y-114979768D01*
X73970432Y-115060080D01*
X74256953Y-115092955D01*
X74322705Y-115100500D01*
X74322707Y-115100500D01*
X74588578Y-115100500D01*
X74677053Y-115095440D01*
X74854008Y-115085322D01*
X75203400Y-115024857D01*
X75543623Y-114924959D01*
X75870241Y-114786929D01*
X76178995Y-114612568D01*
X76465861Y-114404147D01*
X76727099Y-114164385D01*
X76959304Y-113896407D01*
X77159448Y-113603706D01*
X77324921Y-113290098D01*
X77453568Y-112959672D01*
X77474311Y-112880760D01*
X77543709Y-112616739D01*
X77543710Y-112616736D01*
X77594173Y-112265759D01*
X77599231Y-112088678D01*
X118895700Y-112088678D01*
X118926044Y-112441961D01*
X118926047Y-112441983D01*
X118996459Y-112789479D01*
X118996465Y-112789501D01*
X119106038Y-113126729D01*
X119253333Y-113449261D01*
X119253338Y-113449271D01*
X119436434Y-113752901D01*
X119436438Y-113752906D01*
X119436443Y-113752915D01*
X119436448Y-113752921D01*
X119652963Y-114033704D01*
X119652975Y-114033718D01*
X119855977Y-114242601D01*
X119900095Y-114287997D01*
X120174595Y-114512455D01*
X120174597Y-114512456D01*
X120472875Y-114704150D01*
X120472881Y-114704153D01*
X120472883Y-114704154D01*
X120472891Y-114704159D01*
X120791096Y-114860609D01*
X121125061Y-114979768D01*
X121470432Y-115060080D01*
X121756953Y-115092955D01*
X121822705Y-115100500D01*
X121822707Y-115100500D01*
X122088578Y-115100500D01*
X122177053Y-115095440D01*
X122354008Y-115085322D01*
X122703400Y-115024857D01*
X123043623Y-114924959D01*
X123370241Y-114786929D01*
X123678995Y-114612568D01*
X123965861Y-114404147D01*
X124227099Y-114164385D01*
X124459304Y-113896407D01*
X124659448Y-113603706D01*
X124824921Y-113290098D01*
X124953568Y-112959672D01*
X124974311Y-112880760D01*
X125043709Y-112616739D01*
X125043710Y-112616736D01*
X125094173Y-112265759D01*
X125099657Y-112073769D01*
X125104299Y-111911328D01*
X125104299Y-111911317D01*
X125089089Y-111734233D01*
X125073955Y-111558032D01*
X125073952Y-111558016D01*
X125003540Y-111210520D01*
X125003534Y-111210498D01*
X124930623Y-110986102D01*
X124893964Y-110873277D01*
X124819357Y-110709911D01*
X124746666Y-110550738D01*
X124746661Y-110550728D01*
X124563565Y-110247098D01*
X124563563Y-110247096D01*
X124563557Y-110247085D01*
X124453954Y-110104949D01*
X124347036Y-109966295D01*
X124347024Y-109966281D01*
X124099913Y-109712011D01*
X124099910Y-109712008D01*
X124099905Y-109712003D01*
X123825405Y-109487545D01*
X123825402Y-109487543D01*
X123527124Y-109295849D01*
X123527118Y-109295846D01*
X123527112Y-109295843D01*
X123527109Y-109295841D01*
X123208904Y-109139391D01*
X123208900Y-109139389D01*
X123208899Y-109139389D01*
X122874940Y-109020232D01*
X122681031Y-108975141D01*
X122529568Y-108939920D01*
X122405949Y-108925736D01*
X122177295Y-108899500D01*
X122177293Y-108899500D01*
X121911424Y-108899500D01*
X121911422Y-108899500D01*
X121645995Y-108914677D01*
X121296608Y-108975141D01*
X121296591Y-108975145D01*
X120956380Y-109075040D01*
X120956377Y-109075041D01*
X120804107Y-109139391D01*
X120629766Y-109213068D01*
X120629761Y-109213070D01*
X120321005Y-109387431D01*
X120321002Y-109387433D01*
X120034138Y-109595853D01*
X119772901Y-109835615D01*
X119772900Y-109835616D01*
X119540695Y-110103593D01*
X119340555Y-110396288D01*
X119340548Y-110396299D01*
X119175085Y-110709889D01*
X119175075Y-110709911D01*
X119046429Y-111040333D01*
X118956290Y-111383260D01*
X118905828Y-111734233D01*
X118905826Y-111734253D01*
X118895700Y-112088671D01*
X118895700Y-112088678D01*
X77599231Y-112088678D01*
X77599657Y-112073769D01*
X77604299Y-111911328D01*
X77604299Y-111911317D01*
X77589089Y-111734233D01*
X77573955Y-111558032D01*
X77573952Y-111558016D01*
X77503540Y-111210520D01*
X77503534Y-111210498D01*
X77430623Y-110986102D01*
X77393964Y-110873277D01*
X77319357Y-110709911D01*
X77246666Y-110550738D01*
X77246661Y-110550728D01*
X77063565Y-110247098D01*
X77063563Y-110247096D01*
X77063557Y-110247085D01*
X76953954Y-110104949D01*
X76847036Y-109966295D01*
X76847024Y-109966281D01*
X76599913Y-109712011D01*
X76599910Y-109712008D01*
X76599905Y-109712003D01*
X76325405Y-109487545D01*
X76325402Y-109487543D01*
X76027124Y-109295849D01*
X76027118Y-109295846D01*
X76027112Y-109295843D01*
X76027109Y-109295841D01*
X75708904Y-109139391D01*
X75708900Y-109139389D01*
X75708899Y-109139389D01*
X75374940Y-109020232D01*
X75181031Y-108975141D01*
X75029568Y-108939920D01*
X74905949Y-108925736D01*
X74677295Y-108899500D01*
X74677293Y-108899500D01*
X74411424Y-108899500D01*
X74411422Y-108899500D01*
X74145995Y-108914677D01*
X73796608Y-108975141D01*
X73796591Y-108975145D01*
X73456380Y-109075040D01*
X73456377Y-109075041D01*
X73304107Y-109139391D01*
X73129766Y-109213068D01*
X73129761Y-109213070D01*
X72821005Y-109387431D01*
X72821002Y-109387433D01*
X72534138Y-109595853D01*
X72272901Y-109835615D01*
X72272900Y-109835616D01*
X72040695Y-110103593D01*
X71840555Y-110396288D01*
X71840548Y-110396299D01*
X71675085Y-110709889D01*
X71675075Y-110709911D01*
X71546429Y-111040333D01*
X71456290Y-111383260D01*
X71405828Y-111734233D01*
X71405826Y-111734253D01*
X71395700Y-112088671D01*
X71395700Y-112088678D01*
X71000000Y-112088678D01*
X71000000Y-58540001D01*
X76374532Y-58540001D01*
X76394364Y-58766686D01*
X76394366Y-58766697D01*
X76453258Y-58986488D01*
X76453261Y-58986497D01*
X76549431Y-59192732D01*
X76549432Y-59192734D01*
X76679954Y-59379141D01*
X76840858Y-59540045D01*
X76840861Y-59540047D01*
X77027266Y-59670568D01*
X77233504Y-59766739D01*
X77453308Y-59825635D01*
X77610791Y-59839413D01*
X77679998Y-59845468D01*
X77680000Y-59845468D01*
X77680002Y-59845468D01*
X77736807Y-59840498D01*
X77906692Y-59825635D01*
X77975048Y-59807319D01*
X78044897Y-59808982D01*
X78094822Y-59839413D01*
X83900864Y-65645455D01*
X83934349Y-65706778D01*
X83929365Y-65776470D01*
X83898305Y-65822127D01*
X83898477Y-65822282D01*
X83897345Y-65823538D01*
X83896161Y-65825280D01*
X83894134Y-65827105D01*
X83767466Y-65967785D01*
X83672821Y-66131715D01*
X83672818Y-66131722D01*
X83614327Y-66311740D01*
X83614326Y-66311744D01*
X83594540Y-66500000D01*
X83614326Y-66688256D01*
X83614327Y-66688259D01*
X83672818Y-66868277D01*
X83672821Y-66868284D01*
X83767467Y-67032216D01*
X83869185Y-67145185D01*
X83894129Y-67172888D01*
X84047265Y-67284148D01*
X84047270Y-67284151D01*
X84220192Y-67361142D01*
X84220197Y-67361144D01*
X84405354Y-67400500D01*
X84405355Y-67400500D01*
X84594644Y-67400500D01*
X84594646Y-67400500D01*
X84779803Y-67361144D01*
X84952730Y-67284151D01*
X85105871Y-67172888D01*
X85108788Y-67169647D01*
X85111600Y-67166526D01*
X85171087Y-67129879D01*
X85203748Y-67125500D01*
X86689548Y-67125500D01*
X86756587Y-67145185D01*
X86777228Y-67161818D01*
X87632864Y-68017455D01*
X88431607Y-68816198D01*
X88441432Y-68828461D01*
X88441653Y-68828279D01*
X88446624Y-68834288D01*
X88465110Y-68851647D01*
X88497045Y-68881636D01*
X88517939Y-68902530D01*
X88523421Y-68906783D01*
X88527853Y-68910567D01*
X88561828Y-68942472D01*
X88579386Y-68952124D01*
X88595645Y-68962805D01*
X88611474Y-68975083D01*
X88654248Y-68993592D01*
X88659466Y-68996148D01*
X88700318Y-69018607D01*
X88719726Y-69023590D01*
X88738127Y-69029890D01*
X88756514Y-69037847D01*
X88799898Y-69044718D01*
X88802529Y-69045135D01*
X88808249Y-69046319D01*
X88853391Y-69057910D01*
X88873426Y-69057910D01*
X88892824Y-69059436D01*
X88912604Y-69062569D01*
X88912605Y-69062570D01*
X88912605Y-69062569D01*
X88912606Y-69062570D01*
X88958993Y-69058185D01*
X88964832Y-69057910D01*
X90025863Y-69057910D01*
X90092902Y-69077595D01*
X90138657Y-69130399D01*
X90148601Y-69199557D01*
X90145638Y-69214003D01*
X90114366Y-69330712D01*
X90114364Y-69330723D01*
X90094532Y-69557408D01*
X90094532Y-69557411D01*
X90114364Y-69784093D01*
X90114366Y-69784107D01*
X90173258Y-70003898D01*
X90173261Y-70003907D01*
X90269431Y-70210142D01*
X90269432Y-70210144D01*
X90399954Y-70396551D01*
X90560858Y-70557455D01*
X90560861Y-70557457D01*
X90747266Y-70687978D01*
X90805275Y-70715028D01*
X90857714Y-70761201D01*
X90876866Y-70828394D01*
X90856650Y-70895275D01*
X90805275Y-70939792D01*
X90747267Y-70966841D01*
X90747265Y-70966842D01*
X90560858Y-71097364D01*
X90399954Y-71258268D01*
X90269432Y-71444675D01*
X90269431Y-71444677D01*
X90173261Y-71650912D01*
X90173258Y-71650921D01*
X90114366Y-71870712D01*
X90114364Y-71870723D01*
X90094532Y-72097408D01*
X90094532Y-72097411D01*
X90114364Y-72324096D01*
X90114366Y-72324107D01*
X90173258Y-72543898D01*
X90173261Y-72543907D01*
X90269431Y-72750142D01*
X90269432Y-72750144D01*
X90399954Y-72936551D01*
X90560858Y-73097455D01*
X90560861Y-73097457D01*
X90747266Y-73227978D01*
X90805275Y-73255028D01*
X90857714Y-73301201D01*
X90876866Y-73368394D01*
X90856650Y-73435275D01*
X90805275Y-73479792D01*
X90747267Y-73506841D01*
X90747265Y-73506842D01*
X90560858Y-73637364D01*
X90399954Y-73798268D01*
X90269432Y-73984675D01*
X90269431Y-73984677D01*
X90173261Y-74190912D01*
X90173258Y-74190921D01*
X90114366Y-74410712D01*
X90114364Y-74410723D01*
X90094532Y-74637408D01*
X90094532Y-74637411D01*
X90114364Y-74864096D01*
X90114366Y-74864107D01*
X90173258Y-75083898D01*
X90173261Y-75083907D01*
X90269431Y-75290142D01*
X90269432Y-75290144D01*
X90399954Y-75476551D01*
X90560858Y-75637455D01*
X90562859Y-75638856D01*
X90747266Y-75767978D01*
X90800621Y-75792858D01*
X90805275Y-75795028D01*
X90857714Y-75841201D01*
X90876866Y-75908394D01*
X90856650Y-75975275D01*
X90805275Y-76019792D01*
X90747267Y-76046841D01*
X90747265Y-76046842D01*
X90560858Y-76177364D01*
X90399954Y-76338268D01*
X90269432Y-76524675D01*
X90269431Y-76524677D01*
X90173261Y-76730912D01*
X90173258Y-76730921D01*
X90114366Y-76950712D01*
X90114364Y-76950723D01*
X90094532Y-77177408D01*
X90094532Y-77177411D01*
X90114364Y-77404096D01*
X90114366Y-77404107D01*
X90173258Y-77623898D01*
X90173261Y-77623907D01*
X90269431Y-77830142D01*
X90269432Y-77830144D01*
X90399954Y-78016551D01*
X90560858Y-78177455D01*
X90560861Y-78177457D01*
X90747266Y-78307978D01*
X90805275Y-78335028D01*
X90857714Y-78381201D01*
X90876866Y-78448394D01*
X90856650Y-78515275D01*
X90805275Y-78559792D01*
X90747267Y-78586841D01*
X90747265Y-78586842D01*
X90560858Y-78717364D01*
X90399954Y-78878268D01*
X90269432Y-79064675D01*
X90269431Y-79064677D01*
X90173261Y-79270912D01*
X90173258Y-79270921D01*
X90114366Y-79490712D01*
X90114364Y-79490723D01*
X90094532Y-79717408D01*
X90094532Y-79717411D01*
X90114364Y-79944096D01*
X90114366Y-79944107D01*
X90173258Y-80163898D01*
X90173261Y-80163907D01*
X90189204Y-80198095D01*
X90199696Y-80267172D01*
X90171177Y-80330956D01*
X90112700Y-80369196D01*
X90076822Y-80374500D01*
X87990452Y-80374500D01*
X87923413Y-80354815D01*
X87902771Y-80338181D01*
X85142255Y-77577665D01*
X85108770Y-77516342D01*
X85113754Y-77446650D01*
X85155626Y-77390717D01*
X85221090Y-77366300D01*
X85255717Y-77368694D01*
X85405354Y-77400500D01*
X85405355Y-77400500D01*
X85594644Y-77400500D01*
X85594646Y-77400500D01*
X85779803Y-77361144D01*
X85952730Y-77284151D01*
X86105871Y-77172888D01*
X86232533Y-77032216D01*
X86327179Y-76868284D01*
X86385674Y-76688256D01*
X86405460Y-76500000D01*
X86385674Y-76311744D01*
X86327179Y-76131716D01*
X86232533Y-75967784D01*
X86105871Y-75827112D01*
X86105870Y-75827111D01*
X85952734Y-75715851D01*
X85952729Y-75715848D01*
X85779807Y-75638857D01*
X85779802Y-75638855D01*
X85634000Y-75607865D01*
X85594646Y-75599500D01*
X85594645Y-75599500D01*
X85535453Y-75599500D01*
X85468414Y-75579815D01*
X85447772Y-75563181D01*
X85336819Y-75452228D01*
X85303334Y-75390905D01*
X85300500Y-75364547D01*
X85300500Y-72924499D01*
X85320185Y-72857460D01*
X85372989Y-72811705D01*
X85424500Y-72800499D01*
X86647871Y-72800499D01*
X86647872Y-72800499D01*
X86707483Y-72794091D01*
X86842331Y-72743796D01*
X86957546Y-72657546D01*
X87043796Y-72542331D01*
X87094091Y-72407483D01*
X87100500Y-72347873D01*
X87100499Y-70652128D01*
X87094091Y-70592517D01*
X87094090Y-70592515D01*
X87043797Y-70457671D01*
X87043793Y-70457664D01*
X86957547Y-70342455D01*
X86957544Y-70342452D01*
X86842335Y-70256206D01*
X86842328Y-70256202D01*
X86707482Y-70205908D01*
X86707483Y-70205908D01*
X86672404Y-70202137D01*
X86607853Y-70175399D01*
X86568005Y-70118006D01*
X86565512Y-70048181D01*
X86601165Y-69988092D01*
X86614539Y-69977272D01*
X86618121Y-69974763D01*
X86639139Y-69960047D01*
X86800047Y-69799139D01*
X86930568Y-69612734D01*
X87026739Y-69406496D01*
X87085635Y-69186692D01*
X87104148Y-68975083D01*
X87105468Y-68960001D01*
X87105468Y-68959998D01*
X87094519Y-68834852D01*
X87085635Y-68733308D01*
X87026739Y-68513504D01*
X86930568Y-68307266D01*
X86800047Y-68120861D01*
X86800045Y-68120858D01*
X86639141Y-67959954D01*
X86452734Y-67829432D01*
X86452732Y-67829431D01*
X86246497Y-67733261D01*
X86246488Y-67733258D01*
X86026697Y-67674366D01*
X86026693Y-67674365D01*
X86026692Y-67674365D01*
X86026691Y-67674364D01*
X86026686Y-67674364D01*
X85800002Y-67654532D01*
X85799998Y-67654532D01*
X85573313Y-67674364D01*
X85573302Y-67674366D01*
X85353511Y-67733258D01*
X85353502Y-67733261D01*
X85147267Y-67829431D01*
X85147265Y-67829432D01*
X84960858Y-67959954D01*
X84799954Y-68120858D01*
X84669432Y-68307265D01*
X84669431Y-68307267D01*
X84573261Y-68513502D01*
X84573258Y-68513511D01*
X84514366Y-68733302D01*
X84514364Y-68733313D01*
X84495221Y-68952121D01*
X84494532Y-68960000D01*
X84514364Y-69186686D01*
X84514365Y-69186691D01*
X84514366Y-69186697D01*
X84532680Y-69255048D01*
X84531017Y-69324897D01*
X84500586Y-69374821D01*
X84291208Y-69584199D01*
X84278951Y-69594020D01*
X84279134Y-69594241D01*
X84273123Y-69599213D01*
X84225772Y-69649636D01*
X84204889Y-69670519D01*
X84204877Y-69670532D01*
X84200621Y-69676017D01*
X84196837Y-69680447D01*
X84164937Y-69714418D01*
X84164936Y-69714420D01*
X84155284Y-69731976D01*
X84144610Y-69748226D01*
X84132329Y-69764061D01*
X84132324Y-69764068D01*
X84113815Y-69806838D01*
X84111245Y-69812084D01*
X84088803Y-69852906D01*
X84083822Y-69872307D01*
X84077521Y-69890710D01*
X84069562Y-69909102D01*
X84069561Y-69909105D01*
X84062271Y-69955127D01*
X84061087Y-69960846D01*
X84049501Y-70005972D01*
X84049500Y-70005982D01*
X84049500Y-70026016D01*
X84047973Y-70045415D01*
X84044840Y-70065194D01*
X84044840Y-70065195D01*
X84049225Y-70111583D01*
X84049500Y-70117421D01*
X84049500Y-75592254D01*
X84047775Y-75607872D01*
X84048061Y-75607899D01*
X84047326Y-75615666D01*
X84049499Y-75684814D01*
X84049499Y-75714351D01*
X84050368Y-75721232D01*
X84050826Y-75727051D01*
X84052290Y-75773624D01*
X84052291Y-75773627D01*
X84057880Y-75792867D01*
X84061824Y-75811911D01*
X84064336Y-75831792D01*
X84075956Y-75861142D01*
X84081490Y-75875119D01*
X84083382Y-75880647D01*
X84096381Y-75925388D01*
X84106580Y-75942634D01*
X84115136Y-75960100D01*
X84120490Y-75973620D01*
X84122514Y-75978732D01*
X84149898Y-76016423D01*
X84153106Y-76021307D01*
X84176827Y-76061416D01*
X84176833Y-76061424D01*
X84190990Y-76075580D01*
X84203627Y-76090375D01*
X84215406Y-76106587D01*
X84245789Y-76131722D01*
X84251309Y-76136288D01*
X84255620Y-76140210D01*
X84532556Y-76417147D01*
X84561038Y-76445629D01*
X84594523Y-76506952D01*
X84596678Y-76520348D01*
X84614326Y-76688256D01*
X84628702Y-76732501D01*
X84630696Y-76802343D01*
X84594614Y-76862175D01*
X84531913Y-76893002D01*
X84462499Y-76885037D01*
X84423089Y-76858499D01*
X83671177Y-76106587D01*
X79479413Y-71914822D01*
X79445928Y-71853499D01*
X79447319Y-71795048D01*
X79465635Y-71726692D01*
X79485468Y-71500000D01*
X79465635Y-71273308D01*
X79406739Y-71053504D01*
X79310568Y-70847266D01*
X79180047Y-70660861D01*
X79180045Y-70660858D01*
X79019141Y-70499954D01*
X78832734Y-70369432D01*
X78832732Y-70369431D01*
X78821275Y-70364088D01*
X78774132Y-70342105D01*
X78721694Y-70295934D01*
X78702542Y-70228740D01*
X78722758Y-70161859D01*
X78774134Y-70117341D01*
X78832484Y-70090132D01*
X79018820Y-69959657D01*
X79179657Y-69798820D01*
X79310134Y-69612482D01*
X79406265Y-69406326D01*
X79406269Y-69406317D01*
X79458872Y-69210000D01*
X78690576Y-69210000D01*
X78623537Y-69190315D01*
X78577782Y-69137511D01*
X78567838Y-69068353D01*
X78568103Y-69066603D01*
X78584986Y-68960003D01*
X78584986Y-68959996D01*
X78568103Y-68853397D01*
X78577058Y-68784104D01*
X78622054Y-68730652D01*
X78688806Y-68710013D01*
X78690576Y-68710000D01*
X79458872Y-68710000D01*
X79458872Y-68709999D01*
X79406269Y-68513682D01*
X79406265Y-68513673D01*
X79310134Y-68307517D01*
X79179657Y-68121179D01*
X79018820Y-67960342D01*
X78832482Y-67829865D01*
X78626328Y-67733734D01*
X78430000Y-67681127D01*
X78430000Y-68449424D01*
X78410315Y-68516463D01*
X78357511Y-68562218D01*
X78288353Y-68572162D01*
X78286602Y-68571897D01*
X78211486Y-68560000D01*
X78211481Y-68560000D01*
X78148519Y-68560000D01*
X78148514Y-68560000D01*
X78073398Y-68571897D01*
X78004104Y-68562942D01*
X77950652Y-68517946D01*
X77930013Y-68451194D01*
X77930000Y-68449424D01*
X77930000Y-67681127D01*
X77733671Y-67733734D01*
X77527517Y-67829865D01*
X77341179Y-67960342D01*
X77180342Y-68121179D01*
X77049865Y-68307517D01*
X76953734Y-68513673D01*
X76953730Y-68513682D01*
X76901127Y-68709999D01*
X76901128Y-68710000D01*
X77669424Y-68710000D01*
X77736463Y-68729685D01*
X77782218Y-68782489D01*
X77792162Y-68851647D01*
X77791897Y-68853397D01*
X77775014Y-68959996D01*
X77775014Y-68960003D01*
X77791897Y-69066603D01*
X77782942Y-69135896D01*
X77737946Y-69189348D01*
X77671194Y-69209987D01*
X77669424Y-69210000D01*
X76901128Y-69210000D01*
X76953730Y-69406317D01*
X76953734Y-69406326D01*
X77049865Y-69612482D01*
X77180342Y-69798820D01*
X77341179Y-69959657D01*
X77527518Y-70090134D01*
X77527520Y-70090135D01*
X77585865Y-70117342D01*
X77638305Y-70163514D01*
X77657457Y-70230707D01*
X77637242Y-70297589D01*
X77585867Y-70342105D01*
X77527268Y-70369431D01*
X77527264Y-70369433D01*
X77340858Y-70499954D01*
X77179954Y-70660858D01*
X77049432Y-70847265D01*
X77049431Y-70847267D01*
X76953261Y-71053502D01*
X76953258Y-71053511D01*
X76894366Y-71273302D01*
X76894364Y-71273313D01*
X76874532Y-71499998D01*
X76874532Y-71500001D01*
X76894364Y-71726686D01*
X76894366Y-71726697D01*
X76953258Y-71946488D01*
X76953261Y-71946497D01*
X77049431Y-72152732D01*
X77049432Y-72152734D01*
X77179954Y-72339141D01*
X77340858Y-72500045D01*
X77340861Y-72500047D01*
X77527266Y-72630568D01*
X77733504Y-72726739D01*
X77953308Y-72785635D01*
X78110791Y-72799413D01*
X78179998Y-72805468D01*
X78180000Y-72805468D01*
X78180002Y-72805468D01*
X78236807Y-72800498D01*
X78406692Y-72785635D01*
X78475048Y-72767319D01*
X78544897Y-72768982D01*
X78594822Y-72799413D01*
X87179197Y-81383788D01*
X87189022Y-81396051D01*
X87189243Y-81395869D01*
X87194214Y-81401878D01*
X87220217Y-81426295D01*
X87244635Y-81449226D01*
X87265529Y-81470120D01*
X87271011Y-81474373D01*
X87275443Y-81478157D01*
X87309418Y-81510062D01*
X87326976Y-81519714D01*
X87343233Y-81530393D01*
X87359064Y-81542673D01*
X87378737Y-81551186D01*
X87401833Y-81561182D01*
X87407077Y-81563750D01*
X87447908Y-81586197D01*
X87460523Y-81589435D01*
X87467305Y-81591177D01*
X87485719Y-81597481D01*
X87504104Y-81605438D01*
X87550157Y-81612732D01*
X87555826Y-81613906D01*
X87600981Y-81625500D01*
X87621016Y-81625500D01*
X87640413Y-81627026D01*
X87660196Y-81630160D01*
X87706583Y-81625775D01*
X87712422Y-81625500D01*
X90065080Y-81625500D01*
X90132119Y-81645185D01*
X90177874Y-81697989D01*
X90187818Y-81767147D01*
X90177463Y-81801900D01*
X90173743Y-81809878D01*
X90173260Y-81810916D01*
X90173258Y-81810921D01*
X90114366Y-82030712D01*
X90114364Y-82030723D01*
X90094532Y-82257408D01*
X90094532Y-82257411D01*
X90114364Y-82484096D01*
X90114366Y-82484107D01*
X90173258Y-82703898D01*
X90173261Y-82703907D01*
X90269431Y-82910142D01*
X90269432Y-82910144D01*
X90399954Y-83096551D01*
X90560858Y-83257455D01*
X90560861Y-83257457D01*
X90747266Y-83387978D01*
X90805275Y-83415028D01*
X90857714Y-83461201D01*
X90876866Y-83528394D01*
X90856650Y-83595275D01*
X90805275Y-83639792D01*
X90747267Y-83666841D01*
X90747265Y-83666842D01*
X90560858Y-83797364D01*
X90399954Y-83958268D01*
X90269432Y-84144675D01*
X90269431Y-84144677D01*
X90173261Y-84350912D01*
X90173258Y-84350921D01*
X90114366Y-84570712D01*
X90114364Y-84570723D01*
X90094532Y-84797408D01*
X90094532Y-84797411D01*
X90114364Y-85024096D01*
X90114366Y-85024107D01*
X90173258Y-85243898D01*
X90173261Y-85243907D01*
X90269431Y-85450142D01*
X90269432Y-85450144D01*
X90399954Y-85636551D01*
X90560858Y-85797455D01*
X90560861Y-85797457D01*
X90747266Y-85927978D01*
X90805275Y-85955028D01*
X90857714Y-86001201D01*
X90876866Y-86068394D01*
X90856650Y-86135275D01*
X90805275Y-86179792D01*
X90747267Y-86206841D01*
X90747265Y-86206842D01*
X90560858Y-86337364D01*
X90399954Y-86498268D01*
X90269432Y-86684675D01*
X90269431Y-86684677D01*
X90173261Y-86890912D01*
X90173258Y-86890921D01*
X90114366Y-87110712D01*
X90114364Y-87110723D01*
X90094532Y-87337408D01*
X90094532Y-87337411D01*
X90114364Y-87564096D01*
X90114366Y-87564107D01*
X90173258Y-87783898D01*
X90173261Y-87783907D01*
X90269431Y-87990142D01*
X90269432Y-87990144D01*
X90399954Y-88176551D01*
X90560858Y-88337455D01*
X90560861Y-88337457D01*
X90747266Y-88467978D01*
X90805275Y-88495028D01*
X90857714Y-88541201D01*
X90876866Y-88608394D01*
X90856650Y-88675275D01*
X90805275Y-88719792D01*
X90747267Y-88746841D01*
X90747265Y-88746842D01*
X90560858Y-88877364D01*
X90399954Y-89038268D01*
X90269432Y-89224675D01*
X90269431Y-89224677D01*
X90173261Y-89430912D01*
X90173258Y-89430921D01*
X90114366Y-89650712D01*
X90114364Y-89650723D01*
X90094532Y-89877408D01*
X90094532Y-89877411D01*
X90114364Y-90104096D01*
X90114366Y-90104107D01*
X90173258Y-90323898D01*
X90173260Y-90323902D01*
X90173261Y-90323906D01*
X90208978Y-90400500D01*
X90250948Y-90490505D01*
X90261440Y-90559583D01*
X90232920Y-90623367D01*
X90174444Y-90661606D01*
X90138566Y-90666910D01*
X83602862Y-90666910D01*
X83535823Y-90647225D01*
X83515181Y-90630591D01*
X78650418Y-85765827D01*
X78616933Y-85704504D01*
X78621917Y-85634812D01*
X78663789Y-85578879D01*
X78666952Y-85576587D01*
X78719139Y-85540047D01*
X78880047Y-85379139D01*
X79010568Y-85192734D01*
X79106739Y-84986496D01*
X79165635Y-84766692D01*
X79185468Y-84540000D01*
X79165635Y-84313308D01*
X79118016Y-84135591D01*
X79106741Y-84093511D01*
X79106738Y-84093502D01*
X79043677Y-83958268D01*
X79010568Y-83887266D01*
X78880047Y-83700861D01*
X78880045Y-83700858D01*
X78719141Y-83539954D01*
X78532734Y-83409432D01*
X78532732Y-83409431D01*
X78486726Y-83387978D01*
X78474132Y-83382105D01*
X78421694Y-83335934D01*
X78402542Y-83268740D01*
X78422758Y-83201859D01*
X78474134Y-83157341D01*
X78532484Y-83130132D01*
X78568097Y-83105195D01*
X83744840Y-83105195D01*
X83749225Y-83151583D01*
X83749500Y-83157421D01*
X83749500Y-88792255D01*
X83747775Y-88807872D01*
X83748061Y-88807899D01*
X83747326Y-88815665D01*
X83749500Y-88884814D01*
X83749500Y-88914343D01*
X83749501Y-88914360D01*
X83750368Y-88921231D01*
X83750826Y-88927050D01*
X83752290Y-88973624D01*
X83752291Y-88973627D01*
X83757880Y-88992867D01*
X83761824Y-89011911D01*
X83764336Y-89031791D01*
X83781490Y-89075119D01*
X83783382Y-89080647D01*
X83796382Y-89125390D01*
X83800122Y-89131715D01*
X83806580Y-89142634D01*
X83815138Y-89160103D01*
X83822514Y-89178732D01*
X83849898Y-89216423D01*
X83853106Y-89221307D01*
X83876827Y-89261416D01*
X83876833Y-89261424D01*
X83890990Y-89275580D01*
X83903628Y-89290376D01*
X83915405Y-89306586D01*
X83915406Y-89306587D01*
X83951303Y-89336283D01*
X83955626Y-89340216D01*
X84061039Y-89445630D01*
X84094524Y-89506953D01*
X84096678Y-89520343D01*
X84114326Y-89688256D01*
X84114327Y-89688259D01*
X84172818Y-89868277D01*
X84172821Y-89868284D01*
X84267467Y-90032216D01*
X84394129Y-90172888D01*
X84547265Y-90284148D01*
X84547270Y-90284151D01*
X84720192Y-90361142D01*
X84720197Y-90361144D01*
X84905354Y-90400500D01*
X84905355Y-90400500D01*
X85094644Y-90400500D01*
X85094646Y-90400500D01*
X85279803Y-90361144D01*
X85452730Y-90284151D01*
X85605871Y-90172888D01*
X85732533Y-90032216D01*
X85827179Y-89868284D01*
X85885674Y-89688256D01*
X85905460Y-89500000D01*
X85885674Y-89311744D01*
X85827179Y-89131716D01*
X85732533Y-88967784D01*
X85605871Y-88827112D01*
X85605870Y-88827111D01*
X85452734Y-88715851D01*
X85452729Y-88715848D01*
X85279807Y-88638857D01*
X85279802Y-88638855D01*
X85098719Y-88600365D01*
X85037237Y-88567173D01*
X85003461Y-88506009D01*
X85000500Y-88479075D01*
X85000500Y-85964499D01*
X85020185Y-85897460D01*
X85072989Y-85851705D01*
X85124500Y-85840499D01*
X86347871Y-85840499D01*
X86347872Y-85840499D01*
X86407483Y-85834091D01*
X86542331Y-85783796D01*
X86657546Y-85697546D01*
X86743796Y-85582331D01*
X86794091Y-85447483D01*
X86800500Y-85387873D01*
X86800499Y-83692128D01*
X86794091Y-83632517D01*
X86793707Y-83631488D01*
X86743797Y-83497671D01*
X86743793Y-83497664D01*
X86657547Y-83382455D01*
X86657544Y-83382452D01*
X86542335Y-83296206D01*
X86542328Y-83296202D01*
X86407482Y-83245908D01*
X86407483Y-83245908D01*
X86372404Y-83242137D01*
X86307853Y-83215399D01*
X86268005Y-83158006D01*
X86265512Y-83088181D01*
X86301165Y-83028092D01*
X86314539Y-83017272D01*
X86318121Y-83014763D01*
X86339139Y-83000047D01*
X86500047Y-82839139D01*
X86630568Y-82652734D01*
X86726739Y-82446496D01*
X86785635Y-82226692D01*
X86805468Y-82000000D01*
X86785635Y-81773308D01*
X86726739Y-81553504D01*
X86630568Y-81347266D01*
X86500047Y-81160861D01*
X86500045Y-81160858D01*
X86339141Y-80999954D01*
X86152734Y-80869432D01*
X86152732Y-80869431D01*
X85946497Y-80773261D01*
X85946488Y-80773258D01*
X85726697Y-80714366D01*
X85726693Y-80714365D01*
X85726692Y-80714365D01*
X85726691Y-80714364D01*
X85726686Y-80714364D01*
X85500002Y-80694532D01*
X85499998Y-80694532D01*
X85273313Y-80714364D01*
X85273302Y-80714366D01*
X85053511Y-80773258D01*
X85053502Y-80773261D01*
X84847267Y-80869431D01*
X84847265Y-80869432D01*
X84660858Y-80999954D01*
X84499954Y-81160858D01*
X84369432Y-81347265D01*
X84369431Y-81347267D01*
X84273261Y-81553502D01*
X84273258Y-81553511D01*
X84214366Y-81773302D01*
X84214364Y-81773313D01*
X84194532Y-81999996D01*
X84194532Y-82000000D01*
X84214364Y-82226686D01*
X84214365Y-82226691D01*
X84214366Y-82226697D01*
X84232680Y-82295048D01*
X84231017Y-82364897D01*
X84200586Y-82414821D01*
X83991208Y-82624199D01*
X83978951Y-82634020D01*
X83979134Y-82634241D01*
X83973123Y-82639213D01*
X83925772Y-82689636D01*
X83904889Y-82710519D01*
X83904877Y-82710532D01*
X83900621Y-82716017D01*
X83896837Y-82720447D01*
X83864937Y-82754418D01*
X83864936Y-82754420D01*
X83855284Y-82771976D01*
X83844610Y-82788226D01*
X83832329Y-82804061D01*
X83832324Y-82804068D01*
X83813815Y-82846838D01*
X83811245Y-82852084D01*
X83788803Y-82892906D01*
X83783822Y-82912307D01*
X83777521Y-82930710D01*
X83769562Y-82949102D01*
X83769561Y-82949105D01*
X83762271Y-82995127D01*
X83761087Y-83000846D01*
X83749501Y-83045972D01*
X83749500Y-83045982D01*
X83749500Y-83066016D01*
X83747973Y-83085415D01*
X83744840Y-83105194D01*
X83744840Y-83105195D01*
X78568097Y-83105195D01*
X78718820Y-82999657D01*
X78879657Y-82838820D01*
X79010134Y-82652482D01*
X79106265Y-82446326D01*
X79106269Y-82446317D01*
X79158872Y-82250000D01*
X78390576Y-82250000D01*
X78323537Y-82230315D01*
X78277782Y-82177511D01*
X78267838Y-82108353D01*
X78268103Y-82106603D01*
X78284986Y-82000003D01*
X78284986Y-81999996D01*
X78268103Y-81893397D01*
X78277058Y-81824104D01*
X78322054Y-81770652D01*
X78388806Y-81750013D01*
X78390576Y-81750000D01*
X79158872Y-81750000D01*
X79158872Y-81749999D01*
X79106269Y-81553682D01*
X79106265Y-81553673D01*
X79010134Y-81347517D01*
X78879657Y-81161179D01*
X78718820Y-81000342D01*
X78532482Y-80869865D01*
X78326328Y-80773734D01*
X78130000Y-80721127D01*
X78130000Y-81489424D01*
X78110315Y-81556463D01*
X78057511Y-81602218D01*
X77988353Y-81612162D01*
X77986602Y-81611897D01*
X77911486Y-81600000D01*
X77911481Y-81600000D01*
X77848519Y-81600000D01*
X77848514Y-81600000D01*
X77773398Y-81611897D01*
X77704104Y-81602942D01*
X77650652Y-81557946D01*
X77630013Y-81491194D01*
X77630000Y-81489424D01*
X77630000Y-80721127D01*
X77433671Y-80773734D01*
X77227517Y-80869865D01*
X77041179Y-81000342D01*
X76880342Y-81161179D01*
X76749865Y-81347517D01*
X76653734Y-81553673D01*
X76653730Y-81553682D01*
X76601127Y-81749999D01*
X76601128Y-81750000D01*
X77369424Y-81750000D01*
X77436463Y-81769685D01*
X77482218Y-81822489D01*
X77492162Y-81891647D01*
X77491897Y-81893397D01*
X77475014Y-81999996D01*
X77475014Y-82000003D01*
X77491897Y-82106603D01*
X77482942Y-82175896D01*
X77437946Y-82229348D01*
X77371194Y-82249987D01*
X77369424Y-82250000D01*
X76601128Y-82250000D01*
X76653730Y-82446317D01*
X76653734Y-82446326D01*
X76749865Y-82652482D01*
X76880342Y-82838820D01*
X77041179Y-82999657D01*
X77227518Y-83130134D01*
X77227520Y-83130135D01*
X77285865Y-83157342D01*
X77338305Y-83203514D01*
X77357457Y-83270707D01*
X77337242Y-83337589D01*
X77285867Y-83382105D01*
X77227268Y-83409431D01*
X77227264Y-83409433D01*
X77040858Y-83539954D01*
X76879954Y-83700858D01*
X76749432Y-83887265D01*
X76749431Y-83887267D01*
X76653261Y-84093502D01*
X76653258Y-84093511D01*
X76594366Y-84313302D01*
X76594364Y-84313313D01*
X76574532Y-84539998D01*
X76574532Y-84540001D01*
X76594364Y-84766686D01*
X76594366Y-84766697D01*
X76653258Y-84986488D01*
X76653261Y-84986497D01*
X76749431Y-85192732D01*
X76749432Y-85192734D01*
X76879954Y-85379141D01*
X77040858Y-85540045D01*
X77201623Y-85652613D01*
X77245248Y-85707189D01*
X77254500Y-85754188D01*
X77254500Y-85797255D01*
X77252775Y-85812872D01*
X77253061Y-85812899D01*
X77252326Y-85820665D01*
X77254500Y-85889814D01*
X77254500Y-85919343D01*
X77254501Y-85919360D01*
X77255368Y-85926231D01*
X77255826Y-85932050D01*
X77257290Y-85978624D01*
X77257291Y-85978627D01*
X77262880Y-85997867D01*
X77266824Y-86016911D01*
X77267739Y-86024149D01*
X77269336Y-86036791D01*
X77286490Y-86080119D01*
X77288382Y-86085647D01*
X77301381Y-86130388D01*
X77311580Y-86147634D01*
X77320138Y-86165103D01*
X77327514Y-86183732D01*
X77354898Y-86221423D01*
X77358106Y-86226307D01*
X77381827Y-86266416D01*
X77381833Y-86266424D01*
X77395990Y-86280580D01*
X77408627Y-86295375D01*
X77420406Y-86311587D01*
X77451565Y-86337364D01*
X77456309Y-86341288D01*
X77460620Y-86345210D01*
X80127328Y-89011918D01*
X82791604Y-91676194D01*
X82801429Y-91688458D01*
X82801650Y-91688276D01*
X82806620Y-91694283D01*
X82806623Y-91694286D01*
X82806624Y-91694287D01*
X82857061Y-91741651D01*
X82877940Y-91762530D01*
X82883414Y-91766776D01*
X82887852Y-91770566D01*
X82921828Y-91802472D01*
X82921832Y-91802474D01*
X82939383Y-91812123D01*
X82955641Y-91822802D01*
X82971474Y-91835084D01*
X82993425Y-91844582D01*
X83014247Y-91853593D01*
X83019491Y-91856162D01*
X83060318Y-91878607D01*
X83079722Y-91883589D01*
X83098120Y-91889888D01*
X83116515Y-91897848D01*
X83162539Y-91905136D01*
X83168242Y-91906317D01*
X83213391Y-91917910D01*
X83233426Y-91917910D01*
X83252823Y-91919436D01*
X83272606Y-91922570D01*
X83318993Y-91918185D01*
X83324832Y-91917910D01*
X90025863Y-91917910D01*
X90092902Y-91937595D01*
X90138657Y-91990399D01*
X90148601Y-92059557D01*
X90145638Y-92074003D01*
X90114366Y-92190712D01*
X90114364Y-92190723D01*
X90094532Y-92417408D01*
X90094532Y-92417411D01*
X90114364Y-92644096D01*
X90114366Y-92644107D01*
X90173258Y-92863898D01*
X90173260Y-92863902D01*
X90173261Y-92863906D01*
X90230588Y-92986843D01*
X90250948Y-93030505D01*
X90261440Y-93099583D01*
X90232920Y-93163367D01*
X90174444Y-93201606D01*
X90138566Y-93206910D01*
X81930333Y-93206910D01*
X81914712Y-93205185D01*
X81914685Y-93205471D01*
X81906923Y-93204736D01*
X81837762Y-93206910D01*
X81808239Y-93206910D01*
X81801368Y-93207777D01*
X81795549Y-93208235D01*
X81748964Y-93209699D01*
X81748958Y-93209700D01*
X81729716Y-93215290D01*
X81710677Y-93219233D01*
X81690807Y-93221744D01*
X81690790Y-93221748D01*
X81647472Y-93238898D01*
X81641948Y-93240789D01*
X81597197Y-93253793D01*
X81597194Y-93253794D01*
X81579948Y-93263993D01*
X81562483Y-93272549D01*
X81556600Y-93274878D01*
X81543856Y-93279924D01*
X81506162Y-93307309D01*
X81501281Y-93310515D01*
X81461170Y-93334238D01*
X81446998Y-93348410D01*
X81432213Y-93361038D01*
X81416002Y-93372817D01*
X81386299Y-93408720D01*
X81382367Y-93413041D01*
X79613791Y-95181615D01*
X79552468Y-95215100D01*
X79482776Y-95210116D01*
X79482619Y-95210000D01*
X78690576Y-95210000D01*
X78623537Y-95190315D01*
X78577782Y-95137511D01*
X78567838Y-95068353D01*
X78568103Y-95066603D01*
X78584986Y-94960003D01*
X78584986Y-94959996D01*
X78568103Y-94853397D01*
X78577058Y-94784104D01*
X78622054Y-94730652D01*
X78688806Y-94710013D01*
X78690576Y-94710000D01*
X79458872Y-94710000D01*
X79458872Y-94709999D01*
X79406269Y-94513682D01*
X79406265Y-94513673D01*
X79310134Y-94307517D01*
X79179657Y-94121179D01*
X79018820Y-93960342D01*
X78832482Y-93829865D01*
X78626328Y-93733734D01*
X78430000Y-93681127D01*
X78430000Y-94449424D01*
X78410315Y-94516463D01*
X78357511Y-94562218D01*
X78288353Y-94572162D01*
X78286602Y-94571897D01*
X78211486Y-94560000D01*
X78211481Y-94560000D01*
X78148519Y-94560000D01*
X78148514Y-94560000D01*
X78073398Y-94571897D01*
X78004104Y-94562942D01*
X77950652Y-94517946D01*
X77930013Y-94451194D01*
X77930000Y-94449424D01*
X77930000Y-93681127D01*
X77733671Y-93733734D01*
X77527517Y-93829865D01*
X77341179Y-93960342D01*
X77180342Y-94121179D01*
X77049865Y-94307517D01*
X76953734Y-94513673D01*
X76953730Y-94513682D01*
X76901127Y-94709999D01*
X76901128Y-94710000D01*
X77669424Y-94710000D01*
X77736463Y-94729685D01*
X77782218Y-94782489D01*
X77792162Y-94851647D01*
X77791897Y-94853397D01*
X77775014Y-94959996D01*
X77775014Y-94960003D01*
X77791897Y-95066603D01*
X77782942Y-95135896D01*
X77737946Y-95189348D01*
X77671194Y-95209987D01*
X77669424Y-95210000D01*
X76901128Y-95210000D01*
X76953730Y-95406317D01*
X76953734Y-95406326D01*
X77049865Y-95612482D01*
X77180342Y-95798820D01*
X77341179Y-95959657D01*
X77527518Y-96090134D01*
X77527520Y-96090135D01*
X77585865Y-96117342D01*
X77638305Y-96163514D01*
X77657457Y-96230707D01*
X77637242Y-96297589D01*
X77585867Y-96342105D01*
X77532820Y-96366842D01*
X77527264Y-96369433D01*
X77340858Y-96499954D01*
X77179954Y-96660858D01*
X77049432Y-96847265D01*
X77049431Y-96847267D01*
X76953261Y-97053502D01*
X76953258Y-97053511D01*
X76894366Y-97273302D01*
X76894364Y-97273313D01*
X76874532Y-97499998D01*
X76874532Y-97500001D01*
X76894364Y-97726686D01*
X76894366Y-97726697D01*
X76953258Y-97946488D01*
X76953261Y-97946497D01*
X77049431Y-98152732D01*
X77049432Y-98152734D01*
X77179954Y-98339141D01*
X77340858Y-98500045D01*
X77340861Y-98500047D01*
X77527266Y-98630568D01*
X77733504Y-98726739D01*
X77953308Y-98785635D01*
X78115230Y-98799801D01*
X78179998Y-98805468D01*
X78180000Y-98805468D01*
X78180002Y-98805468D01*
X78236807Y-98800498D01*
X78406692Y-98785635D01*
X78626496Y-98726739D01*
X78832734Y-98630568D01*
X79019139Y-98500047D01*
X79180047Y-98339139D01*
X79310568Y-98152734D01*
X79406739Y-97946496D01*
X79465635Y-97726692D01*
X79485468Y-97500000D01*
X79485241Y-97497411D01*
X79465635Y-97273313D01*
X79465635Y-97273308D01*
X79447318Y-97204947D01*
X79448981Y-97135101D01*
X79479410Y-97085178D01*
X82070360Y-94494229D01*
X82131684Y-94460744D01*
X82158042Y-94457910D01*
X84426557Y-94457910D01*
X84493596Y-94477595D01*
X84539351Y-94530399D01*
X84549295Y-94599557D01*
X84546332Y-94614003D01*
X84514366Y-94733302D01*
X84514364Y-94733313D01*
X84494758Y-94957413D01*
X84494532Y-94960000D01*
X84514364Y-95186686D01*
X84514365Y-95186691D01*
X84514366Y-95186697D01*
X84532680Y-95255048D01*
X84531017Y-95324897D01*
X84500586Y-95374821D01*
X84291208Y-95584199D01*
X84278951Y-95594020D01*
X84279134Y-95594241D01*
X84273123Y-95599213D01*
X84225772Y-95649636D01*
X84204889Y-95670519D01*
X84204877Y-95670532D01*
X84200621Y-95676017D01*
X84196837Y-95680447D01*
X84164937Y-95714418D01*
X84164936Y-95714420D01*
X84155284Y-95731976D01*
X84144610Y-95748226D01*
X84132329Y-95764061D01*
X84132324Y-95764068D01*
X84113815Y-95806838D01*
X84111245Y-95812084D01*
X84088803Y-95852906D01*
X84083822Y-95872307D01*
X84077521Y-95890710D01*
X84069562Y-95909102D01*
X84069561Y-95909105D01*
X84062271Y-95955127D01*
X84061087Y-95960846D01*
X84049501Y-96005972D01*
X84049500Y-96005982D01*
X84049500Y-96026016D01*
X84047973Y-96045415D01*
X84044840Y-96065194D01*
X84044840Y-96065195D01*
X84049225Y-96111583D01*
X84049500Y-96117421D01*
X84049500Y-102092254D01*
X84047775Y-102107872D01*
X84048061Y-102107899D01*
X84047326Y-102115666D01*
X84049499Y-102184814D01*
X84049499Y-102214351D01*
X84050368Y-102221232D01*
X84050826Y-102227051D01*
X84052290Y-102273624D01*
X84052291Y-102273627D01*
X84057880Y-102292867D01*
X84061824Y-102311911D01*
X84062895Y-102320392D01*
X84064335Y-102331790D01*
X84081490Y-102375120D01*
X84083381Y-102380645D01*
X84089634Y-102402164D01*
X84093999Y-102417188D01*
X84098245Y-102464746D01*
X84094540Y-102500000D01*
X84114326Y-102688256D01*
X84114327Y-102688259D01*
X84172818Y-102868277D01*
X84172821Y-102868284D01*
X84267467Y-103032216D01*
X84394129Y-103172888D01*
X84547265Y-103284148D01*
X84547270Y-103284151D01*
X84720192Y-103361142D01*
X84720197Y-103361144D01*
X84905354Y-103400500D01*
X84905355Y-103400500D01*
X85094644Y-103400500D01*
X85094646Y-103400500D01*
X85279803Y-103361144D01*
X85452730Y-103284151D01*
X85605871Y-103172888D01*
X85732533Y-103032216D01*
X85827179Y-102868284D01*
X85885674Y-102688256D01*
X85905460Y-102500000D01*
X85885674Y-102311744D01*
X85827179Y-102131716D01*
X85732533Y-101967784D01*
X85605871Y-101827112D01*
X85605870Y-101827111D01*
X85452734Y-101715851D01*
X85452729Y-101715848D01*
X85374064Y-101680824D01*
X85320827Y-101635574D01*
X85300506Y-101568725D01*
X85300500Y-101567545D01*
X85300500Y-98924499D01*
X85320185Y-98857460D01*
X85372989Y-98811705D01*
X85424500Y-98800499D01*
X86647871Y-98800499D01*
X86647872Y-98800499D01*
X86707483Y-98794091D01*
X86842331Y-98743796D01*
X86957546Y-98657546D01*
X87043796Y-98542331D01*
X87094091Y-98407483D01*
X87100500Y-98347873D01*
X87100499Y-96652128D01*
X87094091Y-96592517D01*
X87059567Y-96499954D01*
X87043797Y-96457671D01*
X87043793Y-96457664D01*
X86957547Y-96342455D01*
X86957544Y-96342452D01*
X86842335Y-96256206D01*
X86842328Y-96256202D01*
X86707482Y-96205908D01*
X86707483Y-96205908D01*
X86672404Y-96202137D01*
X86607853Y-96175399D01*
X86568005Y-96118006D01*
X86565512Y-96048181D01*
X86601165Y-95988092D01*
X86614539Y-95977272D01*
X86618121Y-95974763D01*
X86639139Y-95960047D01*
X86800047Y-95799139D01*
X86930568Y-95612734D01*
X87026739Y-95406496D01*
X87085635Y-95186692D01*
X87105468Y-94960000D01*
X87105241Y-94957411D01*
X87090079Y-94784104D01*
X87085635Y-94733308D01*
X87053668Y-94614004D01*
X87053668Y-94614003D01*
X87055331Y-94544153D01*
X87094494Y-94486291D01*
X87158723Y-94458787D01*
X87173443Y-94457910D01*
X90026381Y-94457910D01*
X90093420Y-94477595D01*
X90139175Y-94530399D01*
X90149119Y-94599557D01*
X90146156Y-94614004D01*
X90121128Y-94707409D01*
X90121128Y-94707410D01*
X91289424Y-94707410D01*
X91356463Y-94727095D01*
X91402218Y-94779899D01*
X91412162Y-94849057D01*
X91411897Y-94850807D01*
X91395014Y-94957406D01*
X91395014Y-94957413D01*
X91411897Y-95064013D01*
X91402942Y-95133306D01*
X91357946Y-95186758D01*
X91291194Y-95207397D01*
X91289424Y-95207410D01*
X90121128Y-95207410D01*
X90173730Y-95403727D01*
X90173734Y-95403736D01*
X90269865Y-95609892D01*
X90400342Y-95796230D01*
X90561179Y-95957067D01*
X90747518Y-96087544D01*
X90747520Y-96087545D01*
X90805865Y-96114752D01*
X90858305Y-96160924D01*
X90877457Y-96228117D01*
X90857242Y-96294999D01*
X90805867Y-96339515D01*
X90747268Y-96366841D01*
X90747264Y-96366843D01*
X90560858Y-96497364D01*
X90399954Y-96658268D01*
X90269432Y-96844675D01*
X90269431Y-96844677D01*
X90173261Y-97050912D01*
X90173258Y-97050921D01*
X90114366Y-97270712D01*
X90114364Y-97270723D01*
X90094532Y-97497408D01*
X90094532Y-97497411D01*
X90114364Y-97724096D01*
X90114366Y-97724107D01*
X90173258Y-97943898D01*
X90173261Y-97943907D01*
X90269431Y-98150142D01*
X90269432Y-98150144D01*
X90399954Y-98336551D01*
X90560858Y-98497455D01*
X90560861Y-98497457D01*
X90747266Y-98627978D01*
X90805275Y-98655028D01*
X90857714Y-98701201D01*
X90876866Y-98768394D01*
X90856650Y-98835275D01*
X90805275Y-98879792D01*
X90747267Y-98906841D01*
X90747265Y-98906842D01*
X90560858Y-99037364D01*
X90399954Y-99198268D01*
X90269432Y-99384675D01*
X90269431Y-99384677D01*
X90173261Y-99590912D01*
X90173258Y-99590921D01*
X90114366Y-99810712D01*
X90114364Y-99810723D01*
X90094532Y-100037408D01*
X90094532Y-100037411D01*
X90114364Y-100264096D01*
X90114366Y-100264107D01*
X90173258Y-100483898D01*
X90173261Y-100483907D01*
X90269431Y-100690142D01*
X90269432Y-100690144D01*
X90399954Y-100876551D01*
X90560858Y-101037455D01*
X90560861Y-101037457D01*
X90747266Y-101167978D01*
X90805278Y-101195029D01*
X90857713Y-101241198D01*
X90876866Y-101308392D01*
X90856651Y-101375273D01*
X90805277Y-101419790D01*
X90747268Y-101446840D01*
X90747265Y-101446842D01*
X90560858Y-101577364D01*
X90399954Y-101738268D01*
X90269432Y-101924675D01*
X90269431Y-101924677D01*
X90173261Y-102130912D01*
X90173258Y-102130921D01*
X90114366Y-102350712D01*
X90114364Y-102350723D01*
X90094532Y-102577408D01*
X90094532Y-102577411D01*
X90114364Y-102804096D01*
X90114366Y-102804107D01*
X90173258Y-103023898D01*
X90173261Y-103023907D01*
X90269431Y-103230142D01*
X90269432Y-103230144D01*
X90399954Y-103416551D01*
X90560858Y-103577455D01*
X90560861Y-103577457D01*
X90747266Y-103707978D01*
X90953504Y-103804149D01*
X91173308Y-103863045D01*
X91343216Y-103877910D01*
X91551057Y-103877910D01*
X91618096Y-103897595D01*
X91663851Y-103950399D01*
X91673795Y-104019557D01*
X91644770Y-104083113D01*
X91585992Y-104120887D01*
X91583194Y-104121672D01*
X91450406Y-104157253D01*
X91416793Y-104166260D01*
X91074260Y-104297746D01*
X90747343Y-104464320D01*
X90439635Y-104664147D01*
X90154498Y-104895047D01*
X90154490Y-104895054D01*
X89895054Y-105154490D01*
X89895047Y-105154498D01*
X89664147Y-105439635D01*
X89464320Y-105747343D01*
X89297746Y-106074260D01*
X89166260Y-106416793D01*
X89071294Y-106771209D01*
X89071294Y-106771211D01*
X89013898Y-107133594D01*
X88994696Y-107499999D01*
X88994696Y-107500000D01*
X89013898Y-107866405D01*
X89071294Y-108228788D01*
X89071294Y-108228790D01*
X89166260Y-108583206D01*
X89297746Y-108925739D01*
X89464320Y-109252656D01*
X89664147Y-109560364D01*
X89664149Y-109560366D01*
X89895051Y-109845506D01*
X90154494Y-110104949D01*
X90154498Y-110104952D01*
X90439635Y-110335852D01*
X90532699Y-110396288D01*
X90747348Y-110535682D01*
X91074264Y-110702255D01*
X91416801Y-110833742D01*
X91771206Y-110928705D01*
X92133596Y-110986102D01*
X92479734Y-111004241D01*
X92499999Y-111005304D01*
X92500000Y-111005304D01*
X92500001Y-111005304D01*
X92519202Y-111004297D01*
X92866404Y-110986102D01*
X93228794Y-110928705D01*
X93583199Y-110833742D01*
X93925736Y-110702255D01*
X94252652Y-110535682D01*
X94560366Y-110335851D01*
X94845506Y-110104949D01*
X95104949Y-109845506D01*
X95335851Y-109560366D01*
X95535682Y-109252652D01*
X95702255Y-108925736D01*
X95833742Y-108583199D01*
X95928705Y-108228794D01*
X95986102Y-107866404D01*
X96005304Y-107500000D01*
X95986102Y-107133596D01*
X95928705Y-106771206D01*
X95833742Y-106416801D01*
X95702255Y-106074264D01*
X95535682Y-105747348D01*
X95335851Y-105439634D01*
X95104949Y-105154494D01*
X94845506Y-104895051D01*
X94560366Y-104664149D01*
X94560364Y-104664147D01*
X94252656Y-104464320D01*
X93925739Y-104297746D01*
X93583206Y-104166260D01*
X93583199Y-104166258D01*
X93228794Y-104071295D01*
X93228790Y-104071294D01*
X93228789Y-104071294D01*
X92866405Y-104013898D01*
X92761005Y-104008374D01*
X92695088Y-103985208D01*
X92652159Y-103930081D01*
X92645849Y-103860497D01*
X92678161Y-103798548D01*
X92715086Y-103772164D01*
X92852734Y-103707978D01*
X93039139Y-103577457D01*
X93200047Y-103416549D01*
X93330568Y-103230144D01*
X93426739Y-103023906D01*
X93485635Y-102804102D01*
X93505468Y-102577410D01*
X93485635Y-102350718D01*
X93426739Y-102130914D01*
X93330568Y-101924676D01*
X93200047Y-101738271D01*
X93200045Y-101738268D01*
X93039141Y-101577364D01*
X92852735Y-101446843D01*
X92852736Y-101446843D01*
X92852734Y-101446842D01*
X92794722Y-101419790D01*
X92742284Y-101373618D01*
X92723133Y-101306424D01*
X92743349Y-101239543D01*
X92794721Y-101195029D01*
X92852734Y-101167978D01*
X93039139Y-101037457D01*
X93200047Y-100876549D01*
X93330568Y-100690144D01*
X93426739Y-100483906D01*
X93485635Y-100264102D01*
X93505468Y-100037410D01*
X93485635Y-99810718D01*
X93426739Y-99590914D01*
X93330568Y-99384676D01*
X93200047Y-99198271D01*
X93200045Y-99198268D01*
X93039141Y-99037364D01*
X92852734Y-98906842D01*
X92852728Y-98906839D01*
X92794725Y-98879792D01*
X92742285Y-98833620D01*
X92723133Y-98766427D01*
X92743348Y-98699545D01*
X92794725Y-98655028D01*
X92852734Y-98627978D01*
X93039139Y-98497457D01*
X93200047Y-98336549D01*
X93330568Y-98150144D01*
X93426739Y-97943906D01*
X93485635Y-97724102D01*
X93505468Y-97497410D01*
X93485635Y-97270718D01*
X93427433Y-97053504D01*
X93426741Y-97050921D01*
X93426738Y-97050912D01*
X93331776Y-96847267D01*
X93330568Y-96844676D01*
X93201861Y-96660861D01*
X93200045Y-96658268D01*
X93039141Y-96497364D01*
X92852734Y-96366842D01*
X92852732Y-96366841D01*
X92800434Y-96342454D01*
X92794132Y-96339515D01*
X92741694Y-96293344D01*
X92722542Y-96226150D01*
X92742758Y-96159269D01*
X92794134Y-96114751D01*
X92852484Y-96087542D01*
X93038820Y-95957067D01*
X93199657Y-95796230D01*
X93330134Y-95609892D01*
X93426265Y-95403736D01*
X93426269Y-95403727D01*
X93478872Y-95207410D01*
X92310576Y-95207410D01*
X92243537Y-95187725D01*
X92197782Y-95134921D01*
X92187838Y-95065763D01*
X92188103Y-95064013D01*
X92204986Y-94957413D01*
X92204986Y-94957406D01*
X92188103Y-94850807D01*
X92197058Y-94781514D01*
X92242054Y-94728062D01*
X92308806Y-94707423D01*
X92310576Y-94707410D01*
X93478872Y-94707410D01*
X93478871Y-94707409D01*
X93453844Y-94614004D01*
X93455507Y-94544154D01*
X93494669Y-94486291D01*
X93558898Y-94458787D01*
X93573619Y-94457910D01*
X115425863Y-94457910D01*
X115492902Y-94477595D01*
X115538657Y-94530399D01*
X115548601Y-94599557D01*
X115545638Y-94614003D01*
X115514366Y-94730712D01*
X115514364Y-94730723D01*
X115494532Y-94957408D01*
X115494532Y-94957411D01*
X115514364Y-95184096D01*
X115514366Y-95184107D01*
X115573258Y-95403898D01*
X115573261Y-95403907D01*
X115669431Y-95610142D01*
X115669432Y-95610144D01*
X115799954Y-95796551D01*
X115960858Y-95957455D01*
X115964560Y-95960047D01*
X116147266Y-96087978D01*
X116204681Y-96114751D01*
X116205275Y-96115028D01*
X116257714Y-96161201D01*
X116276866Y-96228394D01*
X116256650Y-96295275D01*
X116205275Y-96339791D01*
X116199570Y-96342452D01*
X116147267Y-96366841D01*
X116147265Y-96366842D01*
X115960858Y-96497364D01*
X115799954Y-96658268D01*
X115669432Y-96844675D01*
X115669431Y-96844677D01*
X115573261Y-97050912D01*
X115573258Y-97050921D01*
X115514366Y-97270712D01*
X115514364Y-97270723D01*
X115494532Y-97497408D01*
X115494532Y-97497411D01*
X115514364Y-97724096D01*
X115514366Y-97724107D01*
X115573258Y-97943898D01*
X115573261Y-97943907D01*
X115669431Y-98150142D01*
X115669432Y-98150144D01*
X115799954Y-98336551D01*
X115960858Y-98497455D01*
X115960861Y-98497457D01*
X116147266Y-98627978D01*
X116205275Y-98655028D01*
X116257714Y-98701201D01*
X116276866Y-98768394D01*
X116256650Y-98835275D01*
X116205275Y-98879792D01*
X116147267Y-98906841D01*
X116147265Y-98906842D01*
X115960858Y-99037364D01*
X115799954Y-99198268D01*
X115669432Y-99384675D01*
X115669431Y-99384677D01*
X115573261Y-99590912D01*
X115573258Y-99590921D01*
X115514366Y-99810712D01*
X115514364Y-99810723D01*
X115494532Y-100037408D01*
X115494532Y-100037411D01*
X115514364Y-100264096D01*
X115514366Y-100264107D01*
X115573258Y-100483898D01*
X115573261Y-100483907D01*
X115669431Y-100690142D01*
X115669432Y-100690144D01*
X115799954Y-100876551D01*
X115960858Y-101037455D01*
X115960861Y-101037457D01*
X116147266Y-101167978D01*
X116205275Y-101195028D01*
X116257714Y-101241201D01*
X116276866Y-101308394D01*
X116256650Y-101375275D01*
X116205275Y-101419792D01*
X116147267Y-101446841D01*
X116147265Y-101446842D01*
X115960858Y-101577364D01*
X115799954Y-101738268D01*
X115669432Y-101924675D01*
X115669431Y-101924677D01*
X115573261Y-102130912D01*
X115573258Y-102130921D01*
X115514366Y-102350712D01*
X115514364Y-102350723D01*
X115494532Y-102577408D01*
X115494532Y-102577411D01*
X115514364Y-102804096D01*
X115514366Y-102804107D01*
X115573258Y-103023898D01*
X115573261Y-103023907D01*
X115669431Y-103230142D01*
X115669432Y-103230144D01*
X115799954Y-103416551D01*
X115960858Y-103577455D01*
X115960861Y-103577457D01*
X116147266Y-103707978D01*
X116284909Y-103772162D01*
X116337348Y-103818334D01*
X116356500Y-103885528D01*
X116336284Y-103952409D01*
X116283119Y-103997744D01*
X116238994Y-104008374D01*
X116133594Y-104013898D01*
X115771211Y-104071294D01*
X115771209Y-104071294D01*
X115416793Y-104166260D01*
X115074260Y-104297746D01*
X114747343Y-104464320D01*
X114439635Y-104664147D01*
X114154498Y-104895047D01*
X114154490Y-104895054D01*
X113895054Y-105154490D01*
X113895047Y-105154498D01*
X113664147Y-105439635D01*
X113464320Y-105747343D01*
X113297746Y-106074260D01*
X113166260Y-106416793D01*
X113071294Y-106771209D01*
X113071294Y-106771211D01*
X113013898Y-107133594D01*
X112994696Y-107499999D01*
X112994696Y-107500000D01*
X113013898Y-107866405D01*
X113071294Y-108228788D01*
X113071294Y-108228790D01*
X113166260Y-108583206D01*
X113297746Y-108925739D01*
X113464320Y-109252656D01*
X113664147Y-109560364D01*
X113664149Y-109560366D01*
X113895051Y-109845506D01*
X114154494Y-110104949D01*
X114154498Y-110104952D01*
X114439635Y-110335852D01*
X114532699Y-110396288D01*
X114747348Y-110535682D01*
X115074264Y-110702255D01*
X115416801Y-110833742D01*
X115771206Y-110928705D01*
X116133596Y-110986102D01*
X116479734Y-111004241D01*
X116499999Y-111005304D01*
X116500000Y-111005304D01*
X116500001Y-111005304D01*
X116519202Y-111004297D01*
X116866404Y-110986102D01*
X117228794Y-110928705D01*
X117583199Y-110833742D01*
X117925736Y-110702255D01*
X118252652Y-110535682D01*
X118560366Y-110335851D01*
X118845506Y-110104949D01*
X119104949Y-109845506D01*
X119335851Y-109560366D01*
X119535682Y-109252652D01*
X119702255Y-108925736D01*
X119833742Y-108583199D01*
X119928705Y-108228794D01*
X119986102Y-107866404D01*
X120005304Y-107500000D01*
X119986102Y-107133596D01*
X119928705Y-106771206D01*
X119833742Y-106416801D01*
X119702255Y-106074264D01*
X119535682Y-105747348D01*
X119335851Y-105439634D01*
X119104949Y-105154494D01*
X118845506Y-104895051D01*
X118560366Y-104664149D01*
X118560364Y-104664147D01*
X118252656Y-104464320D01*
X117925739Y-104297746D01*
X117583206Y-104166260D01*
X117583199Y-104166258D01*
X117416847Y-104121683D01*
X117357189Y-104085320D01*
X117326660Y-104022473D01*
X117334955Y-103953097D01*
X117379440Y-103899219D01*
X117445992Y-103877945D01*
X117448943Y-103877910D01*
X117656784Y-103877910D01*
X117826692Y-103863045D01*
X118046496Y-103804149D01*
X118252734Y-103707978D01*
X118439139Y-103577457D01*
X118600047Y-103416549D01*
X118730568Y-103230144D01*
X118826739Y-103023906D01*
X118885635Y-102804102D01*
X118905468Y-102577410D01*
X118885635Y-102350718D01*
X118826739Y-102130914D01*
X118730568Y-101924676D01*
X118600047Y-101738271D01*
X118600045Y-101738268D01*
X118439141Y-101577364D01*
X118252734Y-101446842D01*
X118252728Y-101446839D01*
X118194725Y-101419792D01*
X118142285Y-101373620D01*
X118123133Y-101306427D01*
X118143348Y-101239545D01*
X118194725Y-101195028D01*
X118252734Y-101167978D01*
X118439139Y-101037457D01*
X118600047Y-100876549D01*
X118730568Y-100690144D01*
X118826739Y-100483906D01*
X118885635Y-100264102D01*
X118905468Y-100037410D01*
X118885635Y-99810718D01*
X118826739Y-99590914D01*
X118730568Y-99384676D01*
X118600047Y-99198271D01*
X118600045Y-99198268D01*
X118439141Y-99037364D01*
X118252734Y-98906842D01*
X118252728Y-98906839D01*
X118194725Y-98879792D01*
X118142285Y-98833620D01*
X118123133Y-98766427D01*
X118143348Y-98699545D01*
X118194725Y-98655028D01*
X118252734Y-98627978D01*
X118439139Y-98497457D01*
X118600047Y-98336549D01*
X118730568Y-98150144D01*
X118826739Y-97943906D01*
X118885635Y-97724102D01*
X118905468Y-97497410D01*
X118885635Y-97270718D01*
X118827433Y-97053504D01*
X118826741Y-97050921D01*
X118826738Y-97050912D01*
X118731776Y-96847267D01*
X118730568Y-96844676D01*
X118601861Y-96660861D01*
X118600045Y-96658268D01*
X118439141Y-96497364D01*
X118252734Y-96366842D01*
X118252728Y-96366839D01*
X118200434Y-96342454D01*
X118194724Y-96339791D01*
X118142285Y-96293620D01*
X118123133Y-96226427D01*
X118143348Y-96159545D01*
X118194725Y-96115028D01*
X118195319Y-96114751D01*
X118252734Y-96087978D01*
X118439139Y-95957457D01*
X118600047Y-95796549D01*
X118730568Y-95610144D01*
X118826739Y-95403906D01*
X118885635Y-95184102D01*
X118905468Y-94957410D01*
X118885635Y-94730718D01*
X118826739Y-94510914D01*
X118730568Y-94304676D01*
X118600047Y-94118271D01*
X118600045Y-94118268D01*
X118439141Y-93957364D01*
X118252734Y-93826842D01*
X118252728Y-93826839D01*
X118194725Y-93799792D01*
X118142285Y-93753620D01*
X118123133Y-93686427D01*
X118143348Y-93619545D01*
X118194725Y-93575028D01*
X118252734Y-93547978D01*
X118439139Y-93417457D01*
X118600047Y-93256549D01*
X118730568Y-93070144D01*
X118826739Y-92863906D01*
X118885635Y-92644102D01*
X118905468Y-92417410D01*
X118885635Y-92190718D01*
X118826739Y-91970914D01*
X118730568Y-91764676D01*
X118600047Y-91578271D01*
X118600045Y-91578268D01*
X118439141Y-91417364D01*
X118252734Y-91286842D01*
X118252728Y-91286839D01*
X118194725Y-91259792D01*
X118142285Y-91213620D01*
X118123133Y-91146427D01*
X118143348Y-91079545D01*
X118194725Y-91035028D01*
X118252734Y-91007978D01*
X118439139Y-90877457D01*
X118600047Y-90716549D01*
X118730568Y-90530144D01*
X118826739Y-90323906D01*
X118885635Y-90104102D01*
X118905468Y-89877410D01*
X118885635Y-89650718D01*
X118826739Y-89430914D01*
X118730568Y-89224676D01*
X118600047Y-89038271D01*
X118600045Y-89038268D01*
X118439141Y-88877364D01*
X118252734Y-88746842D01*
X118252728Y-88746839D01*
X118194725Y-88719792D01*
X118142285Y-88673620D01*
X118123133Y-88606427D01*
X118143348Y-88539545D01*
X118194725Y-88495028D01*
X118252734Y-88467978D01*
X118439139Y-88337457D01*
X118600047Y-88176549D01*
X118730568Y-87990144D01*
X118826739Y-87783906D01*
X118885635Y-87564102D01*
X118905468Y-87337410D01*
X118885635Y-87110718D01*
X118826739Y-86890914D01*
X118730568Y-86684676D01*
X118600047Y-86498271D01*
X118600045Y-86498268D01*
X118439141Y-86337364D01*
X118252734Y-86206842D01*
X118252728Y-86206839D01*
X118225038Y-86193927D01*
X118194724Y-86179791D01*
X118142285Y-86133620D01*
X118123133Y-86066427D01*
X118143348Y-85999545D01*
X118194725Y-85955028D01*
X118252734Y-85927978D01*
X118439139Y-85797457D01*
X118600047Y-85636549D01*
X118730568Y-85450144D01*
X118826739Y-85243906D01*
X118885635Y-85024102D01*
X118905468Y-84797410D01*
X118885635Y-84570718D01*
X118826739Y-84350914D01*
X118730568Y-84144676D01*
X118600047Y-83958271D01*
X118600045Y-83958268D01*
X118439141Y-83797364D01*
X118252734Y-83666842D01*
X118252728Y-83666839D01*
X118194725Y-83639792D01*
X118142285Y-83593620D01*
X118123133Y-83526427D01*
X118143348Y-83459545D01*
X118194725Y-83415028D01*
X118252734Y-83387978D01*
X118439139Y-83257457D01*
X118600047Y-83096549D01*
X118730568Y-82910144D01*
X118826739Y-82703906D01*
X118885635Y-82484102D01*
X118905468Y-82257410D01*
X118903097Y-82230315D01*
X118898336Y-82175896D01*
X118885635Y-82030718D01*
X118830273Y-81824104D01*
X118826741Y-81810921D01*
X118826740Y-81810919D01*
X118826739Y-81810914D01*
X118730568Y-81604676D01*
X118600047Y-81418271D01*
X118600045Y-81418268D01*
X118439141Y-81257364D01*
X118252734Y-81126842D01*
X118252728Y-81126839D01*
X118194725Y-81099792D01*
X118142285Y-81053620D01*
X118123133Y-80986427D01*
X118143348Y-80919545D01*
X118194725Y-80875028D01*
X118205797Y-80869865D01*
X118252734Y-80847978D01*
X118439139Y-80717457D01*
X118600047Y-80556549D01*
X118730568Y-80370144D01*
X118826739Y-80163906D01*
X118885635Y-79944102D01*
X118905468Y-79717410D01*
X118885635Y-79490718D01*
X118826739Y-79270914D01*
X118730568Y-79064676D01*
X118600047Y-78878271D01*
X118600045Y-78878268D01*
X118439141Y-78717364D01*
X118252734Y-78586842D01*
X118252728Y-78586839D01*
X118194725Y-78559792D01*
X118142285Y-78513620D01*
X118123133Y-78446427D01*
X118143348Y-78379545D01*
X118194725Y-78335028D01*
X118252734Y-78307978D01*
X118439139Y-78177457D01*
X118600047Y-78016549D01*
X118730568Y-77830144D01*
X118826739Y-77623906D01*
X118885635Y-77404102D01*
X118905468Y-77177410D01*
X118905072Y-77172888D01*
X118885635Y-76950723D01*
X118885635Y-76950718D01*
X118826739Y-76730914D01*
X118730568Y-76524676D01*
X118600047Y-76338271D01*
X118600045Y-76338268D01*
X118439141Y-76177364D01*
X118252734Y-76046842D01*
X118252728Y-76046839D01*
X118194725Y-76019792D01*
X118142285Y-75973620D01*
X118123133Y-75906427D01*
X118143348Y-75839545D01*
X118194725Y-75795028D01*
X118252734Y-75767978D01*
X118439139Y-75637457D01*
X118600047Y-75476549D01*
X118730568Y-75290144D01*
X118826739Y-75083906D01*
X118885635Y-74864102D01*
X118905468Y-74637410D01*
X118904970Y-74631722D01*
X118899801Y-74572640D01*
X118885635Y-74410718D01*
X118826739Y-74190914D01*
X118730568Y-73984676D01*
X118600047Y-73798271D01*
X118600045Y-73798268D01*
X118439141Y-73637364D01*
X118252734Y-73506842D01*
X118252728Y-73506839D01*
X118194725Y-73479792D01*
X118142285Y-73433620D01*
X118123133Y-73366427D01*
X118143348Y-73299545D01*
X118194725Y-73255028D01*
X118252734Y-73227978D01*
X118439139Y-73097457D01*
X118600047Y-72936549D01*
X118730568Y-72750144D01*
X118826739Y-72543906D01*
X118885635Y-72324102D01*
X118905468Y-72097410D01*
X118885635Y-71870718D01*
X118826739Y-71650914D01*
X118730568Y-71444676D01*
X118600047Y-71258271D01*
X118600045Y-71258268D01*
X118439141Y-71097364D01*
X118252734Y-70966842D01*
X118252728Y-70966839D01*
X118218495Y-70950876D01*
X118194724Y-70939791D01*
X118142285Y-70893620D01*
X118123133Y-70826427D01*
X118143348Y-70759545D01*
X118194725Y-70715028D01*
X118252734Y-70687978D01*
X118439139Y-70557457D01*
X118600047Y-70396549D01*
X118730568Y-70210144D01*
X118826739Y-70003906D01*
X118885635Y-69784102D01*
X118887389Y-69764061D01*
X118905468Y-69557411D01*
X118905468Y-69557408D01*
X118892265Y-69406497D01*
X118885635Y-69330718D01*
X118826739Y-69110914D01*
X118730568Y-68904676D01*
X118600047Y-68718271D01*
X118600045Y-68718268D01*
X118439141Y-68557364D01*
X118252734Y-68426842D01*
X118252728Y-68426839D01*
X118194725Y-68399792D01*
X118142285Y-68353620D01*
X118123133Y-68286427D01*
X118143348Y-68219545D01*
X118194725Y-68175028D01*
X118252734Y-68147978D01*
X118439139Y-68017457D01*
X118600047Y-67856549D01*
X118730568Y-67670144D01*
X118826739Y-67463906D01*
X118885635Y-67244102D01*
X118905468Y-67017410D01*
X118885635Y-66790718D01*
X118826739Y-66570914D01*
X118730568Y-66364676D01*
X118600047Y-66178271D01*
X118600045Y-66178268D01*
X118439141Y-66017364D01*
X118252735Y-65886843D01*
X118252736Y-65886843D01*
X118252734Y-65886842D01*
X118194722Y-65859790D01*
X118142284Y-65813618D01*
X118123133Y-65746424D01*
X118143349Y-65679543D01*
X118194721Y-65635029D01*
X118252734Y-65607978D01*
X118439139Y-65477457D01*
X118600047Y-65316549D01*
X118730568Y-65130144D01*
X118826739Y-64923906D01*
X118885635Y-64704102D01*
X118905468Y-64477410D01*
X118885635Y-64250718D01*
X118826739Y-64030914D01*
X118730568Y-63824676D01*
X118600047Y-63638271D01*
X118600045Y-63638268D01*
X118439141Y-63477364D01*
X118252734Y-63346842D01*
X118252728Y-63346839D01*
X118194725Y-63319792D01*
X118142285Y-63273620D01*
X118123133Y-63206427D01*
X118143348Y-63139545D01*
X118194725Y-63095028D01*
X118252734Y-63067978D01*
X118439139Y-62937457D01*
X118600047Y-62776549D01*
X118730568Y-62590144D01*
X118826739Y-62383906D01*
X118885635Y-62164102D01*
X118905468Y-61937410D01*
X118885635Y-61710718D01*
X118826739Y-61490914D01*
X118730568Y-61284676D01*
X118600047Y-61098271D01*
X118600045Y-61098268D01*
X118439143Y-60937366D01*
X118414536Y-60920136D01*
X118370912Y-60865559D01*
X118363719Y-60796060D01*
X118395241Y-60733706D01*
X118455471Y-60698292D01*
X118472404Y-60695271D01*
X118507483Y-60691501D01*
X118642331Y-60641206D01*
X118757546Y-60554956D01*
X118843796Y-60439741D01*
X118894091Y-60304893D01*
X118900500Y-60245283D01*
X118900499Y-58549538D01*
X118894091Y-58489927D01*
X118843796Y-58355079D01*
X118843795Y-58355078D01*
X118843793Y-58355074D01*
X118757547Y-58239865D01*
X118757544Y-58239862D01*
X118642335Y-58153616D01*
X118642328Y-58153612D01*
X118507482Y-58103318D01*
X118507483Y-58103318D01*
X118447883Y-58096911D01*
X118447881Y-58096910D01*
X118447873Y-58096910D01*
X118447865Y-58096910D01*
X117542913Y-58096910D01*
X117475874Y-58077225D01*
X117430119Y-58024421D01*
X117420175Y-57955263D01*
X117449200Y-57891707D01*
X117507978Y-57853933D01*
X117510742Y-57853156D01*
X117583199Y-57833742D01*
X117925736Y-57702255D01*
X118252652Y-57535682D01*
X118560366Y-57335851D01*
X118845506Y-57104949D01*
X119104949Y-56845506D01*
X119335851Y-56560366D01*
X119535682Y-56252652D01*
X119702255Y-55925736D01*
X119833742Y-55583199D01*
X119928705Y-55228794D01*
X119986102Y-54866404D01*
X120005304Y-54500000D01*
X119986102Y-54133596D01*
X119928705Y-53771206D01*
X119833742Y-53416801D01*
X119702255Y-53074264D01*
X119535682Y-52747348D01*
X119335851Y-52439634D01*
X119104949Y-52154494D01*
X118845506Y-51895051D01*
X118560366Y-51664149D01*
X118560364Y-51664147D01*
X118252656Y-51464320D01*
X117925739Y-51297746D01*
X117583206Y-51166260D01*
X117583199Y-51166258D01*
X117228794Y-51071295D01*
X117228790Y-51071294D01*
X117228789Y-51071294D01*
X116866405Y-51013898D01*
X116500001Y-50994696D01*
X116499999Y-50994696D01*
X116133594Y-51013898D01*
X115771211Y-51071294D01*
X115771209Y-51071294D01*
X115416793Y-51166260D01*
X115074260Y-51297746D01*
X114747343Y-51464320D01*
X114439635Y-51664147D01*
X114154498Y-51895047D01*
X114154490Y-51895054D01*
X113895054Y-52154490D01*
X113895047Y-52154498D01*
X113664147Y-52439635D01*
X113464320Y-52747343D01*
X113297746Y-53074260D01*
X113166260Y-53416793D01*
X113071294Y-53771209D01*
X113071294Y-53771211D01*
X113013898Y-54133594D01*
X112994696Y-54499999D01*
X112994696Y-54500000D01*
X113013898Y-54866405D01*
X113014446Y-54869865D01*
X113071295Y-55228794D01*
X113159491Y-55557946D01*
X113166260Y-55583206D01*
X113297746Y-55925739D01*
X113464320Y-56252656D01*
X113664147Y-56560364D01*
X113861489Y-56804061D01*
X113895051Y-56845506D01*
X114154494Y-57104949D01*
X114220014Y-57158006D01*
X114439635Y-57335852D01*
X114688816Y-57497671D01*
X114747348Y-57535682D01*
X115074264Y-57702255D01*
X115416801Y-57833742D01*
X115739552Y-57920223D01*
X115799210Y-57956587D01*
X115829739Y-58019434D01*
X115821444Y-58088810D01*
X115776959Y-58142688D01*
X115765138Y-58148784D01*
X115765454Y-58149363D01*
X115757664Y-58153616D01*
X115642455Y-58239862D01*
X115642452Y-58239865D01*
X115556206Y-58355074D01*
X115556202Y-58355081D01*
X115505908Y-58489927D01*
X115500525Y-58540000D01*
X115499501Y-58549533D01*
X115499500Y-58549545D01*
X115499500Y-60245280D01*
X115499501Y-60245286D01*
X115505908Y-60304893D01*
X115556202Y-60439738D01*
X115556206Y-60439745D01*
X115642452Y-60554954D01*
X115642455Y-60554957D01*
X115757664Y-60641203D01*
X115757671Y-60641207D01*
X115802618Y-60657970D01*
X115892517Y-60691501D01*
X115927596Y-60695272D01*
X115992144Y-60722009D01*
X116031993Y-60779401D01*
X116034488Y-60849226D01*
X115998836Y-60909315D01*
X115985464Y-60920135D01*
X115960858Y-60937364D01*
X115799954Y-61098268D01*
X115669432Y-61284675D01*
X115669431Y-61284677D01*
X115573261Y-61490912D01*
X115573258Y-61490921D01*
X115514366Y-61710712D01*
X115514364Y-61710723D01*
X115494532Y-61937408D01*
X115494532Y-61937411D01*
X115514364Y-62164096D01*
X115514366Y-62164107D01*
X115573258Y-62383898D01*
X115573261Y-62383907D01*
X115669431Y-62590142D01*
X115669432Y-62590144D01*
X115799954Y-62776551D01*
X115960858Y-62937455D01*
X115980248Y-62951032D01*
X116147266Y-63067978D01*
X116205275Y-63095028D01*
X116257714Y-63141201D01*
X116276866Y-63208394D01*
X116256650Y-63275275D01*
X116205275Y-63319792D01*
X116147267Y-63346841D01*
X116147265Y-63346842D01*
X115960858Y-63477364D01*
X115799954Y-63638268D01*
X115669432Y-63824675D01*
X115669431Y-63824677D01*
X115573261Y-64030912D01*
X115573258Y-64030921D01*
X115514366Y-64250712D01*
X115514364Y-64250723D01*
X115494532Y-64477408D01*
X115494532Y-64477411D01*
X115514364Y-64704096D01*
X115514366Y-64704107D01*
X115573258Y-64923898D01*
X115573261Y-64923907D01*
X115669431Y-65130142D01*
X115669432Y-65130144D01*
X115799954Y-65316551D01*
X115960858Y-65477455D01*
X115988120Y-65496544D01*
X116147266Y-65607978D01*
X116205275Y-65635028D01*
X116257714Y-65681201D01*
X116276866Y-65748394D01*
X116256650Y-65815275D01*
X116205275Y-65859792D01*
X116147267Y-65886841D01*
X116147265Y-65886842D01*
X115960858Y-66017364D01*
X115799954Y-66178268D01*
X115669432Y-66364675D01*
X115669431Y-66364677D01*
X115573261Y-66570912D01*
X115573258Y-66570921D01*
X115514366Y-66790712D01*
X115514364Y-66790723D01*
X115494532Y-67017408D01*
X115494532Y-67017411D01*
X115514364Y-67244096D01*
X115514366Y-67244107D01*
X115573258Y-67463898D01*
X115573261Y-67463907D01*
X115669431Y-67670142D01*
X115669432Y-67670144D01*
X115799954Y-67856551D01*
X115960858Y-68017455D01*
X115988120Y-68036544D01*
X116147266Y-68147978D01*
X116205275Y-68175028D01*
X116257714Y-68221201D01*
X116276866Y-68288394D01*
X116256650Y-68355275D01*
X116205275Y-68399792D01*
X116147267Y-68426841D01*
X116147265Y-68426842D01*
X115960858Y-68557364D01*
X115799954Y-68718268D01*
X115669432Y-68904675D01*
X115669431Y-68904677D01*
X115573261Y-69110912D01*
X115573258Y-69110921D01*
X115514366Y-69330712D01*
X115514364Y-69330723D01*
X115494532Y-69557408D01*
X115494532Y-69557411D01*
X115514364Y-69784093D01*
X115514366Y-69784107D01*
X115573258Y-70003898D01*
X115573261Y-70003907D01*
X115669431Y-70210142D01*
X115669432Y-70210144D01*
X115799954Y-70396551D01*
X115960858Y-70557455D01*
X115960861Y-70557457D01*
X116147266Y-70687978D01*
X116205275Y-70715028D01*
X116257714Y-70761201D01*
X116276866Y-70828394D01*
X116256650Y-70895275D01*
X116205275Y-70939792D01*
X116147267Y-70966841D01*
X116147265Y-70966842D01*
X115960858Y-71097364D01*
X115799954Y-71258268D01*
X115669432Y-71444675D01*
X115669431Y-71444677D01*
X115573261Y-71650912D01*
X115573258Y-71650921D01*
X115514366Y-71870712D01*
X115514364Y-71870723D01*
X115494532Y-72097408D01*
X115494532Y-72097411D01*
X115514364Y-72324096D01*
X115514366Y-72324107D01*
X115573258Y-72543898D01*
X115573261Y-72543907D01*
X115669431Y-72750142D01*
X115669432Y-72750144D01*
X115799954Y-72936551D01*
X115960858Y-73097455D01*
X115960861Y-73097457D01*
X116147266Y-73227978D01*
X116205275Y-73255028D01*
X116257714Y-73301201D01*
X116276866Y-73368394D01*
X116256650Y-73435275D01*
X116205275Y-73479792D01*
X116147267Y-73506841D01*
X116147265Y-73506842D01*
X115960858Y-73637364D01*
X115799954Y-73798268D01*
X115669432Y-73984675D01*
X115669431Y-73984677D01*
X115573261Y-74190912D01*
X115573258Y-74190921D01*
X115514366Y-74410712D01*
X115514364Y-74410723D01*
X115494532Y-74637408D01*
X115494532Y-74637411D01*
X115514364Y-74864096D01*
X115514366Y-74864107D01*
X115573258Y-75083898D01*
X115573261Y-75083907D01*
X115669431Y-75290142D01*
X115669432Y-75290144D01*
X115799954Y-75476551D01*
X115960858Y-75637455D01*
X115962859Y-75638856D01*
X116147266Y-75767978D01*
X116200621Y-75792858D01*
X116205275Y-75795028D01*
X116257714Y-75841201D01*
X116276866Y-75908394D01*
X116256650Y-75975275D01*
X116205275Y-76019792D01*
X116147267Y-76046841D01*
X116147265Y-76046842D01*
X115960858Y-76177364D01*
X115799954Y-76338268D01*
X115669432Y-76524675D01*
X115669431Y-76524677D01*
X115573261Y-76730912D01*
X115573258Y-76730921D01*
X115514366Y-76950712D01*
X115514364Y-76950723D01*
X115494532Y-77177408D01*
X115494532Y-77177411D01*
X115514364Y-77404096D01*
X115514366Y-77404107D01*
X115573258Y-77623898D01*
X115573261Y-77623907D01*
X115669431Y-77830142D01*
X115669432Y-77830144D01*
X115799954Y-78016551D01*
X115960858Y-78177455D01*
X115960861Y-78177457D01*
X116147266Y-78307978D01*
X116205275Y-78335028D01*
X116257714Y-78381201D01*
X116276866Y-78448394D01*
X116256650Y-78515275D01*
X116205275Y-78559792D01*
X116147267Y-78586841D01*
X116147265Y-78586842D01*
X115960858Y-78717364D01*
X115799954Y-78878268D01*
X115669432Y-79064675D01*
X115669431Y-79064677D01*
X115573261Y-79270912D01*
X115573258Y-79270921D01*
X115514366Y-79490712D01*
X115514364Y-79490723D01*
X115494532Y-79717408D01*
X115494532Y-79717411D01*
X115514364Y-79944096D01*
X115514366Y-79944107D01*
X115573258Y-80163898D01*
X115573261Y-80163907D01*
X115669431Y-80370142D01*
X115669432Y-80370144D01*
X115799954Y-80556551D01*
X115960858Y-80717455D01*
X115960861Y-80717457D01*
X116147266Y-80847978D01*
X116194203Y-80869865D01*
X116205275Y-80875028D01*
X116257714Y-80921201D01*
X116276866Y-80988394D01*
X116256650Y-81055275D01*
X116205275Y-81099792D01*
X116147267Y-81126841D01*
X116147265Y-81126842D01*
X115960858Y-81257364D01*
X115799954Y-81418268D01*
X115669432Y-81604675D01*
X115669431Y-81604677D01*
X115573261Y-81810912D01*
X115573258Y-81810921D01*
X115514366Y-82030712D01*
X115514364Y-82030723D01*
X115494532Y-82257408D01*
X115494532Y-82257411D01*
X115514364Y-82484096D01*
X115514366Y-82484107D01*
X115573258Y-82703898D01*
X115573261Y-82703907D01*
X115669431Y-82910142D01*
X115669432Y-82910144D01*
X115799954Y-83096551D01*
X115960858Y-83257455D01*
X115960861Y-83257457D01*
X116147266Y-83387978D01*
X116205275Y-83415028D01*
X116257714Y-83461201D01*
X116276866Y-83528394D01*
X116256650Y-83595275D01*
X116205275Y-83639792D01*
X116147267Y-83666841D01*
X116147265Y-83666842D01*
X115960858Y-83797364D01*
X115799954Y-83958268D01*
X115687387Y-84119033D01*
X115632811Y-84162658D01*
X115585812Y-84171910D01*
X115133166Y-84171910D01*
X115066127Y-84152225D01*
X115045485Y-84135591D01*
X114161819Y-83251924D01*
X114128334Y-83190601D01*
X114125500Y-83164243D01*
X114125500Y-69582742D01*
X114127224Y-69567122D01*
X114126939Y-69567095D01*
X114127673Y-69559333D01*
X114125500Y-69490172D01*
X114125500Y-69460656D01*
X114125500Y-69460650D01*
X114124631Y-69453779D01*
X114124173Y-69447952D01*
X114122710Y-69401373D01*
X114117119Y-69382130D01*
X114113173Y-69363078D01*
X114110664Y-69343208D01*
X114093504Y-69299867D01*
X114091624Y-69294379D01*
X114078618Y-69249610D01*
X114068422Y-69232370D01*
X114059861Y-69214894D01*
X114052487Y-69196270D01*
X114052486Y-69196268D01*
X114025079Y-69158545D01*
X114021888Y-69153686D01*
X114016250Y-69144153D01*
X113998170Y-69113580D01*
X113998168Y-69113578D01*
X113998165Y-69113574D01*
X113984006Y-69099415D01*
X113971368Y-69084619D01*
X113966265Y-69077595D01*
X113959594Y-69068413D01*
X113959521Y-69068353D01*
X113923688Y-69038709D01*
X113919376Y-69034786D01*
X110393213Y-65508622D01*
X110383390Y-65496360D01*
X110383169Y-65496544D01*
X110378196Y-65490533D01*
X110378195Y-65490533D01*
X110327774Y-65443183D01*
X110317328Y-65432737D01*
X110306885Y-65422293D01*
X110301396Y-65418035D01*
X110296971Y-65414257D01*
X110262992Y-65382348D01*
X110262990Y-65382346D01*
X110262987Y-65382345D01*
X110245439Y-65372698D01*
X110229173Y-65362014D01*
X110213343Y-65349735D01*
X110170578Y-65331228D01*
X110165332Y-65328658D01*
X110124503Y-65306213D01*
X110124502Y-65306212D01*
X110105103Y-65301232D01*
X110086691Y-65294928D01*
X110068308Y-65286972D01*
X110068302Y-65286970D01*
X110022284Y-65279682D01*
X110016562Y-65278497D01*
X109971431Y-65266910D01*
X109971429Y-65266910D01*
X109951394Y-65266910D01*
X109931996Y-65265383D01*
X109924572Y-65264207D01*
X109912215Y-65262250D01*
X109912214Y-65262250D01*
X109865826Y-65266635D01*
X109859988Y-65266910D01*
X93461434Y-65266910D01*
X93394395Y-65247225D01*
X93348640Y-65194421D01*
X93338696Y-65125263D01*
X93349052Y-65090505D01*
X93426739Y-64923906D01*
X93485635Y-64704102D01*
X93505468Y-64477410D01*
X93485635Y-64250718D01*
X93426739Y-64030914D01*
X93330568Y-63824676D01*
X93200047Y-63638271D01*
X93200045Y-63638268D01*
X93039141Y-63477364D01*
X92852734Y-63346842D01*
X92852728Y-63346839D01*
X92794725Y-63319792D01*
X92742285Y-63273620D01*
X92723133Y-63206427D01*
X92743348Y-63139545D01*
X92794725Y-63095028D01*
X92852734Y-63067978D01*
X93039139Y-62937457D01*
X93200047Y-62776549D01*
X93330568Y-62590144D01*
X93426739Y-62383906D01*
X93485635Y-62164102D01*
X93505468Y-61937410D01*
X93485635Y-61710718D01*
X93426739Y-61490914D01*
X93330568Y-61284676D01*
X93200047Y-61098271D01*
X93200045Y-61098268D01*
X93039143Y-60937366D01*
X93014536Y-60920136D01*
X92970912Y-60865559D01*
X92963719Y-60796060D01*
X92995241Y-60733706D01*
X93055471Y-60698292D01*
X93072404Y-60695271D01*
X93107483Y-60691501D01*
X93242331Y-60641206D01*
X93357546Y-60554956D01*
X93443796Y-60439741D01*
X93494091Y-60304893D01*
X93500500Y-60245283D01*
X93500499Y-58549538D01*
X93494091Y-58489927D01*
X93443796Y-58355079D01*
X93443795Y-58355078D01*
X93443793Y-58355074D01*
X93357547Y-58239865D01*
X93357544Y-58239862D01*
X93242335Y-58153616D01*
X93234546Y-58149363D01*
X93236157Y-58146411D01*
X93193264Y-58114291D01*
X93168858Y-58048823D01*
X93183720Y-57980552D01*
X93233134Y-57931155D01*
X93260441Y-57920225D01*
X93583199Y-57833742D01*
X93925736Y-57702255D01*
X94252652Y-57535682D01*
X94560366Y-57335851D01*
X94845506Y-57104949D01*
X95104949Y-56845506D01*
X95335851Y-56560366D01*
X95535682Y-56252652D01*
X95702255Y-55925736D01*
X95833742Y-55583199D01*
X95928705Y-55228794D01*
X95986102Y-54866404D01*
X96005304Y-54500000D01*
X95986102Y-54133596D01*
X95928705Y-53771206D01*
X95833742Y-53416801D01*
X95702255Y-53074264D01*
X95535682Y-52747348D01*
X95335851Y-52439634D01*
X95104949Y-52154494D01*
X94845506Y-51895051D01*
X94560366Y-51664149D01*
X94560364Y-51664147D01*
X94252656Y-51464320D01*
X93925739Y-51297746D01*
X93583206Y-51166260D01*
X93583199Y-51166258D01*
X93228794Y-51071295D01*
X93228790Y-51071294D01*
X93228789Y-51071294D01*
X92866405Y-51013898D01*
X92500001Y-50994696D01*
X92499999Y-50994696D01*
X92133594Y-51013898D01*
X91771211Y-51071294D01*
X91771209Y-51071294D01*
X91416793Y-51166260D01*
X91074260Y-51297746D01*
X90747343Y-51464320D01*
X90439635Y-51664147D01*
X90154498Y-51895047D01*
X90154490Y-51895054D01*
X89895054Y-52154490D01*
X89895047Y-52154498D01*
X89664147Y-52439635D01*
X89464320Y-52747343D01*
X89297746Y-53074260D01*
X89166260Y-53416793D01*
X89071294Y-53771209D01*
X89071294Y-53771211D01*
X89013898Y-54133594D01*
X88994696Y-54499999D01*
X88994696Y-54500000D01*
X89013898Y-54866405D01*
X89014446Y-54869865D01*
X89071295Y-55228794D01*
X89159491Y-55557946D01*
X89166260Y-55583206D01*
X89297746Y-55925739D01*
X89464320Y-56252656D01*
X89664147Y-56560364D01*
X89861489Y-56804061D01*
X89895051Y-56845506D01*
X90154494Y-57104949D01*
X90220014Y-57158006D01*
X90439635Y-57335852D01*
X90688816Y-57497671D01*
X90747348Y-57535682D01*
X91074264Y-57702255D01*
X91281528Y-57781815D01*
X91416795Y-57833740D01*
X91416797Y-57833740D01*
X91416801Y-57833742D01*
X91489182Y-57853136D01*
X91548841Y-57889500D01*
X91579370Y-57952346D01*
X91571076Y-58021722D01*
X91526591Y-58075600D01*
X91460039Y-58096875D01*
X91457087Y-58096910D01*
X90552129Y-58096910D01*
X90552123Y-58096911D01*
X90492516Y-58103318D01*
X90357671Y-58153612D01*
X90357664Y-58153616D01*
X90242455Y-58239862D01*
X90242452Y-58239865D01*
X90156206Y-58355074D01*
X90156202Y-58355081D01*
X90105908Y-58489927D01*
X90100525Y-58540000D01*
X90099501Y-58549533D01*
X90099500Y-58549545D01*
X90099500Y-60245280D01*
X90099501Y-60245286D01*
X90105908Y-60304893D01*
X90156202Y-60439738D01*
X90156206Y-60439745D01*
X90242452Y-60554954D01*
X90242455Y-60554957D01*
X90357664Y-60641203D01*
X90357671Y-60641207D01*
X90402618Y-60657970D01*
X90492517Y-60691501D01*
X90527596Y-60695272D01*
X90592144Y-60722009D01*
X90631993Y-60779401D01*
X90634488Y-60849226D01*
X90598836Y-60909315D01*
X90585464Y-60920135D01*
X90560858Y-60937364D01*
X90399954Y-61098268D01*
X90269432Y-61284675D01*
X90269431Y-61284677D01*
X90173261Y-61490912D01*
X90173258Y-61490921D01*
X90114366Y-61710712D01*
X90114364Y-61710723D01*
X90094532Y-61937408D01*
X90094532Y-61937411D01*
X90114364Y-62164096D01*
X90114366Y-62164107D01*
X90173258Y-62383898D01*
X90173261Y-62383907D01*
X90269431Y-62590142D01*
X90269432Y-62590144D01*
X90399954Y-62776551D01*
X90560858Y-62937455D01*
X90580248Y-62951032D01*
X90747266Y-63067978D01*
X90805275Y-63095028D01*
X90857714Y-63141201D01*
X90876866Y-63208394D01*
X90856650Y-63275275D01*
X90805275Y-63319792D01*
X90747267Y-63346841D01*
X90747265Y-63346842D01*
X90560858Y-63477364D01*
X90399954Y-63638268D01*
X90269432Y-63824675D01*
X90269431Y-63824677D01*
X90173261Y-64030912D01*
X90173258Y-64030921D01*
X90114366Y-64250712D01*
X90114364Y-64250723D01*
X90094532Y-64477408D01*
X90094532Y-64477411D01*
X90114364Y-64704096D01*
X90114366Y-64704107D01*
X90173258Y-64923898D01*
X90173260Y-64923902D01*
X90173261Y-64923906D01*
X90250948Y-65090505D01*
X90261440Y-65159583D01*
X90232920Y-65223367D01*
X90174444Y-65261606D01*
X90138566Y-65266910D01*
X85342862Y-65266910D01*
X85275823Y-65247225D01*
X85255181Y-65230591D01*
X84589973Y-64565383D01*
X84556488Y-64504060D01*
X84561472Y-64434368D01*
X84603344Y-64378435D01*
X84668808Y-64354018D01*
X84715974Y-64359772D01*
X84720196Y-64361144D01*
X84801545Y-64378435D01*
X84905354Y-64400500D01*
X84905355Y-64400500D01*
X85094644Y-64400500D01*
X85094646Y-64400500D01*
X85279803Y-64361144D01*
X85452730Y-64284151D01*
X85605871Y-64172888D01*
X85732533Y-64032216D01*
X85827179Y-63868284D01*
X85885674Y-63688256D01*
X85905460Y-63500000D01*
X85885674Y-63311744D01*
X85827179Y-63131716D01*
X85732533Y-62967784D01*
X85605871Y-62827112D01*
X85605870Y-62827111D01*
X85452734Y-62715851D01*
X85452729Y-62715848D01*
X85279807Y-62638857D01*
X85279802Y-62638855D01*
X85134001Y-62607865D01*
X85094646Y-62599500D01*
X85094645Y-62599500D01*
X85035453Y-62599500D01*
X84968414Y-62579815D01*
X84947772Y-62563181D01*
X84836817Y-62452225D01*
X84803333Y-62390904D01*
X84800500Y-62364555D01*
X84800500Y-59964498D01*
X84820185Y-59897459D01*
X84872989Y-59851705D01*
X84924500Y-59840499D01*
X86147871Y-59840499D01*
X86147872Y-59840499D01*
X86207483Y-59834091D01*
X86342331Y-59783796D01*
X86457546Y-59697546D01*
X86543796Y-59582331D01*
X86594091Y-59447483D01*
X86600500Y-59387873D01*
X86600499Y-57692128D01*
X86594091Y-57632517D01*
X86559567Y-57539954D01*
X86543797Y-57497671D01*
X86543793Y-57497664D01*
X86457547Y-57382455D01*
X86457544Y-57382452D01*
X86342335Y-57296206D01*
X86342328Y-57296202D01*
X86207482Y-57245908D01*
X86207483Y-57245908D01*
X86172404Y-57242137D01*
X86107853Y-57215399D01*
X86068005Y-57158006D01*
X86065512Y-57088181D01*
X86101165Y-57028092D01*
X86114539Y-57017272D01*
X86118121Y-57014763D01*
X86139139Y-57000047D01*
X86300047Y-56839139D01*
X86430568Y-56652734D01*
X86526739Y-56446496D01*
X86585635Y-56226692D01*
X86605468Y-56000000D01*
X86585635Y-55773308D01*
X86526739Y-55553504D01*
X86430568Y-55347266D01*
X86300047Y-55160861D01*
X86300045Y-55160858D01*
X86139141Y-54999954D01*
X85952734Y-54869432D01*
X85952732Y-54869431D01*
X85746497Y-54773261D01*
X85746488Y-54773258D01*
X85526697Y-54714366D01*
X85526693Y-54714365D01*
X85526692Y-54714365D01*
X85526691Y-54714364D01*
X85526686Y-54714364D01*
X85300002Y-54694532D01*
X85299998Y-54694532D01*
X85073313Y-54714364D01*
X85073302Y-54714366D01*
X84853511Y-54773258D01*
X84853502Y-54773261D01*
X84647267Y-54869431D01*
X84647265Y-54869432D01*
X84460858Y-54999954D01*
X84299954Y-55160858D01*
X84169432Y-55347265D01*
X84169431Y-55347267D01*
X84073261Y-55553502D01*
X84073258Y-55553511D01*
X84014366Y-55773302D01*
X84014364Y-55773313D01*
X84001029Y-55925736D01*
X83994532Y-56000000D01*
X84014364Y-56226686D01*
X84014365Y-56226691D01*
X84014366Y-56226697D01*
X84032680Y-56295048D01*
X84031017Y-56364897D01*
X84000586Y-56414821D01*
X83791208Y-56624199D01*
X83778951Y-56634020D01*
X83779134Y-56634241D01*
X83773123Y-56639213D01*
X83725772Y-56689636D01*
X83704889Y-56710519D01*
X83704877Y-56710532D01*
X83700621Y-56716017D01*
X83696837Y-56720447D01*
X83664937Y-56754418D01*
X83664936Y-56754420D01*
X83655284Y-56771976D01*
X83644610Y-56788226D01*
X83632329Y-56804061D01*
X83632324Y-56804068D01*
X83613815Y-56846838D01*
X83611245Y-56852084D01*
X83588803Y-56892906D01*
X83583822Y-56912307D01*
X83577521Y-56930710D01*
X83569562Y-56949102D01*
X83569561Y-56949105D01*
X83562271Y-56995127D01*
X83561087Y-57000846D01*
X83549501Y-57045972D01*
X83549500Y-57045982D01*
X83549500Y-57066016D01*
X83547973Y-57085415D01*
X83544840Y-57105194D01*
X83544840Y-57105195D01*
X83549225Y-57151583D01*
X83549500Y-57157421D01*
X83549500Y-62592255D01*
X83547775Y-62607872D01*
X83548061Y-62607899D01*
X83547326Y-62615665D01*
X83549500Y-62684814D01*
X83549500Y-62714343D01*
X83549501Y-62714360D01*
X83550368Y-62721231D01*
X83550826Y-62727050D01*
X83552290Y-62773624D01*
X83552291Y-62773627D01*
X83557880Y-62792867D01*
X83561824Y-62811911D01*
X83563745Y-62827111D01*
X83564336Y-62831791D01*
X83581490Y-62875119D01*
X83583382Y-62880647D01*
X83596381Y-62925388D01*
X83606580Y-62942634D01*
X83615136Y-62960100D01*
X83622514Y-62978732D01*
X83649898Y-63016423D01*
X83653106Y-63021307D01*
X83676827Y-63061416D01*
X83676833Y-63061424D01*
X83690990Y-63075580D01*
X83703627Y-63090375D01*
X83715406Y-63106587D01*
X83745789Y-63131722D01*
X83751309Y-63136288D01*
X83755620Y-63140210D01*
X84032556Y-63417147D01*
X84061038Y-63445629D01*
X84094523Y-63506952D01*
X84096678Y-63520348D01*
X84104968Y-63599227D01*
X84114326Y-63688256D01*
X84114327Y-63688259D01*
X84147954Y-63791753D01*
X84149949Y-63861594D01*
X84113869Y-63921427D01*
X84051168Y-63952255D01*
X83981753Y-63944290D01*
X83942342Y-63917752D01*
X81962001Y-61937411D01*
X78979413Y-58954822D01*
X78945928Y-58893499D01*
X78947319Y-58835048D01*
X78965635Y-58766692D01*
X78984633Y-58549545D01*
X78985468Y-58540001D01*
X78985468Y-58539998D01*
X78979801Y-58475230D01*
X78965635Y-58313308D01*
X78906739Y-58093504D01*
X78810568Y-57887266D01*
X78680047Y-57700861D01*
X78680045Y-57700858D01*
X78519141Y-57539954D01*
X78332734Y-57409432D01*
X78332732Y-57409431D01*
X78321275Y-57404088D01*
X78274132Y-57382105D01*
X78221694Y-57335934D01*
X78202542Y-57268740D01*
X78222758Y-57201859D01*
X78274134Y-57157341D01*
X78332484Y-57130132D01*
X78518820Y-56999657D01*
X78679657Y-56838820D01*
X78810134Y-56652482D01*
X78906265Y-56446326D01*
X78906269Y-56446317D01*
X78958872Y-56250000D01*
X78190576Y-56250000D01*
X78123537Y-56230315D01*
X78077782Y-56177511D01*
X78067838Y-56108353D01*
X78068103Y-56106603D01*
X78084986Y-56000003D01*
X78084986Y-55999996D01*
X78068103Y-55893397D01*
X78077058Y-55824104D01*
X78122054Y-55770652D01*
X78188806Y-55750013D01*
X78190576Y-55750000D01*
X78958872Y-55750000D01*
X78958872Y-55749999D01*
X78906269Y-55553682D01*
X78906265Y-55553673D01*
X78810134Y-55347517D01*
X78679657Y-55161179D01*
X78518820Y-55000342D01*
X78332482Y-54869865D01*
X78126328Y-54773734D01*
X77930000Y-54721127D01*
X77930000Y-55489424D01*
X77910315Y-55556463D01*
X77857511Y-55602218D01*
X77788353Y-55612162D01*
X77786602Y-55611897D01*
X77711486Y-55600000D01*
X77711481Y-55600000D01*
X77648519Y-55600000D01*
X77648514Y-55600000D01*
X77573398Y-55611897D01*
X77504104Y-55602942D01*
X77450652Y-55557946D01*
X77430013Y-55491194D01*
X77430000Y-55489424D01*
X77430000Y-54721127D01*
X77233671Y-54773734D01*
X77027517Y-54869865D01*
X76841179Y-55000342D01*
X76680342Y-55161179D01*
X76549865Y-55347517D01*
X76453734Y-55553673D01*
X76453730Y-55553682D01*
X76401127Y-55749999D01*
X76401128Y-55750000D01*
X77169424Y-55750000D01*
X77236463Y-55769685D01*
X77282218Y-55822489D01*
X77292162Y-55891647D01*
X77291897Y-55893397D01*
X77275014Y-55999996D01*
X77275014Y-56000003D01*
X77291897Y-56106603D01*
X77282942Y-56175896D01*
X77237946Y-56229348D01*
X77171194Y-56249987D01*
X77169424Y-56250000D01*
X76401128Y-56250000D01*
X76453730Y-56446317D01*
X76453734Y-56446326D01*
X76549865Y-56652482D01*
X76680342Y-56838820D01*
X76841179Y-56999657D01*
X77027518Y-57130134D01*
X77027520Y-57130135D01*
X77085865Y-57157342D01*
X77138305Y-57203514D01*
X77157457Y-57270707D01*
X77137242Y-57337589D01*
X77085867Y-57382105D01*
X77027268Y-57409431D01*
X77027264Y-57409433D01*
X76840858Y-57539954D01*
X76679954Y-57700858D01*
X76549432Y-57887265D01*
X76549431Y-57887267D01*
X76453261Y-58093502D01*
X76453258Y-58093511D01*
X76394366Y-58313302D01*
X76394364Y-58313313D01*
X76374532Y-58539998D01*
X76374532Y-58540001D01*
X71000000Y-58540001D01*
X71000000Y-46380336D01*
X78775057Y-46380336D01*
X78794807Y-46694273D01*
X78794808Y-46694280D01*
X78853755Y-47003289D01*
X78950963Y-47302463D01*
X78950965Y-47302468D01*
X79084900Y-47587092D01*
X79084903Y-47587098D01*
X79253457Y-47852698D01*
X79253460Y-47852702D01*
X79344286Y-47962491D01*
X79887413Y-47419363D01*
X79948736Y-47385878D01*
X80018427Y-47390862D01*
X80069381Y-47426510D01*
X80145130Y-47515201D01*
X80208855Y-47569627D01*
X80233816Y-47590946D01*
X80272009Y-47649453D01*
X80272507Y-47719321D01*
X80240965Y-47772917D01*
X79694971Y-48318910D01*
X79694972Y-48318912D01*
X79937772Y-48495316D01*
X79937790Y-48495327D01*
X80213447Y-48646871D01*
X80213455Y-48646875D01*
X80505926Y-48762671D01*
X80810620Y-48840904D01*
X80810629Y-48840906D01*
X81122701Y-48880330D01*
X81122715Y-48880331D01*
X81437285Y-48880331D01*
X81437298Y-48880330D01*
X81749370Y-48840906D01*
X81749379Y-48840904D01*
X82054073Y-48762671D01*
X82346544Y-48646875D01*
X82346552Y-48646871D01*
X82622209Y-48495327D01*
X82622219Y-48495321D01*
X82865026Y-48318910D01*
X82865027Y-48318910D01*
X82319033Y-47772917D01*
X82285548Y-47711594D01*
X82290532Y-47641903D01*
X82326180Y-47590948D01*
X82414870Y-47515201D01*
X82490617Y-47426511D01*
X82549121Y-47388321D01*
X82618989Y-47387821D01*
X82672586Y-47419364D01*
X83215712Y-47962491D01*
X83306544Y-47852695D01*
X83339774Y-47800332D01*
X86929532Y-47800332D01*
X86949364Y-48027017D01*
X86949366Y-48027028D01*
X87008258Y-48246819D01*
X87008261Y-48246828D01*
X87104431Y-48453063D01*
X87104432Y-48453065D01*
X87234954Y-48639472D01*
X87395858Y-48800376D01*
X87395861Y-48800378D01*
X87582266Y-48930899D01*
X87788504Y-49027070D01*
X88008308Y-49085966D01*
X88170230Y-49100132D01*
X88234998Y-49105799D01*
X88235000Y-49105799D01*
X88235002Y-49105799D01*
X88291807Y-49100829D01*
X88461692Y-49085966D01*
X88681496Y-49027070D01*
X88887734Y-48930899D01*
X89074139Y-48800378D01*
X89235047Y-48639470D01*
X89365568Y-48453065D01*
X89461739Y-48246827D01*
X89500225Y-48103193D01*
X89536590Y-48043533D01*
X89599437Y-48013004D01*
X89668812Y-48021299D01*
X89722690Y-48065784D01*
X89739775Y-48103194D01*
X89778258Y-48246819D01*
X89778261Y-48246828D01*
X89874431Y-48453063D01*
X89874432Y-48453065D01*
X90004954Y-48639472D01*
X90165858Y-48800376D01*
X90165861Y-48800378D01*
X90352266Y-48930899D01*
X90558504Y-49027070D01*
X90778308Y-49085966D01*
X90940230Y-49100132D01*
X91004998Y-49105799D01*
X91005000Y-49105799D01*
X91005002Y-49105799D01*
X91061807Y-49100829D01*
X91231692Y-49085966D01*
X91451496Y-49027070D01*
X91657734Y-48930899D01*
X91844139Y-48800378D01*
X92005047Y-48639470D01*
X92135568Y-48453065D01*
X92231739Y-48246827D01*
X92270225Y-48103193D01*
X92306590Y-48043533D01*
X92369437Y-48013004D01*
X92438812Y-48021299D01*
X92492690Y-48065784D01*
X92509775Y-48103194D01*
X92548258Y-48246819D01*
X92548261Y-48246828D01*
X92644431Y-48453063D01*
X92644432Y-48453065D01*
X92774954Y-48639472D01*
X92935858Y-48800376D01*
X92935861Y-48800378D01*
X93122266Y-48930899D01*
X93328504Y-49027070D01*
X93548308Y-49085966D01*
X93710230Y-49100132D01*
X93774998Y-49105799D01*
X93775000Y-49105799D01*
X93775002Y-49105799D01*
X93831807Y-49100829D01*
X94001692Y-49085966D01*
X94221496Y-49027070D01*
X94427734Y-48930899D01*
X94614139Y-48800378D01*
X94775047Y-48639470D01*
X94905568Y-48453065D01*
X95001739Y-48246827D01*
X95002900Y-48242496D01*
X95016697Y-48191001D01*
X95040225Y-48103192D01*
X95076588Y-48043534D01*
X95139435Y-48013004D01*
X95208810Y-48021298D01*
X95262689Y-48065783D01*
X95279774Y-48103193D01*
X95318259Y-48246821D01*
X95318261Y-48246828D01*
X95414431Y-48453063D01*
X95414432Y-48453065D01*
X95544954Y-48639472D01*
X95705858Y-48800376D01*
X95705861Y-48800378D01*
X95892266Y-48930899D01*
X96098504Y-49027070D01*
X96318308Y-49085966D01*
X96480230Y-49100132D01*
X96544998Y-49105799D01*
X96545000Y-49105799D01*
X96545002Y-49105799D01*
X96601807Y-49100829D01*
X96771692Y-49085966D01*
X96991496Y-49027070D01*
X97197734Y-48930899D01*
X97384139Y-48800378D01*
X97545047Y-48639470D01*
X97675568Y-48453065D01*
X97771739Y-48246827D01*
X97772900Y-48242496D01*
X97786697Y-48191001D01*
X97810225Y-48103192D01*
X97846588Y-48043534D01*
X97909435Y-48013004D01*
X97978810Y-48021298D01*
X98032689Y-48065783D01*
X98049774Y-48103193D01*
X98088259Y-48246821D01*
X98088261Y-48246828D01*
X98184431Y-48453063D01*
X98184432Y-48453065D01*
X98314954Y-48639472D01*
X98475858Y-48800376D01*
X98475861Y-48800378D01*
X98662266Y-48930899D01*
X98868504Y-49027070D01*
X99088308Y-49085966D01*
X99250230Y-49100132D01*
X99314998Y-49105799D01*
X99315000Y-49105799D01*
X99315002Y-49105799D01*
X99371807Y-49100829D01*
X99541692Y-49085966D01*
X99761496Y-49027070D01*
X99967734Y-48930899D01*
X100154139Y-48800378D01*
X100315047Y-48639470D01*
X100445568Y-48453065D01*
X100541739Y-48246827D01*
X100580225Y-48103193D01*
X100616590Y-48043533D01*
X100679437Y-48013004D01*
X100748812Y-48021299D01*
X100802690Y-48065784D01*
X100819775Y-48103194D01*
X100858258Y-48246819D01*
X100858261Y-48246828D01*
X100954431Y-48453063D01*
X100954432Y-48453065D01*
X101084954Y-48639472D01*
X101245858Y-48800376D01*
X101245861Y-48800378D01*
X101432266Y-48930899D01*
X101638504Y-49027070D01*
X101858308Y-49085966D01*
X102020230Y-49100132D01*
X102084998Y-49105799D01*
X102085000Y-49105799D01*
X102085002Y-49105799D01*
X102141807Y-49100829D01*
X102311692Y-49085966D01*
X102531496Y-49027070D01*
X102737734Y-48930899D01*
X102924139Y-48800378D01*
X103085047Y-48639470D01*
X103215568Y-48453065D01*
X103311739Y-48246827D01*
X103350225Y-48103193D01*
X103386590Y-48043533D01*
X103449437Y-48013004D01*
X103518812Y-48021299D01*
X103572690Y-48065784D01*
X103589775Y-48103194D01*
X103628258Y-48246819D01*
X103628261Y-48246828D01*
X103724431Y-48453063D01*
X103724432Y-48453065D01*
X103854954Y-48639472D01*
X104015858Y-48800376D01*
X104015861Y-48800378D01*
X104202266Y-48930899D01*
X104408504Y-49027070D01*
X104628308Y-49085966D01*
X104790230Y-49100132D01*
X104854998Y-49105799D01*
X104855000Y-49105799D01*
X104855002Y-49105799D01*
X104911807Y-49100829D01*
X105081692Y-49085966D01*
X105301496Y-49027070D01*
X105507734Y-48930899D01*
X105694139Y-48800378D01*
X105855047Y-48639470D01*
X105985568Y-48453065D01*
X106081739Y-48246827D01*
X106081742Y-48246817D01*
X106083593Y-48241733D01*
X106085689Y-48242496D01*
X106117032Y-48191001D01*
X106179859Y-48160432D01*
X106249240Y-48168683D01*
X106303146Y-48213134D01*
X106324463Y-48279672D01*
X106324500Y-48282702D01*
X106324500Y-48648200D01*
X106324501Y-48648207D01*
X106330908Y-48707814D01*
X106381202Y-48842659D01*
X106381206Y-48842666D01*
X106467452Y-48957875D01*
X106467455Y-48957878D01*
X106582664Y-49044124D01*
X106582671Y-49044128D01*
X106717517Y-49094422D01*
X106717516Y-49094422D01*
X106724444Y-49095166D01*
X106777127Y-49100831D01*
X108472872Y-49100830D01*
X108532483Y-49094422D01*
X108667331Y-49044127D01*
X108782546Y-48957877D01*
X108868796Y-48842662D01*
X108919091Y-48707814D01*
X108925500Y-48648204D01*
X108925499Y-46952459D01*
X108919091Y-46892848D01*
X108912914Y-46876287D01*
X108868797Y-46758002D01*
X108868793Y-46757995D01*
X108782547Y-46642786D01*
X108782544Y-46642783D01*
X108667335Y-46556537D01*
X108667328Y-46556533D01*
X108532482Y-46506239D01*
X108532483Y-46506239D01*
X108472883Y-46499832D01*
X108472881Y-46499831D01*
X108472873Y-46499831D01*
X108472864Y-46499831D01*
X106777129Y-46499831D01*
X106777123Y-46499832D01*
X106717516Y-46506239D01*
X106582671Y-46556533D01*
X106582664Y-46556537D01*
X106467455Y-46642783D01*
X106467452Y-46642786D01*
X106381206Y-46757995D01*
X106381202Y-46758002D01*
X106330908Y-46892848D01*
X106324501Y-46952447D01*
X106324501Y-46952454D01*
X106324500Y-46952466D01*
X106324500Y-47317957D01*
X106304815Y-47384996D01*
X106252011Y-47430751D01*
X106182853Y-47440695D01*
X106119297Y-47411670D01*
X106085059Y-47358395D01*
X106083593Y-47358929D01*
X106081738Y-47353833D01*
X105985568Y-47147598D01*
X105985567Y-47147596D01*
X105855045Y-46961189D01*
X105694141Y-46800285D01*
X105507734Y-46669763D01*
X105507732Y-46669762D01*
X105301497Y-46573592D01*
X105301488Y-46573589D01*
X105081697Y-46514697D01*
X105081693Y-46514696D01*
X105081692Y-46514696D01*
X105081691Y-46514695D01*
X105081686Y-46514695D01*
X104855002Y-46494863D01*
X104854998Y-46494863D01*
X104628313Y-46514695D01*
X104628302Y-46514697D01*
X104408511Y-46573589D01*
X104408502Y-46573592D01*
X104202267Y-46669762D01*
X104202265Y-46669763D01*
X104015858Y-46800285D01*
X103854954Y-46961189D01*
X103724432Y-47147596D01*
X103724431Y-47147598D01*
X103628261Y-47353833D01*
X103628258Y-47353842D01*
X103589775Y-47497467D01*
X103553410Y-47557128D01*
X103490563Y-47587657D01*
X103421188Y-47579362D01*
X103367310Y-47534877D01*
X103350225Y-47497467D01*
X103311741Y-47353842D01*
X103311738Y-47353833D01*
X103215568Y-47147598D01*
X103215567Y-47147596D01*
X103085045Y-46961189D01*
X102924141Y-46800285D01*
X102737734Y-46669763D01*
X102737732Y-46669762D01*
X102531497Y-46573592D01*
X102531488Y-46573589D01*
X102311697Y-46514697D01*
X102311693Y-46514696D01*
X102311692Y-46514696D01*
X102311691Y-46514695D01*
X102311686Y-46514695D01*
X102085002Y-46494863D01*
X102084998Y-46494863D01*
X101858313Y-46514695D01*
X101858302Y-46514697D01*
X101638511Y-46573589D01*
X101638502Y-46573592D01*
X101432267Y-46669762D01*
X101432265Y-46669763D01*
X101245858Y-46800285D01*
X101084954Y-46961189D01*
X100954432Y-47147596D01*
X100954431Y-47147598D01*
X100858261Y-47353833D01*
X100858258Y-47353842D01*
X100819775Y-47497467D01*
X100783410Y-47557128D01*
X100720563Y-47587657D01*
X100651188Y-47579362D01*
X100597310Y-47534877D01*
X100580225Y-47497467D01*
X100541741Y-47353842D01*
X100541738Y-47353833D01*
X100445568Y-47147598D01*
X100445567Y-47147596D01*
X100315045Y-46961189D01*
X100154141Y-46800285D01*
X99967734Y-46669763D01*
X99967732Y-46669762D01*
X99761497Y-46573592D01*
X99761488Y-46573589D01*
X99541697Y-46514697D01*
X99541693Y-46514696D01*
X99541692Y-46514696D01*
X99541691Y-46514695D01*
X99541686Y-46514695D01*
X99315002Y-46494863D01*
X99314998Y-46494863D01*
X99088313Y-46514695D01*
X99088302Y-46514697D01*
X98868511Y-46573589D01*
X98868502Y-46573592D01*
X98662267Y-46669762D01*
X98662265Y-46669763D01*
X98475858Y-46800285D01*
X98314954Y-46961189D01*
X98184432Y-47147596D01*
X98184431Y-47147598D01*
X98088261Y-47353833D01*
X98088258Y-47353842D01*
X98049775Y-47497467D01*
X98013410Y-47557128D01*
X97950563Y-47587657D01*
X97881188Y-47579362D01*
X97827310Y-47534877D01*
X97810225Y-47497467D01*
X97771741Y-47353842D01*
X97771738Y-47353833D01*
X97675568Y-47147598D01*
X97675567Y-47147596D01*
X97545045Y-46961189D01*
X97384141Y-46800285D01*
X97197734Y-46669763D01*
X97197732Y-46669762D01*
X96991497Y-46573592D01*
X96991488Y-46573589D01*
X96771697Y-46514697D01*
X96771693Y-46514696D01*
X96771692Y-46514696D01*
X96771691Y-46514695D01*
X96771686Y-46514695D01*
X96545002Y-46494863D01*
X96544998Y-46494863D01*
X96318313Y-46514695D01*
X96318302Y-46514697D01*
X96098511Y-46573589D01*
X96098502Y-46573592D01*
X95892267Y-46669762D01*
X95892265Y-46669763D01*
X95705858Y-46800285D01*
X95544954Y-46961189D01*
X95414432Y-47147596D01*
X95414431Y-47147598D01*
X95318261Y-47353833D01*
X95318259Y-47353840D01*
X95279774Y-47497468D01*
X95243409Y-47557128D01*
X95180562Y-47587657D01*
X95111186Y-47579362D01*
X95057308Y-47534877D01*
X95040225Y-47497468D01*
X95017236Y-47411670D01*
X95001742Y-47353844D01*
X95001738Y-47353833D01*
X94905568Y-47147598D01*
X94905567Y-47147596D01*
X94775045Y-46961189D01*
X94614141Y-46800285D01*
X94427734Y-46669763D01*
X94427732Y-46669762D01*
X94221497Y-46573592D01*
X94221488Y-46573589D01*
X94001697Y-46514697D01*
X94001693Y-46514696D01*
X94001692Y-46514696D01*
X94001691Y-46514695D01*
X94001686Y-46514695D01*
X93775002Y-46494863D01*
X93774998Y-46494863D01*
X93548313Y-46514695D01*
X93548302Y-46514697D01*
X93328511Y-46573589D01*
X93328502Y-46573592D01*
X93122267Y-46669762D01*
X93122265Y-46669763D01*
X92935858Y-46800285D01*
X92774954Y-46961189D01*
X92644432Y-47147596D01*
X92644431Y-47147598D01*
X92548261Y-47353833D01*
X92548258Y-47353842D01*
X92509775Y-47497467D01*
X92473410Y-47557128D01*
X92410563Y-47587657D01*
X92341188Y-47579362D01*
X92287310Y-47534877D01*
X92270225Y-47497467D01*
X92231741Y-47353842D01*
X92231738Y-47353833D01*
X92135568Y-47147598D01*
X92135567Y-47147596D01*
X92005045Y-46961189D01*
X91844141Y-46800285D01*
X91657734Y-46669763D01*
X91657732Y-46669762D01*
X91451497Y-46573592D01*
X91451488Y-46573589D01*
X91231697Y-46514697D01*
X91231693Y-46514696D01*
X91231692Y-46514696D01*
X91231691Y-46514695D01*
X91231686Y-46514695D01*
X91005002Y-46494863D01*
X91004998Y-46494863D01*
X90778313Y-46514695D01*
X90778302Y-46514697D01*
X90558511Y-46573589D01*
X90558502Y-46573592D01*
X90352267Y-46669762D01*
X90352265Y-46669763D01*
X90165858Y-46800285D01*
X90004954Y-46961189D01*
X89874432Y-47147596D01*
X89874431Y-47147598D01*
X89778261Y-47353833D01*
X89778258Y-47353842D01*
X89739775Y-47497467D01*
X89703410Y-47557128D01*
X89640563Y-47587657D01*
X89571188Y-47579362D01*
X89517310Y-47534877D01*
X89500225Y-47497467D01*
X89461741Y-47353842D01*
X89461738Y-47353833D01*
X89365568Y-47147598D01*
X89365567Y-47147596D01*
X89235045Y-46961189D01*
X89074141Y-46800285D01*
X88887734Y-46669763D01*
X88887732Y-46669762D01*
X88681497Y-46573592D01*
X88681488Y-46573589D01*
X88461697Y-46514697D01*
X88461693Y-46514696D01*
X88461692Y-46514696D01*
X88461691Y-46514695D01*
X88461686Y-46514695D01*
X88235002Y-46494863D01*
X88234998Y-46494863D01*
X88008313Y-46514695D01*
X88008302Y-46514697D01*
X87788511Y-46573589D01*
X87788502Y-46573592D01*
X87582267Y-46669762D01*
X87582265Y-46669763D01*
X87395858Y-46800285D01*
X87234954Y-46961189D01*
X87104432Y-47147596D01*
X87104431Y-47147598D01*
X87008261Y-47353833D01*
X87008258Y-47353842D01*
X86949366Y-47573633D01*
X86949364Y-47573644D01*
X86929532Y-47800329D01*
X86929532Y-47800332D01*
X83339774Y-47800332D01*
X83475096Y-47587098D01*
X83475099Y-47587092D01*
X83609034Y-47302468D01*
X83609036Y-47302463D01*
X83706244Y-47003289D01*
X83765191Y-46694280D01*
X83765192Y-46694273D01*
X83784943Y-46380336D01*
X112075057Y-46380336D01*
X112094807Y-46694273D01*
X112094808Y-46694280D01*
X112153755Y-47003289D01*
X112250963Y-47302463D01*
X112250965Y-47302468D01*
X112384900Y-47587092D01*
X112384903Y-47587098D01*
X112553457Y-47852698D01*
X112553460Y-47852702D01*
X112644286Y-47962491D01*
X113187413Y-47419363D01*
X113248736Y-47385878D01*
X113318427Y-47390862D01*
X113369381Y-47426510D01*
X113445130Y-47515201D01*
X113508855Y-47569627D01*
X113533816Y-47590946D01*
X113572009Y-47649453D01*
X113572507Y-47719321D01*
X113540965Y-47772917D01*
X112994971Y-48318910D01*
X112994972Y-48318912D01*
X113237772Y-48495316D01*
X113237790Y-48495327D01*
X113513447Y-48646871D01*
X113513455Y-48646875D01*
X113805926Y-48762671D01*
X114110620Y-48840904D01*
X114110629Y-48840906D01*
X114422701Y-48880330D01*
X114422715Y-48880331D01*
X114737285Y-48880331D01*
X114737298Y-48880330D01*
X115049370Y-48840906D01*
X115049379Y-48840904D01*
X115354073Y-48762671D01*
X115646544Y-48646875D01*
X115646552Y-48646871D01*
X115922209Y-48495327D01*
X115922219Y-48495321D01*
X116165026Y-48318910D01*
X116165027Y-48318910D01*
X115619033Y-47772917D01*
X115585548Y-47711594D01*
X115590532Y-47641903D01*
X115626180Y-47590948D01*
X115714870Y-47515201D01*
X115790617Y-47426511D01*
X115849121Y-47388321D01*
X115918989Y-47387821D01*
X115972586Y-47419364D01*
X116515712Y-47962491D01*
X116606544Y-47852695D01*
X116775096Y-47587098D01*
X116775099Y-47587092D01*
X116909034Y-47302468D01*
X116909036Y-47302463D01*
X117006244Y-47003289D01*
X117065191Y-46694280D01*
X117065192Y-46694273D01*
X117084943Y-46380336D01*
X117084943Y-46380325D01*
X117065192Y-46066388D01*
X117065191Y-46066381D01*
X117006244Y-45757372D01*
X116909036Y-45458198D01*
X116909034Y-45458193D01*
X116775099Y-45173569D01*
X116775096Y-45173563D01*
X116606542Y-44907963D01*
X116606539Y-44907959D01*
X116515712Y-44798169D01*
X115972586Y-45341296D01*
X115911263Y-45374781D01*
X115841571Y-45369797D01*
X115790615Y-45334147D01*
X115729190Y-45262228D01*
X115714870Y-45245461D01*
X115626179Y-45169712D01*
X115587989Y-45111209D01*
X115587489Y-45041341D01*
X115619032Y-44987744D01*
X116165027Y-44441750D01*
X116165026Y-44441748D01*
X115922227Y-44265345D01*
X115922209Y-44265334D01*
X115646552Y-44113790D01*
X115646544Y-44113786D01*
X115354073Y-43997990D01*
X115049379Y-43919757D01*
X115049370Y-43919755D01*
X114737298Y-43880331D01*
X114422701Y-43880331D01*
X114110629Y-43919755D01*
X114110620Y-43919757D01*
X113805926Y-43997990D01*
X113513455Y-44113786D01*
X113513447Y-44113790D01*
X113237787Y-44265335D01*
X113237782Y-44265338D01*
X112994972Y-44441749D01*
X112994971Y-44441750D01*
X113540966Y-44987744D01*
X113574451Y-45049067D01*
X113569467Y-45118758D01*
X113533817Y-45169715D01*
X113445130Y-45245461D01*
X113369384Y-45334148D01*
X113310877Y-45372341D01*
X113241009Y-45372839D01*
X113187413Y-45341297D01*
X112644286Y-44798169D01*
X112644285Y-44798169D01*
X112553459Y-44907960D01*
X112553457Y-44907963D01*
X112384903Y-45173563D01*
X112384900Y-45173569D01*
X112250965Y-45458193D01*
X112250963Y-45458198D01*
X112153755Y-45757372D01*
X112094808Y-46066381D01*
X112094807Y-46066388D01*
X112075057Y-46380325D01*
X112075057Y-46380336D01*
X83784943Y-46380336D01*
X83784943Y-46380325D01*
X83765192Y-46066388D01*
X83765191Y-46066381D01*
X83706244Y-45757372D01*
X83609036Y-45458198D01*
X83609034Y-45458193D01*
X83475099Y-45173569D01*
X83475096Y-45173563D01*
X83339776Y-44960332D01*
X88314532Y-44960332D01*
X88334364Y-45187017D01*
X88334366Y-45187028D01*
X88393258Y-45406819D01*
X88393261Y-45406828D01*
X88489431Y-45613063D01*
X88489432Y-45613065D01*
X88619954Y-45799472D01*
X88780858Y-45960376D01*
X88780861Y-45960378D01*
X88967266Y-46090899D01*
X89173504Y-46187070D01*
X89393308Y-46245966D01*
X89555230Y-46260132D01*
X89619998Y-46265799D01*
X89620000Y-46265799D01*
X89620002Y-46265799D01*
X89676672Y-46260840D01*
X89846692Y-46245966D01*
X90066496Y-46187070D01*
X90272734Y-46090899D01*
X90459139Y-45960378D01*
X90620047Y-45799470D01*
X90750568Y-45613065D01*
X90846739Y-45406827D01*
X90885484Y-45262226D01*
X90921847Y-45202569D01*
X90984694Y-45172039D01*
X91054070Y-45180333D01*
X91107948Y-45224818D01*
X91125033Y-45262228D01*
X91163731Y-45406650D01*
X91163734Y-45406657D01*
X91259865Y-45612812D01*
X91259866Y-45612814D01*
X91310973Y-45685802D01*
X91310973Y-45685803D01*
X91781049Y-45215726D01*
X91842372Y-45182241D01*
X91912063Y-45187225D01*
X91967997Y-45229096D01*
X91973045Y-45236367D01*
X92008238Y-45291128D01*
X92123602Y-45391090D01*
X92121293Y-45393753D01*
X92156006Y-45433830D01*
X92165935Y-45502991D01*
X92136898Y-45566541D01*
X92130882Y-45573000D01*
X91664526Y-46039356D01*
X91664526Y-46039357D01*
X91737512Y-46090462D01*
X91737516Y-46090464D01*
X91943673Y-46186596D01*
X91943682Y-46186600D01*
X92163389Y-46245470D01*
X92163400Y-46245472D01*
X92389998Y-46265297D01*
X92390002Y-46265297D01*
X92616599Y-46245472D01*
X92616610Y-46245470D01*
X92836317Y-46186600D01*
X92836331Y-46186595D01*
X93042478Y-46090467D01*
X93115472Y-46039356D01*
X92649116Y-45573000D01*
X92615631Y-45511677D01*
X92620615Y-45441985D01*
X92657641Y-45392524D01*
X92656398Y-45391090D01*
X92713864Y-45341296D01*
X92771761Y-45291129D01*
X92806955Y-45236365D01*
X92859754Y-45190614D01*
X92928913Y-45180669D01*
X92992469Y-45209693D01*
X92998949Y-45215726D01*
X93469025Y-45685803D01*
X93520136Y-45612809D01*
X93616264Y-45406662D01*
X93616269Y-45406648D01*
X93654966Y-45262229D01*
X93691331Y-45202568D01*
X93754178Y-45172039D01*
X93823553Y-45180334D01*
X93877431Y-45224819D01*
X93894516Y-45262229D01*
X93933258Y-45406819D01*
X93933261Y-45406828D01*
X94029431Y-45613063D01*
X94029432Y-45613065D01*
X94159954Y-45799472D01*
X94320858Y-45960376D01*
X94320861Y-45960378D01*
X94507266Y-46090899D01*
X94713504Y-46187070D01*
X94933308Y-46245966D01*
X95095230Y-46260132D01*
X95159998Y-46265799D01*
X95160000Y-46265799D01*
X95160002Y-46265799D01*
X95216673Y-46260840D01*
X95386692Y-46245966D01*
X95606496Y-46187070D01*
X95812734Y-46090899D01*
X95999139Y-45960378D01*
X96160047Y-45799470D01*
X96290568Y-45613065D01*
X96386739Y-45406827D01*
X96425225Y-45263193D01*
X96461590Y-45203533D01*
X96524437Y-45173004D01*
X96593812Y-45181299D01*
X96647690Y-45225784D01*
X96664775Y-45263194D01*
X96703258Y-45406819D01*
X96703261Y-45406828D01*
X96799431Y-45613063D01*
X96799432Y-45613065D01*
X96929954Y-45799472D01*
X97090858Y-45960376D01*
X97090861Y-45960378D01*
X97277266Y-46090899D01*
X97483504Y-46187070D01*
X97703308Y-46245966D01*
X97865230Y-46260132D01*
X97929998Y-46265799D01*
X97930000Y-46265799D01*
X97930002Y-46265799D01*
X97986672Y-46260840D01*
X98156692Y-46245966D01*
X98376496Y-46187070D01*
X98582734Y-46090899D01*
X98769139Y-45960378D01*
X98930047Y-45799470D01*
X99060568Y-45613065D01*
X99156739Y-45406827D01*
X99195225Y-45263193D01*
X99231590Y-45203533D01*
X99294437Y-45173004D01*
X99363812Y-45181299D01*
X99417690Y-45225784D01*
X99434775Y-45263194D01*
X99473258Y-45406819D01*
X99473261Y-45406828D01*
X99569431Y-45613063D01*
X99569432Y-45613065D01*
X99699954Y-45799472D01*
X99860858Y-45960376D01*
X99860861Y-45960378D01*
X100047266Y-46090899D01*
X100253504Y-46187070D01*
X100473308Y-46245966D01*
X100635230Y-46260132D01*
X100699998Y-46265799D01*
X100700000Y-46265799D01*
X100700002Y-46265799D01*
X100756673Y-46260840D01*
X100926692Y-46245966D01*
X101146496Y-46187070D01*
X101352734Y-46090899D01*
X101539139Y-45960378D01*
X101700047Y-45799470D01*
X101830568Y-45613065D01*
X101926739Y-45406827D01*
X101926784Y-45406662D01*
X101937019Y-45368458D01*
X101965225Y-45263192D01*
X102001588Y-45203534D01*
X102064435Y-45173004D01*
X102133810Y-45181298D01*
X102187689Y-45225783D01*
X102204774Y-45263193D01*
X102243259Y-45406821D01*
X102243261Y-45406828D01*
X102339431Y-45613063D01*
X102339432Y-45613065D01*
X102469954Y-45799472D01*
X102630858Y-45960376D01*
X102630861Y-45960378D01*
X102817266Y-46090899D01*
X103023504Y-46187070D01*
X103243308Y-46245966D01*
X103405230Y-46260132D01*
X103469998Y-46265799D01*
X103470000Y-46265799D01*
X103470002Y-46265799D01*
X103526673Y-46260840D01*
X103696692Y-46245966D01*
X103916496Y-46187070D01*
X104122734Y-46090899D01*
X104309139Y-45960378D01*
X104470047Y-45799470D01*
X104600568Y-45613065D01*
X104696739Y-45406827D01*
X104696784Y-45406662D01*
X104707019Y-45368458D01*
X104735225Y-45263192D01*
X104771588Y-45203534D01*
X104834435Y-45173004D01*
X104903810Y-45181298D01*
X104957689Y-45225783D01*
X104974774Y-45263193D01*
X105013259Y-45406821D01*
X105013261Y-45406828D01*
X105109431Y-45613063D01*
X105109432Y-45613065D01*
X105239954Y-45799472D01*
X105400858Y-45960376D01*
X105400861Y-45960378D01*
X105587266Y-46090899D01*
X105793504Y-46187070D01*
X106013308Y-46245966D01*
X106175230Y-46260132D01*
X106239998Y-46265799D01*
X106240000Y-46265799D01*
X106240002Y-46265799D01*
X106296672Y-46260840D01*
X106466692Y-46245966D01*
X106686496Y-46187070D01*
X106892734Y-46090899D01*
X107079139Y-45960378D01*
X107240047Y-45799470D01*
X107370568Y-45613065D01*
X107466739Y-45406827D01*
X107525635Y-45187023D01*
X107545468Y-44960331D01*
X107544591Y-44950312D01*
X107539179Y-44888442D01*
X107525635Y-44733639D01*
X107466784Y-44514004D01*
X107466741Y-44513842D01*
X107466738Y-44513833D01*
X107448933Y-44475651D01*
X107370568Y-44307597D01*
X107240047Y-44121192D01*
X107240045Y-44121189D01*
X107079141Y-43960285D01*
X106892734Y-43829763D01*
X106892732Y-43829762D01*
X106686497Y-43733592D01*
X106686488Y-43733589D01*
X106466697Y-43674697D01*
X106466693Y-43674696D01*
X106466692Y-43674696D01*
X106466691Y-43674695D01*
X106466686Y-43674695D01*
X106240002Y-43654863D01*
X106239998Y-43654863D01*
X106013313Y-43674695D01*
X106013302Y-43674697D01*
X105793511Y-43733589D01*
X105793502Y-43733592D01*
X105587267Y-43829762D01*
X105587265Y-43829763D01*
X105400858Y-43960285D01*
X105239954Y-44121189D01*
X105109432Y-44307596D01*
X105109431Y-44307598D01*
X105013261Y-44513833D01*
X105013258Y-44513842D01*
X104974775Y-44657467D01*
X104938410Y-44717128D01*
X104875563Y-44747657D01*
X104806188Y-44739362D01*
X104752310Y-44694877D01*
X104735225Y-44657467D01*
X104696741Y-44513842D01*
X104696738Y-44513833D01*
X104678933Y-44475651D01*
X104600568Y-44307597D01*
X104470047Y-44121192D01*
X104470045Y-44121189D01*
X104309141Y-43960285D01*
X104122734Y-43829763D01*
X104122732Y-43829762D01*
X103916497Y-43733592D01*
X103916488Y-43733589D01*
X103696697Y-43674697D01*
X103696693Y-43674696D01*
X103696692Y-43674696D01*
X103696691Y-43674695D01*
X103696686Y-43674695D01*
X103470002Y-43654863D01*
X103469998Y-43654863D01*
X103243313Y-43674695D01*
X103243302Y-43674697D01*
X103023511Y-43733589D01*
X103023502Y-43733592D01*
X102817267Y-43829762D01*
X102817265Y-43829763D01*
X102630858Y-43960285D01*
X102469954Y-44121189D01*
X102339432Y-44307596D01*
X102339431Y-44307598D01*
X102243261Y-44513833D01*
X102243259Y-44513840D01*
X102204774Y-44657468D01*
X102168409Y-44717128D01*
X102105562Y-44747657D01*
X102036186Y-44739362D01*
X101982308Y-44694877D01*
X101965225Y-44657468D01*
X101930571Y-44528136D01*
X101926742Y-44513844D01*
X101926738Y-44513833D01*
X101908933Y-44475651D01*
X101830568Y-44307597D01*
X101700047Y-44121192D01*
X101700045Y-44121189D01*
X101539141Y-43960285D01*
X101352734Y-43829763D01*
X101352732Y-43829762D01*
X101146497Y-43733592D01*
X101146488Y-43733589D01*
X100926697Y-43674697D01*
X100926693Y-43674696D01*
X100926692Y-43674696D01*
X100926691Y-43674695D01*
X100926686Y-43674695D01*
X100700002Y-43654863D01*
X100699998Y-43654863D01*
X100473313Y-43674695D01*
X100473302Y-43674697D01*
X100253511Y-43733589D01*
X100253502Y-43733592D01*
X100047267Y-43829762D01*
X100047265Y-43829763D01*
X99860858Y-43960285D01*
X99699954Y-44121189D01*
X99569432Y-44307596D01*
X99569431Y-44307598D01*
X99473261Y-44513833D01*
X99473258Y-44513842D01*
X99434775Y-44657467D01*
X99398410Y-44717128D01*
X99335563Y-44747657D01*
X99266188Y-44739362D01*
X99212310Y-44694877D01*
X99195225Y-44657467D01*
X99156741Y-44513842D01*
X99156738Y-44513833D01*
X99138933Y-44475651D01*
X99060568Y-44307597D01*
X98930047Y-44121192D01*
X98930045Y-44121189D01*
X98769141Y-43960285D01*
X98582734Y-43829763D01*
X98582732Y-43829762D01*
X98376497Y-43733592D01*
X98376488Y-43733589D01*
X98156697Y-43674697D01*
X98156693Y-43674696D01*
X98156692Y-43674696D01*
X98156691Y-43674695D01*
X98156686Y-43674695D01*
X97930002Y-43654863D01*
X97929998Y-43654863D01*
X97703313Y-43674695D01*
X97703302Y-43674697D01*
X97483511Y-43733589D01*
X97483502Y-43733592D01*
X97277267Y-43829762D01*
X97277265Y-43829763D01*
X97090858Y-43960285D01*
X96929954Y-44121189D01*
X96799432Y-44307596D01*
X96799431Y-44307598D01*
X96703261Y-44513833D01*
X96703258Y-44513842D01*
X96664775Y-44657467D01*
X96628410Y-44717128D01*
X96565563Y-44747657D01*
X96496188Y-44739362D01*
X96442310Y-44694877D01*
X96425225Y-44657467D01*
X96386741Y-44513842D01*
X96386738Y-44513833D01*
X96368933Y-44475651D01*
X96290568Y-44307597D01*
X96160047Y-44121192D01*
X96160045Y-44121189D01*
X95999141Y-43960285D01*
X95812734Y-43829763D01*
X95812732Y-43829762D01*
X95606497Y-43733592D01*
X95606488Y-43733589D01*
X95386697Y-43674697D01*
X95386693Y-43674696D01*
X95386692Y-43674696D01*
X95386691Y-43674695D01*
X95386686Y-43674695D01*
X95160002Y-43654863D01*
X95159998Y-43654863D01*
X94933313Y-43674695D01*
X94933302Y-43674697D01*
X94713511Y-43733589D01*
X94713502Y-43733592D01*
X94507267Y-43829762D01*
X94507265Y-43829763D01*
X94320858Y-43960285D01*
X94159954Y-44121189D01*
X94029432Y-44307596D01*
X94029431Y-44307598D01*
X93933261Y-44513833D01*
X93933259Y-44513839D01*
X93894516Y-44658433D01*
X93858151Y-44718093D01*
X93795304Y-44748622D01*
X93725928Y-44740327D01*
X93672050Y-44695842D01*
X93654966Y-44658432D01*
X93616269Y-44514013D01*
X93616265Y-44514004D01*
X93520133Y-44307847D01*
X93520131Y-44307843D01*
X93469025Y-44234857D01*
X92998949Y-44704934D01*
X92937626Y-44738419D01*
X92867934Y-44733435D01*
X92812001Y-44691563D01*
X92806952Y-44684292D01*
X92771761Y-44629533D01*
X92663100Y-44535379D01*
X92663099Y-44535378D01*
X92656398Y-44529572D01*
X92658698Y-44526916D01*
X92623960Y-44486759D01*
X92614074Y-44417592D01*
X92643152Y-44354060D01*
X92649116Y-44347660D01*
X93115472Y-43881304D01*
X93042483Y-43830197D01*
X93042481Y-43830196D01*
X92836326Y-43734065D01*
X92836317Y-43734061D01*
X92616610Y-43675191D01*
X92616599Y-43675189D01*
X92390002Y-43655365D01*
X92389998Y-43655365D01*
X92163400Y-43675189D01*
X92163389Y-43675191D01*
X91943682Y-43734061D01*
X91943673Y-43734065D01*
X91737513Y-43830199D01*
X91664526Y-43881304D01*
X92130883Y-44347661D01*
X92164368Y-44408984D01*
X92159384Y-44478676D01*
X92122357Y-44528136D01*
X92123602Y-44529572D01*
X92008237Y-44629534D01*
X91973046Y-44684293D01*
X91920242Y-44730048D01*
X91851084Y-44739992D01*
X91787528Y-44710967D01*
X91781050Y-44704935D01*
X91310973Y-44234857D01*
X91310972Y-44234858D01*
X91259868Y-44307844D01*
X91163734Y-44514004D01*
X91163731Y-44514011D01*
X91125033Y-44658433D01*
X91088667Y-44718093D01*
X91025820Y-44748622D01*
X90956445Y-44740327D01*
X90902567Y-44695841D01*
X90885484Y-44658434D01*
X90846784Y-44514004D01*
X90846741Y-44513842D01*
X90846738Y-44513833D01*
X90828933Y-44475651D01*
X90750568Y-44307597D01*
X90620047Y-44121192D01*
X90620045Y-44121189D01*
X90459141Y-43960285D01*
X90272734Y-43829763D01*
X90272732Y-43829762D01*
X90066497Y-43733592D01*
X90066488Y-43733589D01*
X89846697Y-43674697D01*
X89846693Y-43674696D01*
X89846692Y-43674696D01*
X89846691Y-43674695D01*
X89846686Y-43674695D01*
X89620002Y-43654863D01*
X89619998Y-43654863D01*
X89393313Y-43674695D01*
X89393302Y-43674697D01*
X89173511Y-43733589D01*
X89173502Y-43733592D01*
X88967267Y-43829762D01*
X88967265Y-43829763D01*
X88780858Y-43960285D01*
X88619954Y-44121189D01*
X88489432Y-44307596D01*
X88489431Y-44307598D01*
X88393261Y-44513833D01*
X88393258Y-44513842D01*
X88334366Y-44733633D01*
X88334364Y-44733644D01*
X88314532Y-44960329D01*
X88314532Y-44960332D01*
X83339776Y-44960332D01*
X83306542Y-44907963D01*
X83306539Y-44907959D01*
X83215712Y-44798169D01*
X82672586Y-45341296D01*
X82611263Y-45374781D01*
X82541571Y-45369797D01*
X82490615Y-45334147D01*
X82429190Y-45262228D01*
X82414870Y-45245461D01*
X82326179Y-45169712D01*
X82287989Y-45111209D01*
X82287489Y-45041341D01*
X82319032Y-44987744D01*
X82865027Y-44441750D01*
X82865026Y-44441748D01*
X82622227Y-44265345D01*
X82622209Y-44265334D01*
X82346552Y-44113790D01*
X82346544Y-44113786D01*
X82054073Y-43997990D01*
X81749379Y-43919757D01*
X81749370Y-43919755D01*
X81437298Y-43880331D01*
X81122701Y-43880331D01*
X80810629Y-43919755D01*
X80810620Y-43919757D01*
X80505926Y-43997990D01*
X80213455Y-44113786D01*
X80213447Y-44113790D01*
X79937787Y-44265335D01*
X79937782Y-44265338D01*
X79694972Y-44441749D01*
X79694971Y-44441750D01*
X80240966Y-44987744D01*
X80274451Y-45049067D01*
X80269467Y-45118758D01*
X80233817Y-45169715D01*
X80145130Y-45245461D01*
X80069384Y-45334148D01*
X80010877Y-45372341D01*
X79941009Y-45372839D01*
X79887413Y-45341297D01*
X79344286Y-44798169D01*
X79344285Y-44798169D01*
X79253459Y-44907960D01*
X79253457Y-44907963D01*
X79084903Y-45173563D01*
X79084900Y-45173569D01*
X78950965Y-45458193D01*
X78950963Y-45458198D01*
X78853755Y-45757372D01*
X78794808Y-46066381D01*
X78794807Y-46066388D01*
X78775057Y-46380325D01*
X78775057Y-46380336D01*
X71000000Y-46380336D01*
X71000000Y-38588678D01*
X71395700Y-38588678D01*
X71426044Y-38941961D01*
X71426047Y-38941983D01*
X71496459Y-39289479D01*
X71496465Y-39289501D01*
X71606038Y-39626729D01*
X71753333Y-39949261D01*
X71753338Y-39949271D01*
X71936434Y-40252901D01*
X71936438Y-40252906D01*
X71936443Y-40252915D01*
X71936448Y-40252921D01*
X72152963Y-40533704D01*
X72152975Y-40533718D01*
X72400086Y-40787988D01*
X72400095Y-40787997D01*
X72674595Y-41012455D01*
X72674597Y-41012456D01*
X72972875Y-41204150D01*
X72972881Y-41204153D01*
X72972883Y-41204154D01*
X72972891Y-41204159D01*
X73291096Y-41360609D01*
X73625061Y-41479768D01*
X73970432Y-41560080D01*
X74256953Y-41592955D01*
X74322705Y-41600500D01*
X74322707Y-41600500D01*
X74588578Y-41600500D01*
X74677053Y-41595440D01*
X74854008Y-41585322D01*
X75203400Y-41524857D01*
X75543623Y-41424959D01*
X75870241Y-41286929D01*
X76178995Y-41112568D01*
X76465861Y-40904147D01*
X76727099Y-40664385D01*
X76959304Y-40396407D01*
X77159448Y-40103706D01*
X77324921Y-39790098D01*
X77453568Y-39459672D01*
X77498301Y-39289492D01*
X77543709Y-39116739D01*
X77543710Y-39116736D01*
X77594173Y-38765759D01*
X77599232Y-38588678D01*
X118895700Y-38588678D01*
X118926044Y-38941961D01*
X118926047Y-38941983D01*
X118996459Y-39289479D01*
X118996465Y-39289501D01*
X119106038Y-39626729D01*
X119253333Y-39949261D01*
X119253338Y-39949271D01*
X119436434Y-40252901D01*
X119436438Y-40252906D01*
X119436443Y-40252915D01*
X119436448Y-40252921D01*
X119652963Y-40533704D01*
X119652975Y-40533718D01*
X119900086Y-40787988D01*
X119900095Y-40787997D01*
X120174595Y-41012455D01*
X120174597Y-41012456D01*
X120472875Y-41204150D01*
X120472881Y-41204153D01*
X120472883Y-41204154D01*
X120472891Y-41204159D01*
X120791096Y-41360609D01*
X121125061Y-41479768D01*
X121470432Y-41560080D01*
X121756953Y-41592955D01*
X121822705Y-41600500D01*
X121822707Y-41600500D01*
X122088578Y-41600500D01*
X122177053Y-41595440D01*
X122354008Y-41585322D01*
X122703400Y-41524857D01*
X123043623Y-41424959D01*
X123370241Y-41286929D01*
X123678995Y-41112568D01*
X123965861Y-40904147D01*
X124227099Y-40664385D01*
X124459304Y-40396407D01*
X124659448Y-40103706D01*
X124824921Y-39790098D01*
X124953568Y-39459672D01*
X124998301Y-39289492D01*
X125043709Y-39116739D01*
X125043710Y-39116736D01*
X125094173Y-38765759D01*
X125101751Y-38500500D01*
X125104299Y-38411328D01*
X125104299Y-38411317D01*
X125104298Y-38411317D01*
X125073955Y-38058032D01*
X125073952Y-38058016D01*
X125003540Y-37710520D01*
X125003534Y-37710498D01*
X124918250Y-37448023D01*
X124893964Y-37373277D01*
X124819357Y-37209911D01*
X124746666Y-37050738D01*
X124746661Y-37050728D01*
X124563565Y-36747098D01*
X124563563Y-36747096D01*
X124563557Y-36747085D01*
X124452908Y-36603593D01*
X124347036Y-36466295D01*
X124347024Y-36466281D01*
X124099913Y-36212011D01*
X124099910Y-36212008D01*
X124099905Y-36212003D01*
X123825405Y-35987545D01*
X123825402Y-35987543D01*
X123527124Y-35795849D01*
X123527118Y-35795846D01*
X123527112Y-35795843D01*
X123527109Y-35795841D01*
X123208904Y-35639391D01*
X123208900Y-35639389D01*
X123208899Y-35639389D01*
X122874940Y-35520232D01*
X122630480Y-35463386D01*
X122529568Y-35439920D01*
X122412142Y-35426446D01*
X122177295Y-35399500D01*
X122177293Y-35399500D01*
X121911424Y-35399500D01*
X121911422Y-35399500D01*
X121645995Y-35414677D01*
X121296608Y-35475141D01*
X121296591Y-35475145D01*
X121005126Y-35560727D01*
X120956377Y-35575041D01*
X120804107Y-35639391D01*
X120629766Y-35713068D01*
X120629761Y-35713070D01*
X120321005Y-35887431D01*
X120321002Y-35887433D01*
X120034138Y-36095853D01*
X119772901Y-36335615D01*
X119772900Y-36335616D01*
X119540695Y-36603593D01*
X119340555Y-36896288D01*
X119340548Y-36896299D01*
X119175085Y-37209889D01*
X119175075Y-37209911D01*
X119046429Y-37540333D01*
X118956290Y-37883260D01*
X118905828Y-38234233D01*
X118905826Y-38234253D01*
X118895700Y-38588671D01*
X118895700Y-38588678D01*
X77599232Y-38588678D01*
X77601751Y-38500500D01*
X77604299Y-38411328D01*
X77604299Y-38411317D01*
X77604298Y-38411317D01*
X77573955Y-38058032D01*
X77573952Y-38058016D01*
X77503540Y-37710520D01*
X77503534Y-37710498D01*
X77418250Y-37448023D01*
X77393964Y-37373277D01*
X77319357Y-37209911D01*
X77246666Y-37050738D01*
X77246661Y-37050728D01*
X77063565Y-36747098D01*
X77063563Y-36747096D01*
X77063557Y-36747085D01*
X76952908Y-36603593D01*
X76847036Y-36466295D01*
X76847024Y-36466281D01*
X76599913Y-36212011D01*
X76599910Y-36212008D01*
X76599905Y-36212003D01*
X76325405Y-35987545D01*
X76325402Y-35987543D01*
X76027124Y-35795849D01*
X76027118Y-35795846D01*
X76027112Y-35795843D01*
X76027109Y-35795841D01*
X75708904Y-35639391D01*
X75708900Y-35639389D01*
X75708899Y-35639389D01*
X75374940Y-35520232D01*
X75130480Y-35463386D01*
X75029568Y-35439920D01*
X74912142Y-35426446D01*
X74677295Y-35399500D01*
X74677293Y-35399500D01*
X74411424Y-35399500D01*
X74411422Y-35399500D01*
X74145995Y-35414677D01*
X73796608Y-35475141D01*
X73796591Y-35475145D01*
X73505126Y-35560727D01*
X73456377Y-35575041D01*
X73304107Y-35639391D01*
X73129766Y-35713068D01*
X73129761Y-35713070D01*
X72821005Y-35887431D01*
X72821002Y-35887433D01*
X72534138Y-36095853D01*
X72272901Y-36335615D01*
X72272900Y-36335616D01*
X72040695Y-36603593D01*
X71840555Y-36896288D01*
X71840548Y-36896299D01*
X71675085Y-37209889D01*
X71675075Y-37209911D01*
X71546429Y-37540333D01*
X71456290Y-37883260D01*
X71405828Y-38234233D01*
X71405826Y-38234253D01*
X71395700Y-38588671D01*
X71395700Y-38588678D01*
X71000000Y-38588678D01*
X71000000Y-38041232D01*
X71001342Y-38023038D01*
X71008687Y-37973520D01*
X71036927Y-37795220D01*
X71038008Y-37789922D01*
X71080765Y-37619226D01*
X71126644Y-37448002D01*
X71128137Y-37443220D01*
X71187974Y-37275987D01*
X71251054Y-37111661D01*
X71252860Y-37107440D01*
X71329180Y-36946076D01*
X71408863Y-36789689D01*
X71410895Y-36786020D01*
X71502978Y-36632388D01*
X71598448Y-36485377D01*
X71600629Y-36482239D01*
X71612465Y-36466281D01*
X71707580Y-36338032D01*
X71709538Y-36335616D01*
X71817912Y-36201784D01*
X71820068Y-36199269D01*
X71939903Y-36067051D01*
X71941916Y-36064937D01*
X72064937Y-35941916D01*
X72067051Y-35939903D01*
X72199269Y-35820068D01*
X72201784Y-35817912D01*
X72338036Y-35707578D01*
X72482249Y-35600621D01*
X72485377Y-35598448D01*
X72632385Y-35502980D01*
X72786020Y-35410895D01*
X72789689Y-35408863D01*
X72946076Y-35329180D01*
X73107440Y-35252860D01*
X73111661Y-35251054D01*
X73275987Y-35187974D01*
X73443220Y-35128137D01*
X73448002Y-35126644D01*
X73619181Y-35080776D01*
X73789922Y-35038008D01*
X73795220Y-35036927D01*
X73973513Y-35008688D01*
X74023040Y-35001341D01*
X74041233Y-35000000D01*
X122458766Y-35000000D01*
X122476960Y-35001342D01*
G37*
G04 #@! TD.AperFunction*
M02*
