G04 #@! TF.GenerationSoftware,KiCad,Pcbnew,7.0.7*
G04 #@! TF.CreationDate,2023-10-03T13:22:08+10:00*
G04 #@! TF.ProjectId,grbl_controller,6772626c-5f63-46f6-9e74-726f6c6c6572,rev?*
G04 #@! TF.SameCoordinates,Original*
G04 #@! TF.FileFunction,Legend,Top*
G04 #@! TF.FilePolarity,Positive*
%FSLAX46Y46*%
G04 Gerber Fmt 4.6, Leading zero omitted, Abs format (unit mm)*
G04 Created by KiCad (PCBNEW 7.0.7) date 2023-10-03 13:22:08*
%MOMM*%
%LPD*%
G01*
G04 APERTURE LIST*
G04 Aperture macros list*
%AMRoundRect*
0 Rectangle with rounded corners*
0 $1 Rounding radius*
0 $2 $3 $4 $5 $6 $7 $8 $9 X,Y pos of 4 corners*
0 Add a 4 corners polygon primitive as box body*
4,1,4,$2,$3,$4,$5,$6,$7,$8,$9,$2,$3,0*
0 Add four circle primitives for the rounded corners*
1,1,$1+$1,$2,$3*
1,1,$1+$1,$4,$5*
1,1,$1+$1,$6,$7*
1,1,$1+$1,$8,$9*
0 Add four rect primitives between the rounded corners*
20,1,$1+$1,$2,$3,$4,$5,0*
20,1,$1+$1,$4,$5,$6,$7,0*
20,1,$1+$1,$6,$7,$8,$9,0*
20,1,$1+$1,$8,$9,$2,$3,0*%
G04 Aperture macros list end*
%ADD10C,0.500000*%
%ADD11C,0.150000*%
%ADD12C,0.120000*%
%ADD13RoundRect,0.250000X0.450000X-0.262500X0.450000X0.262500X-0.450000X0.262500X-0.450000X-0.262500X0*%
%ADD14R,1.600000X1.600000*%
%ADD15O,1.600000X1.600000*%
%ADD16RoundRect,0.225000X0.375000X-0.225000X0.375000X0.225000X-0.375000X0.225000X-0.375000X-0.225000X0*%
%ADD17RoundRect,0.250000X-0.475000X0.250000X-0.475000X-0.250000X0.475000X-0.250000X0.475000X0.250000X0*%
%ADD18C,3.200000*%
%ADD19RoundRect,0.150000X-0.150000X0.825000X-0.150000X-0.825000X0.150000X-0.825000X0.150000X0.825000X0*%
%ADD20C,4.000000*%
%ADD21C,1.600000*%
%ADD22RoundRect,0.150000X0.150000X-0.825000X0.150000X0.825000X-0.150000X0.825000X-0.150000X-0.825000X0*%
%ADD23C,6.000000*%
%ADD24R,2.400000X1.600000*%
%ADD25O,2.400000X1.600000*%
%ADD26RoundRect,0.250000X0.475000X-0.250000X0.475000X0.250000X-0.475000X0.250000X-0.475000X-0.250000X0*%
G04 APERTURE END LIST*
D10*
X120106857Y-97492481D02*
X120106857Y-95492481D01*
X120106857Y-95492481D02*
X123106857Y-97492481D01*
X123106857Y-97492481D02*
X123106857Y-95492481D01*
X120106857Y-93778195D02*
X120106857Y-93206767D01*
X120106857Y-93206767D02*
X120249714Y-92921052D01*
X120249714Y-92921052D02*
X120535428Y-92635338D01*
X120535428Y-92635338D02*
X121106857Y-92492481D01*
X121106857Y-92492481D02*
X122106857Y-92492481D01*
X122106857Y-92492481D02*
X122678285Y-92635338D01*
X122678285Y-92635338D02*
X122964000Y-92921052D01*
X122964000Y-92921052D02*
X123106857Y-93206767D01*
X123106857Y-93206767D02*
X123106857Y-93778195D01*
X123106857Y-93778195D02*
X122964000Y-94063910D01*
X122964000Y-94063910D02*
X122678285Y-94349624D01*
X122678285Y-94349624D02*
X122106857Y-94492481D01*
X122106857Y-94492481D02*
X121106857Y-94492481D01*
X121106857Y-94492481D02*
X120535428Y-94349624D01*
X120535428Y-94349624D02*
X120249714Y-94063910D01*
X120249714Y-94063910D02*
X120106857Y-93778195D01*
X123106857Y-91206767D02*
X120106857Y-91206767D01*
X120106857Y-91206767D02*
X122249714Y-90206767D01*
X122249714Y-90206767D02*
X120106857Y-89206767D01*
X120106857Y-89206767D02*
X123106857Y-89206767D01*
X121535428Y-86778196D02*
X121678285Y-86349624D01*
X121678285Y-86349624D02*
X121821142Y-86206767D01*
X121821142Y-86206767D02*
X122106857Y-86063910D01*
X122106857Y-86063910D02*
X122535428Y-86063910D01*
X122535428Y-86063910D02*
X122821142Y-86206767D01*
X122821142Y-86206767D02*
X122964000Y-86349624D01*
X122964000Y-86349624D02*
X123106857Y-86635339D01*
X123106857Y-86635339D02*
X123106857Y-87778196D01*
X123106857Y-87778196D02*
X120106857Y-87778196D01*
X120106857Y-87778196D02*
X120106857Y-86778196D01*
X120106857Y-86778196D02*
X120249714Y-86492482D01*
X120249714Y-86492482D02*
X120392571Y-86349624D01*
X120392571Y-86349624D02*
X120678285Y-86206767D01*
X120678285Y-86206767D02*
X120964000Y-86206767D01*
X120964000Y-86206767D02*
X121249714Y-86349624D01*
X121249714Y-86349624D02*
X121392571Y-86492482D01*
X121392571Y-86492482D02*
X121535428Y-86778196D01*
X121535428Y-86778196D02*
X121535428Y-87778196D01*
X123106857Y-84778196D02*
X120106857Y-84778196D01*
X121535428Y-83349625D02*
X121535428Y-82349625D01*
X123106857Y-81921053D02*
X123106857Y-83349625D01*
X123106857Y-83349625D02*
X120106857Y-83349625D01*
X120106857Y-83349625D02*
X120106857Y-81921053D01*
X120249714Y-76778196D02*
X120106857Y-77063911D01*
X120106857Y-77063911D02*
X120106857Y-77492482D01*
X120106857Y-77492482D02*
X120249714Y-77921053D01*
X120249714Y-77921053D02*
X120535428Y-78206768D01*
X120535428Y-78206768D02*
X120821142Y-78349625D01*
X120821142Y-78349625D02*
X121392571Y-78492482D01*
X121392571Y-78492482D02*
X121821142Y-78492482D01*
X121821142Y-78492482D02*
X122392571Y-78349625D01*
X122392571Y-78349625D02*
X122678285Y-78206768D01*
X122678285Y-78206768D02*
X122964000Y-77921053D01*
X122964000Y-77921053D02*
X123106857Y-77492482D01*
X123106857Y-77492482D02*
X123106857Y-77206768D01*
X123106857Y-77206768D02*
X122964000Y-76778196D01*
X122964000Y-76778196D02*
X122821142Y-76635339D01*
X122821142Y-76635339D02*
X121821142Y-76635339D01*
X121821142Y-76635339D02*
X121821142Y-77206768D01*
X123106857Y-73635339D02*
X121678285Y-74635339D01*
X123106857Y-75349625D02*
X120106857Y-75349625D01*
X120106857Y-75349625D02*
X120106857Y-74206768D01*
X120106857Y-74206768D02*
X120249714Y-73921053D01*
X120249714Y-73921053D02*
X120392571Y-73778196D01*
X120392571Y-73778196D02*
X120678285Y-73635339D01*
X120678285Y-73635339D02*
X121106857Y-73635339D01*
X121106857Y-73635339D02*
X121392571Y-73778196D01*
X121392571Y-73778196D02*
X121535428Y-73921053D01*
X121535428Y-73921053D02*
X121678285Y-74206768D01*
X121678285Y-74206768D02*
X121678285Y-75349625D01*
X121535428Y-71349625D02*
X121678285Y-70921053D01*
X121678285Y-70921053D02*
X121821142Y-70778196D01*
X121821142Y-70778196D02*
X122106857Y-70635339D01*
X122106857Y-70635339D02*
X122535428Y-70635339D01*
X122535428Y-70635339D02*
X122821142Y-70778196D01*
X122821142Y-70778196D02*
X122964000Y-70921053D01*
X122964000Y-70921053D02*
X123106857Y-71206768D01*
X123106857Y-71206768D02*
X123106857Y-72349625D01*
X123106857Y-72349625D02*
X120106857Y-72349625D01*
X120106857Y-72349625D02*
X120106857Y-71349625D01*
X120106857Y-71349625D02*
X120249714Y-71063911D01*
X120249714Y-71063911D02*
X120392571Y-70921053D01*
X120392571Y-70921053D02*
X120678285Y-70778196D01*
X120678285Y-70778196D02*
X120964000Y-70778196D01*
X120964000Y-70778196D02*
X121249714Y-70921053D01*
X121249714Y-70921053D02*
X121392571Y-71063911D01*
X121392571Y-71063911D02*
X121535428Y-71349625D01*
X121535428Y-71349625D02*
X121535428Y-72349625D01*
X123106857Y-67921053D02*
X123106857Y-69349625D01*
X123106857Y-69349625D02*
X120106857Y-69349625D01*
X120106857Y-65063911D02*
X123106857Y-64063911D01*
X123106857Y-64063911D02*
X120106857Y-63063911D01*
X120106857Y-61492482D02*
X120106857Y-61206768D01*
X120106857Y-61206768D02*
X120249714Y-60921054D01*
X120249714Y-60921054D02*
X120392571Y-60778197D01*
X120392571Y-60778197D02*
X120678285Y-60635339D01*
X120678285Y-60635339D02*
X121249714Y-60492482D01*
X121249714Y-60492482D02*
X121964000Y-60492482D01*
X121964000Y-60492482D02*
X122535428Y-60635339D01*
X122535428Y-60635339D02*
X122821142Y-60778197D01*
X122821142Y-60778197D02*
X122964000Y-60921054D01*
X122964000Y-60921054D02*
X123106857Y-61206768D01*
X123106857Y-61206768D02*
X123106857Y-61492482D01*
X123106857Y-61492482D02*
X122964000Y-61778197D01*
X122964000Y-61778197D02*
X122821142Y-61921054D01*
X122821142Y-61921054D02*
X122535428Y-62063911D01*
X122535428Y-62063911D02*
X121964000Y-62206768D01*
X121964000Y-62206768D02*
X121249714Y-62206768D01*
X121249714Y-62206768D02*
X120678285Y-62063911D01*
X120678285Y-62063911D02*
X120392571Y-61921054D01*
X120392571Y-61921054D02*
X120249714Y-61778197D01*
X120249714Y-61778197D02*
X120106857Y-61492482D01*
D11*
X93226189Y-111986009D02*
X92892856Y-111986009D01*
X92892856Y-112509819D02*
X92892856Y-111509819D01*
X92892856Y-111509819D02*
X93369046Y-111509819D01*
X94178570Y-111843152D02*
X94178570Y-112509819D01*
X93749999Y-111843152D02*
X93749999Y-112366961D01*
X93749999Y-112366961D02*
X93797618Y-112462200D01*
X93797618Y-112462200D02*
X93892856Y-112509819D01*
X93892856Y-112509819D02*
X94035713Y-112509819D01*
X94035713Y-112509819D02*
X94130951Y-112462200D01*
X94130951Y-112462200D02*
X94178570Y-112414580D01*
X94511904Y-111843152D02*
X94892856Y-111843152D01*
X94654761Y-111509819D02*
X94654761Y-112366961D01*
X94654761Y-112366961D02*
X94702380Y-112462200D01*
X94702380Y-112462200D02*
X94797618Y-112509819D01*
X94797618Y-112509819D02*
X94892856Y-112509819D01*
X95654761Y-111843152D02*
X95654761Y-112509819D01*
X95226190Y-111843152D02*
X95226190Y-112366961D01*
X95226190Y-112366961D02*
X95273809Y-112462200D01*
X95273809Y-112462200D02*
X95369047Y-112509819D01*
X95369047Y-112509819D02*
X95511904Y-112509819D01*
X95511904Y-112509819D02*
X95607142Y-112462200D01*
X95607142Y-112462200D02*
X95654761Y-112414580D01*
X96130952Y-112509819D02*
X96130952Y-111843152D01*
X96130952Y-112033628D02*
X96178571Y-111938390D01*
X96178571Y-111938390D02*
X96226190Y-111890771D01*
X96226190Y-111890771D02*
X96321428Y-111843152D01*
X96321428Y-111843152D02*
X96416666Y-111843152D01*
X97130952Y-112462200D02*
X97035714Y-112509819D01*
X97035714Y-112509819D02*
X96845238Y-112509819D01*
X96845238Y-112509819D02*
X96750000Y-112462200D01*
X96750000Y-112462200D02*
X96702381Y-112366961D01*
X96702381Y-112366961D02*
X96702381Y-111986009D01*
X96702381Y-111986009D02*
X96750000Y-111890771D01*
X96750000Y-111890771D02*
X96845238Y-111843152D01*
X96845238Y-111843152D02*
X97035714Y-111843152D01*
X97035714Y-111843152D02*
X97130952Y-111890771D01*
X97130952Y-111890771D02*
X97178571Y-111986009D01*
X97178571Y-111986009D02*
X97178571Y-112081247D01*
X97178571Y-112081247D02*
X96702381Y-112176485D01*
X97607143Y-112509819D02*
X97607143Y-111509819D01*
X97607143Y-111509819D02*
X97988095Y-111509819D01*
X97988095Y-111509819D02*
X98083333Y-111557438D01*
X98083333Y-111557438D02*
X98130952Y-111605057D01*
X98130952Y-111605057D02*
X98178571Y-111700295D01*
X98178571Y-111700295D02*
X98178571Y-111843152D01*
X98178571Y-111843152D02*
X98130952Y-111938390D01*
X98130952Y-111938390D02*
X98083333Y-111986009D01*
X98083333Y-111986009D02*
X97988095Y-112033628D01*
X97988095Y-112033628D02*
X97607143Y-112033628D01*
X98750000Y-112509819D02*
X98654762Y-112462200D01*
X98654762Y-112462200D02*
X98607143Y-112414580D01*
X98607143Y-112414580D02*
X98559524Y-112319342D01*
X98559524Y-112319342D02*
X98559524Y-112033628D01*
X98559524Y-112033628D02*
X98607143Y-111938390D01*
X98607143Y-111938390D02*
X98654762Y-111890771D01*
X98654762Y-111890771D02*
X98750000Y-111843152D01*
X98750000Y-111843152D02*
X98892857Y-111843152D01*
X98892857Y-111843152D02*
X98988095Y-111890771D01*
X98988095Y-111890771D02*
X99035714Y-111938390D01*
X99035714Y-111938390D02*
X99083333Y-112033628D01*
X99083333Y-112033628D02*
X99083333Y-112319342D01*
X99083333Y-112319342D02*
X99035714Y-112414580D01*
X99035714Y-112414580D02*
X98988095Y-112462200D01*
X98988095Y-112462200D02*
X98892857Y-112509819D01*
X98892857Y-112509819D02*
X98750000Y-112509819D01*
X99511905Y-112509819D02*
X99511905Y-111843152D01*
X99511905Y-111509819D02*
X99464286Y-111557438D01*
X99464286Y-111557438D02*
X99511905Y-111605057D01*
X99511905Y-111605057D02*
X99559524Y-111557438D01*
X99559524Y-111557438D02*
X99511905Y-111509819D01*
X99511905Y-111509819D02*
X99511905Y-111605057D01*
X99988095Y-111843152D02*
X99988095Y-112509819D01*
X99988095Y-111938390D02*
X100035714Y-111890771D01*
X100035714Y-111890771D02*
X100130952Y-111843152D01*
X100130952Y-111843152D02*
X100273809Y-111843152D01*
X100273809Y-111843152D02*
X100369047Y-111890771D01*
X100369047Y-111890771D02*
X100416666Y-111986009D01*
X100416666Y-111986009D02*
X100416666Y-112509819D01*
X100750000Y-111843152D02*
X101130952Y-111843152D01*
X100892857Y-111509819D02*
X100892857Y-112366961D01*
X100892857Y-112366961D02*
X100940476Y-112462200D01*
X100940476Y-112462200D02*
X101035714Y-112509819D01*
X101035714Y-112509819D02*
X101130952Y-112509819D01*
X102178572Y-112462200D02*
X102321429Y-112509819D01*
X102321429Y-112509819D02*
X102559524Y-112509819D01*
X102559524Y-112509819D02*
X102654762Y-112462200D01*
X102654762Y-112462200D02*
X102702381Y-112414580D01*
X102702381Y-112414580D02*
X102750000Y-112319342D01*
X102750000Y-112319342D02*
X102750000Y-112224104D01*
X102750000Y-112224104D02*
X102702381Y-112128866D01*
X102702381Y-112128866D02*
X102654762Y-112081247D01*
X102654762Y-112081247D02*
X102559524Y-112033628D01*
X102559524Y-112033628D02*
X102369048Y-111986009D01*
X102369048Y-111986009D02*
X102273810Y-111938390D01*
X102273810Y-111938390D02*
X102226191Y-111890771D01*
X102226191Y-111890771D02*
X102178572Y-111795533D01*
X102178572Y-111795533D02*
X102178572Y-111700295D01*
X102178572Y-111700295D02*
X102226191Y-111605057D01*
X102226191Y-111605057D02*
X102273810Y-111557438D01*
X102273810Y-111557438D02*
X102369048Y-111509819D01*
X102369048Y-111509819D02*
X102607143Y-111509819D01*
X102607143Y-111509819D02*
X102750000Y-111557438D01*
X103083334Y-111843152D02*
X103321429Y-112509819D01*
X103559524Y-111843152D02*
X103321429Y-112509819D01*
X103321429Y-112509819D02*
X103226191Y-112747914D01*
X103226191Y-112747914D02*
X103178572Y-112795533D01*
X103178572Y-112795533D02*
X103083334Y-112843152D01*
X103892858Y-112462200D02*
X103988096Y-112509819D01*
X103988096Y-112509819D02*
X104178572Y-112509819D01*
X104178572Y-112509819D02*
X104273810Y-112462200D01*
X104273810Y-112462200D02*
X104321429Y-112366961D01*
X104321429Y-112366961D02*
X104321429Y-112319342D01*
X104321429Y-112319342D02*
X104273810Y-112224104D01*
X104273810Y-112224104D02*
X104178572Y-112176485D01*
X104178572Y-112176485D02*
X104035715Y-112176485D01*
X104035715Y-112176485D02*
X103940477Y-112128866D01*
X103940477Y-112128866D02*
X103892858Y-112033628D01*
X103892858Y-112033628D02*
X103892858Y-111986009D01*
X103892858Y-111986009D02*
X103940477Y-111890771D01*
X103940477Y-111890771D02*
X104035715Y-111843152D01*
X104035715Y-111843152D02*
X104178572Y-111843152D01*
X104178572Y-111843152D02*
X104273810Y-111890771D01*
X104607144Y-111843152D02*
X104988096Y-111843152D01*
X104750001Y-111509819D02*
X104750001Y-112366961D01*
X104750001Y-112366961D02*
X104797620Y-112462200D01*
X104797620Y-112462200D02*
X104892858Y-112509819D01*
X104892858Y-112509819D02*
X104988096Y-112509819D01*
X105702382Y-112462200D02*
X105607144Y-112509819D01*
X105607144Y-112509819D02*
X105416668Y-112509819D01*
X105416668Y-112509819D02*
X105321430Y-112462200D01*
X105321430Y-112462200D02*
X105273811Y-112366961D01*
X105273811Y-112366961D02*
X105273811Y-111986009D01*
X105273811Y-111986009D02*
X105321430Y-111890771D01*
X105321430Y-111890771D02*
X105416668Y-111843152D01*
X105416668Y-111843152D02*
X105607144Y-111843152D01*
X105607144Y-111843152D02*
X105702382Y-111890771D01*
X105702382Y-111890771D02*
X105750001Y-111986009D01*
X105750001Y-111986009D02*
X105750001Y-112081247D01*
X105750001Y-112081247D02*
X105273811Y-112176485D01*
X106178573Y-112509819D02*
X106178573Y-111843152D01*
X106178573Y-111938390D02*
X106226192Y-111890771D01*
X106226192Y-111890771D02*
X106321430Y-111843152D01*
X106321430Y-111843152D02*
X106464287Y-111843152D01*
X106464287Y-111843152D02*
X106559525Y-111890771D01*
X106559525Y-111890771D02*
X106607144Y-111986009D01*
X106607144Y-111986009D02*
X106607144Y-112509819D01*
X106607144Y-111986009D02*
X106654763Y-111890771D01*
X106654763Y-111890771D02*
X106750001Y-111843152D01*
X106750001Y-111843152D02*
X106892858Y-111843152D01*
X106892858Y-111843152D02*
X106988097Y-111890771D01*
X106988097Y-111890771D02*
X107035716Y-111986009D01*
X107035716Y-111986009D02*
X107035716Y-112509819D01*
X107464287Y-112462200D02*
X107559525Y-112509819D01*
X107559525Y-112509819D02*
X107750001Y-112509819D01*
X107750001Y-112509819D02*
X107845239Y-112462200D01*
X107845239Y-112462200D02*
X107892858Y-112366961D01*
X107892858Y-112366961D02*
X107892858Y-112319342D01*
X107892858Y-112319342D02*
X107845239Y-112224104D01*
X107845239Y-112224104D02*
X107750001Y-112176485D01*
X107750001Y-112176485D02*
X107607144Y-112176485D01*
X107607144Y-112176485D02*
X107511906Y-112128866D01*
X107511906Y-112128866D02*
X107464287Y-112033628D01*
X107464287Y-112033628D02*
X107464287Y-111986009D01*
X107464287Y-111986009D02*
X107511906Y-111890771D01*
X107511906Y-111890771D02*
X107607144Y-111843152D01*
X107607144Y-111843152D02*
X107750001Y-111843152D01*
X107750001Y-111843152D02*
X107845239Y-111890771D01*
X90607141Y-113215057D02*
X90654760Y-113167438D01*
X90654760Y-113167438D02*
X90749998Y-113119819D01*
X90749998Y-113119819D02*
X90988093Y-113119819D01*
X90988093Y-113119819D02*
X91083331Y-113167438D01*
X91083331Y-113167438D02*
X91130950Y-113215057D01*
X91130950Y-113215057D02*
X91178569Y-113310295D01*
X91178569Y-113310295D02*
X91178569Y-113405533D01*
X91178569Y-113405533D02*
X91130950Y-113548390D01*
X91130950Y-113548390D02*
X90559522Y-114119819D01*
X90559522Y-114119819D02*
X91178569Y-114119819D01*
X91797617Y-113119819D02*
X91892855Y-113119819D01*
X91892855Y-113119819D02*
X91988093Y-113167438D01*
X91988093Y-113167438D02*
X92035712Y-113215057D01*
X92035712Y-113215057D02*
X92083331Y-113310295D01*
X92083331Y-113310295D02*
X92130950Y-113500771D01*
X92130950Y-113500771D02*
X92130950Y-113738866D01*
X92130950Y-113738866D02*
X92083331Y-113929342D01*
X92083331Y-113929342D02*
X92035712Y-114024580D01*
X92035712Y-114024580D02*
X91988093Y-114072200D01*
X91988093Y-114072200D02*
X91892855Y-114119819D01*
X91892855Y-114119819D02*
X91797617Y-114119819D01*
X91797617Y-114119819D02*
X91702379Y-114072200D01*
X91702379Y-114072200D02*
X91654760Y-114024580D01*
X91654760Y-114024580D02*
X91607141Y-113929342D01*
X91607141Y-113929342D02*
X91559522Y-113738866D01*
X91559522Y-113738866D02*
X91559522Y-113500771D01*
X91559522Y-113500771D02*
X91607141Y-113310295D01*
X91607141Y-113310295D02*
X91654760Y-113215057D01*
X91654760Y-113215057D02*
X91702379Y-113167438D01*
X91702379Y-113167438D02*
X91797617Y-113119819D01*
X92511903Y-113215057D02*
X92559522Y-113167438D01*
X92559522Y-113167438D02*
X92654760Y-113119819D01*
X92654760Y-113119819D02*
X92892855Y-113119819D01*
X92892855Y-113119819D02*
X92988093Y-113167438D01*
X92988093Y-113167438D02*
X93035712Y-113215057D01*
X93035712Y-113215057D02*
X93083331Y-113310295D01*
X93083331Y-113310295D02*
X93083331Y-113405533D01*
X93083331Y-113405533D02*
X93035712Y-113548390D01*
X93035712Y-113548390D02*
X92464284Y-114119819D01*
X92464284Y-114119819D02*
X93083331Y-114119819D01*
X93416665Y-113119819D02*
X94035712Y-113119819D01*
X94035712Y-113119819D02*
X93702379Y-113500771D01*
X93702379Y-113500771D02*
X93845236Y-113500771D01*
X93845236Y-113500771D02*
X93940474Y-113548390D01*
X93940474Y-113548390D02*
X93988093Y-113596009D01*
X93988093Y-113596009D02*
X94035712Y-113691247D01*
X94035712Y-113691247D02*
X94035712Y-113929342D01*
X94035712Y-113929342D02*
X93988093Y-114024580D01*
X93988093Y-114024580D02*
X93940474Y-114072200D01*
X93940474Y-114072200D02*
X93845236Y-114119819D01*
X93845236Y-114119819D02*
X93559522Y-114119819D01*
X93559522Y-114119819D02*
X93464284Y-114072200D01*
X93464284Y-114072200D02*
X93416665Y-114024580D01*
X95749998Y-113167438D02*
X95654760Y-113119819D01*
X95654760Y-113119819D02*
X95511903Y-113119819D01*
X95511903Y-113119819D02*
X95369046Y-113167438D01*
X95369046Y-113167438D02*
X95273808Y-113262676D01*
X95273808Y-113262676D02*
X95226189Y-113357914D01*
X95226189Y-113357914D02*
X95178570Y-113548390D01*
X95178570Y-113548390D02*
X95178570Y-113691247D01*
X95178570Y-113691247D02*
X95226189Y-113881723D01*
X95226189Y-113881723D02*
X95273808Y-113976961D01*
X95273808Y-113976961D02*
X95369046Y-114072200D01*
X95369046Y-114072200D02*
X95511903Y-114119819D01*
X95511903Y-114119819D02*
X95607141Y-114119819D01*
X95607141Y-114119819D02*
X95749998Y-114072200D01*
X95749998Y-114072200D02*
X95797617Y-114024580D01*
X95797617Y-114024580D02*
X95797617Y-113691247D01*
X95797617Y-113691247D02*
X95607141Y-113691247D01*
X96369046Y-114119819D02*
X96273808Y-114072200D01*
X96273808Y-114072200D02*
X96226189Y-114024580D01*
X96226189Y-114024580D02*
X96178570Y-113929342D01*
X96178570Y-113929342D02*
X96178570Y-113643628D01*
X96178570Y-113643628D02*
X96226189Y-113548390D01*
X96226189Y-113548390D02*
X96273808Y-113500771D01*
X96273808Y-113500771D02*
X96369046Y-113453152D01*
X96369046Y-113453152D02*
X96511903Y-113453152D01*
X96511903Y-113453152D02*
X96607141Y-113500771D01*
X96607141Y-113500771D02*
X96654760Y-113548390D01*
X96654760Y-113548390D02*
X96702379Y-113643628D01*
X96702379Y-113643628D02*
X96702379Y-113929342D01*
X96702379Y-113929342D02*
X96654760Y-114024580D01*
X96654760Y-114024580D02*
X96607141Y-114072200D01*
X96607141Y-114072200D02*
X96511903Y-114119819D01*
X96511903Y-114119819D02*
X96369046Y-114119819D01*
X97273808Y-114119819D02*
X97178570Y-114072200D01*
X97178570Y-114072200D02*
X97130951Y-113976961D01*
X97130951Y-113976961D02*
X97130951Y-113119819D01*
X98083332Y-114119819D02*
X98083332Y-113119819D01*
X98083332Y-114072200D02*
X97988094Y-114119819D01*
X97988094Y-114119819D02*
X97797618Y-114119819D01*
X97797618Y-114119819D02*
X97702380Y-114072200D01*
X97702380Y-114072200D02*
X97654761Y-114024580D01*
X97654761Y-114024580D02*
X97607142Y-113929342D01*
X97607142Y-113929342D02*
X97607142Y-113643628D01*
X97607142Y-113643628D02*
X97654761Y-113548390D01*
X97654761Y-113548390D02*
X97702380Y-113500771D01*
X97702380Y-113500771D02*
X97797618Y-113453152D01*
X97797618Y-113453152D02*
X97988094Y-113453152D01*
X97988094Y-113453152D02*
X98083332Y-113500771D01*
X99892856Y-114024580D02*
X99845237Y-114072200D01*
X99845237Y-114072200D02*
X99702380Y-114119819D01*
X99702380Y-114119819D02*
X99607142Y-114119819D01*
X99607142Y-114119819D02*
X99464285Y-114072200D01*
X99464285Y-114072200D02*
X99369047Y-113976961D01*
X99369047Y-113976961D02*
X99321428Y-113881723D01*
X99321428Y-113881723D02*
X99273809Y-113691247D01*
X99273809Y-113691247D02*
X99273809Y-113548390D01*
X99273809Y-113548390D02*
X99321428Y-113357914D01*
X99321428Y-113357914D02*
X99369047Y-113262676D01*
X99369047Y-113262676D02*
X99464285Y-113167438D01*
X99464285Y-113167438D02*
X99607142Y-113119819D01*
X99607142Y-113119819D02*
X99702380Y-113119819D01*
X99702380Y-113119819D02*
X99845237Y-113167438D01*
X99845237Y-113167438D02*
X99892856Y-113215057D01*
X100464285Y-114119819D02*
X100369047Y-114072200D01*
X100369047Y-114072200D02*
X100321428Y-114024580D01*
X100321428Y-114024580D02*
X100273809Y-113929342D01*
X100273809Y-113929342D02*
X100273809Y-113643628D01*
X100273809Y-113643628D02*
X100321428Y-113548390D01*
X100321428Y-113548390D02*
X100369047Y-113500771D01*
X100369047Y-113500771D02*
X100464285Y-113453152D01*
X100464285Y-113453152D02*
X100607142Y-113453152D01*
X100607142Y-113453152D02*
X100702380Y-113500771D01*
X100702380Y-113500771D02*
X100749999Y-113548390D01*
X100749999Y-113548390D02*
X100797618Y-113643628D01*
X100797618Y-113643628D02*
X100797618Y-113929342D01*
X100797618Y-113929342D02*
X100749999Y-114024580D01*
X100749999Y-114024580D02*
X100702380Y-114072200D01*
X100702380Y-114072200D02*
X100607142Y-114119819D01*
X100607142Y-114119819D02*
X100464285Y-114119819D01*
X101654761Y-114119819D02*
X101654761Y-113596009D01*
X101654761Y-113596009D02*
X101607142Y-113500771D01*
X101607142Y-113500771D02*
X101511904Y-113453152D01*
X101511904Y-113453152D02*
X101321428Y-113453152D01*
X101321428Y-113453152D02*
X101226190Y-113500771D01*
X101654761Y-114072200D02*
X101559523Y-114119819D01*
X101559523Y-114119819D02*
X101321428Y-114119819D01*
X101321428Y-114119819D02*
X101226190Y-114072200D01*
X101226190Y-114072200D02*
X101178571Y-113976961D01*
X101178571Y-113976961D02*
X101178571Y-113881723D01*
X101178571Y-113881723D02*
X101226190Y-113786485D01*
X101226190Y-113786485D02*
X101321428Y-113738866D01*
X101321428Y-113738866D02*
X101559523Y-113738866D01*
X101559523Y-113738866D02*
X101654761Y-113691247D01*
X102083333Y-114072200D02*
X102178571Y-114119819D01*
X102178571Y-114119819D02*
X102369047Y-114119819D01*
X102369047Y-114119819D02*
X102464285Y-114072200D01*
X102464285Y-114072200D02*
X102511904Y-113976961D01*
X102511904Y-113976961D02*
X102511904Y-113929342D01*
X102511904Y-113929342D02*
X102464285Y-113834104D01*
X102464285Y-113834104D02*
X102369047Y-113786485D01*
X102369047Y-113786485D02*
X102226190Y-113786485D01*
X102226190Y-113786485D02*
X102130952Y-113738866D01*
X102130952Y-113738866D02*
X102083333Y-113643628D01*
X102083333Y-113643628D02*
X102083333Y-113596009D01*
X102083333Y-113596009D02*
X102130952Y-113500771D01*
X102130952Y-113500771D02*
X102226190Y-113453152D01*
X102226190Y-113453152D02*
X102369047Y-113453152D01*
X102369047Y-113453152D02*
X102464285Y-113500771D01*
X102797619Y-113453152D02*
X103178571Y-113453152D01*
X102940476Y-113119819D02*
X102940476Y-113976961D01*
X102940476Y-113976961D02*
X102988095Y-114072200D01*
X102988095Y-114072200D02*
X103083333Y-114119819D01*
X103083333Y-114119819D02*
X103178571Y-114119819D01*
X103559524Y-114072200D02*
X103559524Y-114119819D01*
X103559524Y-114119819D02*
X103511905Y-114215057D01*
X103511905Y-114215057D02*
X103464286Y-114262676D01*
X104702381Y-113834104D02*
X105178571Y-113834104D01*
X104607143Y-114119819D02*
X104940476Y-113119819D01*
X104940476Y-113119819D02*
X105273809Y-114119819D01*
X106035714Y-113453152D02*
X106035714Y-114119819D01*
X105607143Y-113453152D02*
X105607143Y-113976961D01*
X105607143Y-113976961D02*
X105654762Y-114072200D01*
X105654762Y-114072200D02*
X105750000Y-114119819D01*
X105750000Y-114119819D02*
X105892857Y-114119819D01*
X105892857Y-114119819D02*
X105988095Y-114072200D01*
X105988095Y-114072200D02*
X106035714Y-114024580D01*
X106464286Y-114072200D02*
X106559524Y-114119819D01*
X106559524Y-114119819D02*
X106750000Y-114119819D01*
X106750000Y-114119819D02*
X106845238Y-114072200D01*
X106845238Y-114072200D02*
X106892857Y-113976961D01*
X106892857Y-113976961D02*
X106892857Y-113929342D01*
X106892857Y-113929342D02*
X106845238Y-113834104D01*
X106845238Y-113834104D02*
X106750000Y-113786485D01*
X106750000Y-113786485D02*
X106607143Y-113786485D01*
X106607143Y-113786485D02*
X106511905Y-113738866D01*
X106511905Y-113738866D02*
X106464286Y-113643628D01*
X106464286Y-113643628D02*
X106464286Y-113596009D01*
X106464286Y-113596009D02*
X106511905Y-113500771D01*
X106511905Y-113500771D02*
X106607143Y-113453152D01*
X106607143Y-113453152D02*
X106750000Y-113453152D01*
X106750000Y-113453152D02*
X106845238Y-113500771D01*
X107178572Y-113453152D02*
X107559524Y-113453152D01*
X107321429Y-113119819D02*
X107321429Y-113976961D01*
X107321429Y-113976961D02*
X107369048Y-114072200D01*
X107369048Y-114072200D02*
X107464286Y-114119819D01*
X107464286Y-114119819D02*
X107559524Y-114119819D01*
X107892858Y-114119819D02*
X107892858Y-113453152D01*
X107892858Y-113643628D02*
X107940477Y-113548390D01*
X107940477Y-113548390D02*
X107988096Y-113500771D01*
X107988096Y-113500771D02*
X108083334Y-113453152D01*
X108083334Y-113453152D02*
X108178572Y-113453152D01*
X108940477Y-114119819D02*
X108940477Y-113596009D01*
X108940477Y-113596009D02*
X108892858Y-113500771D01*
X108892858Y-113500771D02*
X108797620Y-113453152D01*
X108797620Y-113453152D02*
X108607144Y-113453152D01*
X108607144Y-113453152D02*
X108511906Y-113500771D01*
X108940477Y-114072200D02*
X108845239Y-114119819D01*
X108845239Y-114119819D02*
X108607144Y-114119819D01*
X108607144Y-114119819D02*
X108511906Y-114072200D01*
X108511906Y-114072200D02*
X108464287Y-113976961D01*
X108464287Y-113976961D02*
X108464287Y-113881723D01*
X108464287Y-113881723D02*
X108511906Y-113786485D01*
X108511906Y-113786485D02*
X108607144Y-113738866D01*
X108607144Y-113738866D02*
X108845239Y-113738866D01*
X108845239Y-113738866D02*
X108940477Y-113691247D01*
X109559525Y-114119819D02*
X109464287Y-114072200D01*
X109464287Y-114072200D02*
X109416668Y-113976961D01*
X109416668Y-113976961D02*
X109416668Y-113119819D01*
X109940478Y-114119819D02*
X109940478Y-113453152D01*
X109940478Y-113119819D02*
X109892859Y-113167438D01*
X109892859Y-113167438D02*
X109940478Y-113215057D01*
X109940478Y-113215057D02*
X109988097Y-113167438D01*
X109988097Y-113167438D02*
X109940478Y-113119819D01*
X109940478Y-113119819D02*
X109940478Y-113215057D01*
X110845239Y-114119819D02*
X110845239Y-113596009D01*
X110845239Y-113596009D02*
X110797620Y-113500771D01*
X110797620Y-113500771D02*
X110702382Y-113453152D01*
X110702382Y-113453152D02*
X110511906Y-113453152D01*
X110511906Y-113453152D02*
X110416668Y-113500771D01*
X110845239Y-114072200D02*
X110750001Y-114119819D01*
X110750001Y-114119819D02*
X110511906Y-114119819D01*
X110511906Y-114119819D02*
X110416668Y-114072200D01*
X110416668Y-114072200D02*
X110369049Y-113976961D01*
X110369049Y-113976961D02*
X110369049Y-113881723D01*
X110369049Y-113881723D02*
X110416668Y-113786485D01*
X110416668Y-113786485D02*
X110511906Y-113738866D01*
X110511906Y-113738866D02*
X110750001Y-113738866D01*
X110750001Y-113738866D02*
X110845239Y-113691247D01*
X104454819Y-73142857D02*
X103978628Y-73476190D01*
X104454819Y-73714285D02*
X103454819Y-73714285D01*
X103454819Y-73714285D02*
X103454819Y-73333333D01*
X103454819Y-73333333D02*
X103502438Y-73238095D01*
X103502438Y-73238095D02*
X103550057Y-73190476D01*
X103550057Y-73190476D02*
X103645295Y-73142857D01*
X103645295Y-73142857D02*
X103788152Y-73142857D01*
X103788152Y-73142857D02*
X103883390Y-73190476D01*
X103883390Y-73190476D02*
X103931009Y-73238095D01*
X103931009Y-73238095D02*
X103978628Y-73333333D01*
X103978628Y-73333333D02*
X103978628Y-73714285D01*
X104454819Y-72190476D02*
X104454819Y-72761904D01*
X104454819Y-72476190D02*
X103454819Y-72476190D01*
X103454819Y-72476190D02*
X103597676Y-72571428D01*
X103597676Y-72571428D02*
X103692914Y-72666666D01*
X103692914Y-72666666D02*
X103740533Y-72761904D01*
X103550057Y-71809523D02*
X103502438Y-71761904D01*
X103502438Y-71761904D02*
X103454819Y-71666666D01*
X103454819Y-71666666D02*
X103454819Y-71428571D01*
X103454819Y-71428571D02*
X103502438Y-71333333D01*
X103502438Y-71333333D02*
X103550057Y-71285714D01*
X103550057Y-71285714D02*
X103645295Y-71238095D01*
X103645295Y-71238095D02*
X103740533Y-71238095D01*
X103740533Y-71238095D02*
X103883390Y-71285714D01*
X103883390Y-71285714D02*
X104454819Y-71857142D01*
X104454819Y-71857142D02*
X104454819Y-71238095D01*
X84238095Y-60954819D02*
X84238095Y-61764342D01*
X84238095Y-61764342D02*
X84285714Y-61859580D01*
X84285714Y-61859580D02*
X84333333Y-61907200D01*
X84333333Y-61907200D02*
X84428571Y-61954819D01*
X84428571Y-61954819D02*
X84619047Y-61954819D01*
X84619047Y-61954819D02*
X84714285Y-61907200D01*
X84714285Y-61907200D02*
X84761904Y-61859580D01*
X84761904Y-61859580D02*
X84809523Y-61764342D01*
X84809523Y-61764342D02*
X84809523Y-60954819D01*
X85190476Y-60954819D02*
X85809523Y-60954819D01*
X85809523Y-60954819D02*
X85476190Y-61335771D01*
X85476190Y-61335771D02*
X85619047Y-61335771D01*
X85619047Y-61335771D02*
X85714285Y-61383390D01*
X85714285Y-61383390D02*
X85761904Y-61431009D01*
X85761904Y-61431009D02*
X85809523Y-61526247D01*
X85809523Y-61526247D02*
X85809523Y-61764342D01*
X85809523Y-61764342D02*
X85761904Y-61859580D01*
X85761904Y-61859580D02*
X85714285Y-61907200D01*
X85714285Y-61907200D02*
X85619047Y-61954819D01*
X85619047Y-61954819D02*
X85333333Y-61954819D01*
X85333333Y-61954819D02*
X85238095Y-61907200D01*
X85238095Y-61907200D02*
X85190476Y-61859580D01*
X96954819Y-60238094D02*
X95954819Y-60238094D01*
X95954819Y-60238094D02*
X95954819Y-59999999D01*
X95954819Y-59999999D02*
X96002438Y-59857142D01*
X96002438Y-59857142D02*
X96097676Y-59761904D01*
X96097676Y-59761904D02*
X96192914Y-59714285D01*
X96192914Y-59714285D02*
X96383390Y-59666666D01*
X96383390Y-59666666D02*
X96526247Y-59666666D01*
X96526247Y-59666666D02*
X96716723Y-59714285D01*
X96716723Y-59714285D02*
X96811961Y-59761904D01*
X96811961Y-59761904D02*
X96907200Y-59857142D01*
X96907200Y-59857142D02*
X96954819Y-59999999D01*
X96954819Y-59999999D02*
X96954819Y-60238094D01*
X96954819Y-58714285D02*
X96954819Y-59285713D01*
X96954819Y-58999999D02*
X95954819Y-58999999D01*
X95954819Y-58999999D02*
X96097676Y-59095237D01*
X96097676Y-59095237D02*
X96192914Y-59190475D01*
X96192914Y-59190475D02*
X96240533Y-59285713D01*
X84738095Y-86954819D02*
X84738095Y-87764342D01*
X84738095Y-87764342D02*
X84785714Y-87859580D01*
X84785714Y-87859580D02*
X84833333Y-87907200D01*
X84833333Y-87907200D02*
X84928571Y-87954819D01*
X84928571Y-87954819D02*
X85119047Y-87954819D01*
X85119047Y-87954819D02*
X85214285Y-87907200D01*
X85214285Y-87907200D02*
X85261904Y-87859580D01*
X85261904Y-87859580D02*
X85309523Y-87764342D01*
X85309523Y-87764342D02*
X85309523Y-86954819D01*
X86214285Y-87288152D02*
X86214285Y-87954819D01*
X85976190Y-86907200D02*
X85738095Y-87621485D01*
X85738095Y-87621485D02*
X86357142Y-87621485D01*
X83859580Y-78666666D02*
X83907200Y-78714285D01*
X83907200Y-78714285D02*
X83954819Y-78857142D01*
X83954819Y-78857142D02*
X83954819Y-78952380D01*
X83954819Y-78952380D02*
X83907200Y-79095237D01*
X83907200Y-79095237D02*
X83811961Y-79190475D01*
X83811961Y-79190475D02*
X83716723Y-79238094D01*
X83716723Y-79238094D02*
X83526247Y-79285713D01*
X83526247Y-79285713D02*
X83383390Y-79285713D01*
X83383390Y-79285713D02*
X83192914Y-79238094D01*
X83192914Y-79238094D02*
X83097676Y-79190475D01*
X83097676Y-79190475D02*
X83002438Y-79095237D01*
X83002438Y-79095237D02*
X82954819Y-78952380D01*
X82954819Y-78952380D02*
X82954819Y-78857142D01*
X82954819Y-78857142D02*
X83002438Y-78714285D01*
X83002438Y-78714285D02*
X83050057Y-78666666D01*
X83288152Y-77809523D02*
X83954819Y-77809523D01*
X82907200Y-78047618D02*
X83621485Y-78285713D01*
X83621485Y-78285713D02*
X83621485Y-77666666D01*
X73166666Y-108254819D02*
X72833333Y-107778628D01*
X72595238Y-108254819D02*
X72595238Y-107254819D01*
X72595238Y-107254819D02*
X72976190Y-107254819D01*
X72976190Y-107254819D02*
X73071428Y-107302438D01*
X73071428Y-107302438D02*
X73119047Y-107350057D01*
X73119047Y-107350057D02*
X73166666Y-107445295D01*
X73166666Y-107445295D02*
X73166666Y-107588152D01*
X73166666Y-107588152D02*
X73119047Y-107683390D01*
X73119047Y-107683390D02*
X73071428Y-107731009D01*
X73071428Y-107731009D02*
X72976190Y-107778628D01*
X72976190Y-107778628D02*
X72595238Y-107778628D01*
X73595238Y-107731009D02*
X73928571Y-107731009D01*
X74071428Y-108254819D02*
X73595238Y-108254819D01*
X73595238Y-108254819D02*
X73595238Y-107254819D01*
X73595238Y-107254819D02*
X74071428Y-107254819D01*
X74833333Y-107731009D02*
X74500000Y-107731009D01*
X74500000Y-108254819D02*
X74500000Y-107254819D01*
X74500000Y-107254819D02*
X74976190Y-107254819D01*
X75500000Y-107254819D02*
X75500000Y-107492914D01*
X75261905Y-107397676D02*
X75500000Y-107492914D01*
X75500000Y-107492914D02*
X75738095Y-107397676D01*
X75357143Y-107683390D02*
X75500000Y-107492914D01*
X75500000Y-107492914D02*
X75642857Y-107683390D01*
X76261905Y-107254819D02*
X76261905Y-107492914D01*
X76023810Y-107397676D02*
X76261905Y-107492914D01*
X76261905Y-107492914D02*
X76500000Y-107397676D01*
X76119048Y-107683390D02*
X76261905Y-107492914D01*
X76261905Y-107492914D02*
X76404762Y-107683390D01*
X106954819Y-60238094D02*
X105954819Y-60238094D01*
X105954819Y-60238094D02*
X105954819Y-59999999D01*
X105954819Y-59999999D02*
X106002438Y-59857142D01*
X106002438Y-59857142D02*
X106097676Y-59761904D01*
X106097676Y-59761904D02*
X106192914Y-59714285D01*
X106192914Y-59714285D02*
X106383390Y-59666666D01*
X106383390Y-59666666D02*
X106526247Y-59666666D01*
X106526247Y-59666666D02*
X106716723Y-59714285D01*
X106716723Y-59714285D02*
X106811961Y-59761904D01*
X106811961Y-59761904D02*
X106907200Y-59857142D01*
X106907200Y-59857142D02*
X106954819Y-59999999D01*
X106954819Y-59999999D02*
X106954819Y-60238094D01*
X105954819Y-58761904D02*
X105954819Y-59238094D01*
X105954819Y-59238094D02*
X106431009Y-59285713D01*
X106431009Y-59285713D02*
X106383390Y-59238094D01*
X106383390Y-59238094D02*
X106335771Y-59142856D01*
X106335771Y-59142856D02*
X106335771Y-58904761D01*
X106335771Y-58904761D02*
X106383390Y-58809523D01*
X106383390Y-58809523D02*
X106431009Y-58761904D01*
X106431009Y-58761904D02*
X106526247Y-58714285D01*
X106526247Y-58714285D02*
X106764342Y-58714285D01*
X106764342Y-58714285D02*
X106859580Y-58761904D01*
X106859580Y-58761904D02*
X106907200Y-58809523D01*
X106907200Y-58809523D02*
X106954819Y-58904761D01*
X106954819Y-58904761D02*
X106954819Y-59142856D01*
X106954819Y-59142856D02*
X106907200Y-59238094D01*
X106907200Y-59238094D02*
X106859580Y-59285713D01*
X110454819Y-84238094D02*
X109454819Y-84238094D01*
X109454819Y-84238094D02*
X109454819Y-83999999D01*
X109454819Y-83999999D02*
X109502438Y-83857142D01*
X109502438Y-83857142D02*
X109597676Y-83761904D01*
X109597676Y-83761904D02*
X109692914Y-83714285D01*
X109692914Y-83714285D02*
X109883390Y-83666666D01*
X109883390Y-83666666D02*
X110026247Y-83666666D01*
X110026247Y-83666666D02*
X110216723Y-83714285D01*
X110216723Y-83714285D02*
X110311961Y-83761904D01*
X110311961Y-83761904D02*
X110407200Y-83857142D01*
X110407200Y-83857142D02*
X110454819Y-83999999D01*
X110454819Y-83999999D02*
X110454819Y-84238094D01*
X109883390Y-83095237D02*
X109835771Y-83190475D01*
X109835771Y-83190475D02*
X109788152Y-83238094D01*
X109788152Y-83238094D02*
X109692914Y-83285713D01*
X109692914Y-83285713D02*
X109645295Y-83285713D01*
X109645295Y-83285713D02*
X109550057Y-83238094D01*
X109550057Y-83238094D02*
X109502438Y-83190475D01*
X109502438Y-83190475D02*
X109454819Y-83095237D01*
X109454819Y-83095237D02*
X109454819Y-82904761D01*
X109454819Y-82904761D02*
X109502438Y-82809523D01*
X109502438Y-82809523D02*
X109550057Y-82761904D01*
X109550057Y-82761904D02*
X109645295Y-82714285D01*
X109645295Y-82714285D02*
X109692914Y-82714285D01*
X109692914Y-82714285D02*
X109788152Y-82761904D01*
X109788152Y-82761904D02*
X109835771Y-82809523D01*
X109835771Y-82809523D02*
X109883390Y-82904761D01*
X109883390Y-82904761D02*
X109883390Y-83095237D01*
X109883390Y-83095237D02*
X109931009Y-83190475D01*
X109931009Y-83190475D02*
X109978628Y-83238094D01*
X109978628Y-83238094D02*
X110073866Y-83285713D01*
X110073866Y-83285713D02*
X110264342Y-83285713D01*
X110264342Y-83285713D02*
X110359580Y-83238094D01*
X110359580Y-83238094D02*
X110407200Y-83190475D01*
X110407200Y-83190475D02*
X110454819Y-83095237D01*
X110454819Y-83095237D02*
X110454819Y-82904761D01*
X110454819Y-82904761D02*
X110407200Y-82809523D01*
X110407200Y-82809523D02*
X110359580Y-82761904D01*
X110359580Y-82761904D02*
X110264342Y-82714285D01*
X110264342Y-82714285D02*
X110073866Y-82714285D01*
X110073866Y-82714285D02*
X109978628Y-82761904D01*
X109978628Y-82761904D02*
X109931009Y-82809523D01*
X109931009Y-82809523D02*
X109883390Y-82904761D01*
X78954819Y-78666666D02*
X78478628Y-78999999D01*
X78954819Y-79238094D02*
X77954819Y-79238094D01*
X77954819Y-79238094D02*
X77954819Y-78857142D01*
X77954819Y-78857142D02*
X78002438Y-78761904D01*
X78002438Y-78761904D02*
X78050057Y-78714285D01*
X78050057Y-78714285D02*
X78145295Y-78666666D01*
X78145295Y-78666666D02*
X78288152Y-78666666D01*
X78288152Y-78666666D02*
X78383390Y-78714285D01*
X78383390Y-78714285D02*
X78431009Y-78761904D01*
X78431009Y-78761904D02*
X78478628Y-78857142D01*
X78478628Y-78857142D02*
X78478628Y-79238094D01*
X77954819Y-78333332D02*
X77954819Y-77666666D01*
X77954819Y-77666666D02*
X78954819Y-78095237D01*
X99454819Y-60238094D02*
X98454819Y-60238094D01*
X98454819Y-60238094D02*
X98454819Y-59999999D01*
X98454819Y-59999999D02*
X98502438Y-59857142D01*
X98502438Y-59857142D02*
X98597676Y-59761904D01*
X98597676Y-59761904D02*
X98692914Y-59714285D01*
X98692914Y-59714285D02*
X98883390Y-59666666D01*
X98883390Y-59666666D02*
X99026247Y-59666666D01*
X99026247Y-59666666D02*
X99216723Y-59714285D01*
X99216723Y-59714285D02*
X99311961Y-59761904D01*
X99311961Y-59761904D02*
X99407200Y-59857142D01*
X99407200Y-59857142D02*
X99454819Y-59999999D01*
X99454819Y-59999999D02*
X99454819Y-60238094D01*
X98550057Y-59285713D02*
X98502438Y-59238094D01*
X98502438Y-59238094D02*
X98454819Y-59142856D01*
X98454819Y-59142856D02*
X98454819Y-58904761D01*
X98454819Y-58904761D02*
X98502438Y-58809523D01*
X98502438Y-58809523D02*
X98550057Y-58761904D01*
X98550057Y-58761904D02*
X98645295Y-58714285D01*
X98645295Y-58714285D02*
X98740533Y-58714285D01*
X98740533Y-58714285D02*
X98883390Y-58761904D01*
X98883390Y-58761904D02*
X99454819Y-59333332D01*
X99454819Y-59333332D02*
X99454819Y-58714285D01*
X109454819Y-73317857D02*
X108978628Y-73651190D01*
X109454819Y-73889285D02*
X108454819Y-73889285D01*
X108454819Y-73889285D02*
X108454819Y-73508333D01*
X108454819Y-73508333D02*
X108502438Y-73413095D01*
X108502438Y-73413095D02*
X108550057Y-73365476D01*
X108550057Y-73365476D02*
X108645295Y-73317857D01*
X108645295Y-73317857D02*
X108788152Y-73317857D01*
X108788152Y-73317857D02*
X108883390Y-73365476D01*
X108883390Y-73365476D02*
X108931009Y-73413095D01*
X108931009Y-73413095D02*
X108978628Y-73508333D01*
X108978628Y-73508333D02*
X108978628Y-73889285D01*
X109454819Y-72365476D02*
X109454819Y-72936904D01*
X109454819Y-72651190D02*
X108454819Y-72651190D01*
X108454819Y-72651190D02*
X108597676Y-72746428D01*
X108597676Y-72746428D02*
X108692914Y-72841666D01*
X108692914Y-72841666D02*
X108740533Y-72936904D01*
X108788152Y-71508333D02*
X109454819Y-71508333D01*
X108407200Y-71746428D02*
X109121485Y-71984523D01*
X109121485Y-71984523D02*
X109121485Y-71365476D01*
X80454819Y-65666666D02*
X79978628Y-65999999D01*
X80454819Y-66238094D02*
X79454819Y-66238094D01*
X79454819Y-66238094D02*
X79454819Y-65857142D01*
X79454819Y-65857142D02*
X79502438Y-65761904D01*
X79502438Y-65761904D02*
X79550057Y-65714285D01*
X79550057Y-65714285D02*
X79645295Y-65666666D01*
X79645295Y-65666666D02*
X79788152Y-65666666D01*
X79788152Y-65666666D02*
X79883390Y-65714285D01*
X79883390Y-65714285D02*
X79931009Y-65761904D01*
X79931009Y-65761904D02*
X79978628Y-65857142D01*
X79978628Y-65857142D02*
X79978628Y-66238094D01*
X79788152Y-64809523D02*
X80454819Y-64809523D01*
X79407200Y-65047618D02*
X80121485Y-65285713D01*
X80121485Y-65285713D02*
X80121485Y-64666666D01*
X84738095Y-99679819D02*
X84738095Y-100489342D01*
X84738095Y-100489342D02*
X84785714Y-100584580D01*
X84785714Y-100584580D02*
X84833333Y-100632200D01*
X84833333Y-100632200D02*
X84928571Y-100679819D01*
X84928571Y-100679819D02*
X85119047Y-100679819D01*
X85119047Y-100679819D02*
X85214285Y-100632200D01*
X85214285Y-100632200D02*
X85261904Y-100584580D01*
X85261904Y-100584580D02*
X85309523Y-100489342D01*
X85309523Y-100489342D02*
X85309523Y-99679819D01*
X85738095Y-99775057D02*
X85785714Y-99727438D01*
X85785714Y-99727438D02*
X85880952Y-99679819D01*
X85880952Y-99679819D02*
X86119047Y-99679819D01*
X86119047Y-99679819D02*
X86214285Y-99727438D01*
X86214285Y-99727438D02*
X86261904Y-99775057D01*
X86261904Y-99775057D02*
X86309523Y-99870295D01*
X86309523Y-99870295D02*
X86309523Y-99965533D01*
X86309523Y-99965533D02*
X86261904Y-100108390D01*
X86261904Y-100108390D02*
X85690476Y-100679819D01*
X85690476Y-100679819D02*
X86309523Y-100679819D01*
X83359580Y-91666666D02*
X83407200Y-91714285D01*
X83407200Y-91714285D02*
X83454819Y-91857142D01*
X83454819Y-91857142D02*
X83454819Y-91952380D01*
X83454819Y-91952380D02*
X83407200Y-92095237D01*
X83407200Y-92095237D02*
X83311961Y-92190475D01*
X83311961Y-92190475D02*
X83216723Y-92238094D01*
X83216723Y-92238094D02*
X83026247Y-92285713D01*
X83026247Y-92285713D02*
X82883390Y-92285713D01*
X82883390Y-92285713D02*
X82692914Y-92238094D01*
X82692914Y-92238094D02*
X82597676Y-92190475D01*
X82597676Y-92190475D02*
X82502438Y-92095237D01*
X82502438Y-92095237D02*
X82454819Y-91952380D01*
X82454819Y-91952380D02*
X82454819Y-91857142D01*
X82454819Y-91857142D02*
X82502438Y-91714285D01*
X82502438Y-91714285D02*
X82550057Y-91666666D01*
X82454819Y-91333332D02*
X82454819Y-90714285D01*
X82454819Y-90714285D02*
X82835771Y-91047618D01*
X82835771Y-91047618D02*
X82835771Y-90904761D01*
X82835771Y-90904761D02*
X82883390Y-90809523D01*
X82883390Y-90809523D02*
X82931009Y-90761904D01*
X82931009Y-90761904D02*
X83026247Y-90714285D01*
X83026247Y-90714285D02*
X83264342Y-90714285D01*
X83264342Y-90714285D02*
X83359580Y-90761904D01*
X83359580Y-90761904D02*
X83407200Y-90809523D01*
X83407200Y-90809523D02*
X83454819Y-90904761D01*
X83454819Y-90904761D02*
X83454819Y-91190475D01*
X83454819Y-91190475D02*
X83407200Y-91285713D01*
X83407200Y-91285713D02*
X83359580Y-91333332D01*
X99454819Y-73142857D02*
X98978628Y-73476190D01*
X99454819Y-73714285D02*
X98454819Y-73714285D01*
X98454819Y-73714285D02*
X98454819Y-73333333D01*
X98454819Y-73333333D02*
X98502438Y-73238095D01*
X98502438Y-73238095D02*
X98550057Y-73190476D01*
X98550057Y-73190476D02*
X98645295Y-73142857D01*
X98645295Y-73142857D02*
X98788152Y-73142857D01*
X98788152Y-73142857D02*
X98883390Y-73190476D01*
X98883390Y-73190476D02*
X98931009Y-73238095D01*
X98931009Y-73238095D02*
X98978628Y-73333333D01*
X98978628Y-73333333D02*
X98978628Y-73714285D01*
X99454819Y-72190476D02*
X99454819Y-72761904D01*
X99454819Y-72476190D02*
X98454819Y-72476190D01*
X98454819Y-72476190D02*
X98597676Y-72571428D01*
X98597676Y-72571428D02*
X98692914Y-72666666D01*
X98692914Y-72666666D02*
X98740533Y-72761904D01*
X98454819Y-71571428D02*
X98454819Y-71476190D01*
X98454819Y-71476190D02*
X98502438Y-71380952D01*
X98502438Y-71380952D02*
X98550057Y-71333333D01*
X98550057Y-71333333D02*
X98645295Y-71285714D01*
X98645295Y-71285714D02*
X98835771Y-71238095D01*
X98835771Y-71238095D02*
X99073866Y-71238095D01*
X99073866Y-71238095D02*
X99264342Y-71285714D01*
X99264342Y-71285714D02*
X99359580Y-71333333D01*
X99359580Y-71333333D02*
X99407200Y-71380952D01*
X99407200Y-71380952D02*
X99454819Y-71476190D01*
X99454819Y-71476190D02*
X99454819Y-71571428D01*
X99454819Y-71571428D02*
X99407200Y-71666666D01*
X99407200Y-71666666D02*
X99359580Y-71714285D01*
X99359580Y-71714285D02*
X99264342Y-71761904D01*
X99264342Y-71761904D02*
X99073866Y-71809523D01*
X99073866Y-71809523D02*
X98835771Y-71809523D01*
X98835771Y-71809523D02*
X98645295Y-71761904D01*
X98645295Y-71761904D02*
X98550057Y-71714285D01*
X98550057Y-71714285D02*
X98502438Y-71666666D01*
X98502438Y-71666666D02*
X98454819Y-71571428D01*
X101954819Y-73142857D02*
X101478628Y-73476190D01*
X101954819Y-73714285D02*
X100954819Y-73714285D01*
X100954819Y-73714285D02*
X100954819Y-73333333D01*
X100954819Y-73333333D02*
X101002438Y-73238095D01*
X101002438Y-73238095D02*
X101050057Y-73190476D01*
X101050057Y-73190476D02*
X101145295Y-73142857D01*
X101145295Y-73142857D02*
X101288152Y-73142857D01*
X101288152Y-73142857D02*
X101383390Y-73190476D01*
X101383390Y-73190476D02*
X101431009Y-73238095D01*
X101431009Y-73238095D02*
X101478628Y-73333333D01*
X101478628Y-73333333D02*
X101478628Y-73714285D01*
X101954819Y-72190476D02*
X101954819Y-72761904D01*
X101954819Y-72476190D02*
X100954819Y-72476190D01*
X100954819Y-72476190D02*
X101097676Y-72571428D01*
X101097676Y-72571428D02*
X101192914Y-72666666D01*
X101192914Y-72666666D02*
X101240533Y-72761904D01*
X101954819Y-71238095D02*
X101954819Y-71809523D01*
X101954819Y-71523809D02*
X100954819Y-71523809D01*
X100954819Y-71523809D02*
X101097676Y-71619047D01*
X101097676Y-71619047D02*
X101192914Y-71714285D01*
X101192914Y-71714285D02*
X101240533Y-71809523D01*
X107954819Y-84238094D02*
X106954819Y-84238094D01*
X106954819Y-84238094D02*
X106954819Y-83999999D01*
X106954819Y-83999999D02*
X107002438Y-83857142D01*
X107002438Y-83857142D02*
X107097676Y-83761904D01*
X107097676Y-83761904D02*
X107192914Y-83714285D01*
X107192914Y-83714285D02*
X107383390Y-83666666D01*
X107383390Y-83666666D02*
X107526247Y-83666666D01*
X107526247Y-83666666D02*
X107716723Y-83714285D01*
X107716723Y-83714285D02*
X107811961Y-83761904D01*
X107811961Y-83761904D02*
X107907200Y-83857142D01*
X107907200Y-83857142D02*
X107954819Y-83999999D01*
X107954819Y-83999999D02*
X107954819Y-84238094D01*
X106954819Y-83333332D02*
X106954819Y-82666666D01*
X106954819Y-82666666D02*
X107954819Y-83095237D01*
X120666666Y-108254819D02*
X120333333Y-107778628D01*
X120095238Y-108254819D02*
X120095238Y-107254819D01*
X120095238Y-107254819D02*
X120476190Y-107254819D01*
X120476190Y-107254819D02*
X120571428Y-107302438D01*
X120571428Y-107302438D02*
X120619047Y-107350057D01*
X120619047Y-107350057D02*
X120666666Y-107445295D01*
X120666666Y-107445295D02*
X120666666Y-107588152D01*
X120666666Y-107588152D02*
X120619047Y-107683390D01*
X120619047Y-107683390D02*
X120571428Y-107731009D01*
X120571428Y-107731009D02*
X120476190Y-107778628D01*
X120476190Y-107778628D02*
X120095238Y-107778628D01*
X121095238Y-107731009D02*
X121428571Y-107731009D01*
X121571428Y-108254819D02*
X121095238Y-108254819D01*
X121095238Y-108254819D02*
X121095238Y-107254819D01*
X121095238Y-107254819D02*
X121571428Y-107254819D01*
X122333333Y-107731009D02*
X122000000Y-107731009D01*
X122000000Y-108254819D02*
X122000000Y-107254819D01*
X122000000Y-107254819D02*
X122476190Y-107254819D01*
X123000000Y-107254819D02*
X123000000Y-107492914D01*
X122761905Y-107397676D02*
X123000000Y-107492914D01*
X123000000Y-107492914D02*
X123238095Y-107397676D01*
X122857143Y-107683390D02*
X123000000Y-107492914D01*
X123000000Y-107492914D02*
X123142857Y-107683390D01*
X123761905Y-107254819D02*
X123761905Y-107492914D01*
X123523810Y-107397676D02*
X123761905Y-107492914D01*
X123761905Y-107492914D02*
X124000000Y-107397676D01*
X123619048Y-107683390D02*
X123761905Y-107492914D01*
X123761905Y-107492914D02*
X123904762Y-107683390D01*
X104454819Y-60238094D02*
X103454819Y-60238094D01*
X103454819Y-60238094D02*
X103454819Y-59999999D01*
X103454819Y-59999999D02*
X103502438Y-59857142D01*
X103502438Y-59857142D02*
X103597676Y-59761904D01*
X103597676Y-59761904D02*
X103692914Y-59714285D01*
X103692914Y-59714285D02*
X103883390Y-59666666D01*
X103883390Y-59666666D02*
X104026247Y-59666666D01*
X104026247Y-59666666D02*
X104216723Y-59714285D01*
X104216723Y-59714285D02*
X104311961Y-59761904D01*
X104311961Y-59761904D02*
X104407200Y-59857142D01*
X104407200Y-59857142D02*
X104454819Y-59999999D01*
X104454819Y-59999999D02*
X104454819Y-60238094D01*
X103788152Y-58809523D02*
X104454819Y-58809523D01*
X103407200Y-59047618D02*
X104121485Y-59285713D01*
X104121485Y-59285713D02*
X104121485Y-58666666D01*
X107954819Y-97142857D02*
X107478628Y-97476190D01*
X107954819Y-97714285D02*
X106954819Y-97714285D01*
X106954819Y-97714285D02*
X106954819Y-97333333D01*
X106954819Y-97333333D02*
X107002438Y-97238095D01*
X107002438Y-97238095D02*
X107050057Y-97190476D01*
X107050057Y-97190476D02*
X107145295Y-97142857D01*
X107145295Y-97142857D02*
X107288152Y-97142857D01*
X107288152Y-97142857D02*
X107383390Y-97190476D01*
X107383390Y-97190476D02*
X107431009Y-97238095D01*
X107431009Y-97238095D02*
X107478628Y-97333333D01*
X107478628Y-97333333D02*
X107478628Y-97714285D01*
X107954819Y-96190476D02*
X107954819Y-96761904D01*
X107954819Y-96476190D02*
X106954819Y-96476190D01*
X106954819Y-96476190D02*
X107097676Y-96571428D01*
X107097676Y-96571428D02*
X107192914Y-96666666D01*
X107192914Y-96666666D02*
X107240533Y-96761904D01*
X106954819Y-95285714D02*
X106954819Y-95761904D01*
X106954819Y-95761904D02*
X107431009Y-95809523D01*
X107431009Y-95809523D02*
X107383390Y-95761904D01*
X107383390Y-95761904D02*
X107335771Y-95666666D01*
X107335771Y-95666666D02*
X107335771Y-95428571D01*
X107335771Y-95428571D02*
X107383390Y-95333333D01*
X107383390Y-95333333D02*
X107431009Y-95285714D01*
X107431009Y-95285714D02*
X107526247Y-95238095D01*
X107526247Y-95238095D02*
X107764342Y-95238095D01*
X107764342Y-95238095D02*
X107859580Y-95285714D01*
X107859580Y-95285714D02*
X107907200Y-95333333D01*
X107907200Y-95333333D02*
X107954819Y-95428571D01*
X107954819Y-95428571D02*
X107954819Y-95666666D01*
X107954819Y-95666666D02*
X107907200Y-95761904D01*
X107907200Y-95761904D02*
X107859580Y-95809523D01*
X80954819Y-91666666D02*
X80478628Y-91999999D01*
X80954819Y-92238094D02*
X79954819Y-92238094D01*
X79954819Y-92238094D02*
X79954819Y-91857142D01*
X79954819Y-91857142D02*
X80002438Y-91761904D01*
X80002438Y-91761904D02*
X80050057Y-91714285D01*
X80050057Y-91714285D02*
X80145295Y-91666666D01*
X80145295Y-91666666D02*
X80288152Y-91666666D01*
X80288152Y-91666666D02*
X80383390Y-91714285D01*
X80383390Y-91714285D02*
X80431009Y-91761904D01*
X80431009Y-91761904D02*
X80478628Y-91857142D01*
X80478628Y-91857142D02*
X80478628Y-92238094D01*
X79954819Y-90809523D02*
X79954819Y-90999999D01*
X79954819Y-90999999D02*
X80002438Y-91095237D01*
X80002438Y-91095237D02*
X80050057Y-91142856D01*
X80050057Y-91142856D02*
X80192914Y-91238094D01*
X80192914Y-91238094D02*
X80383390Y-91285713D01*
X80383390Y-91285713D02*
X80764342Y-91285713D01*
X80764342Y-91285713D02*
X80859580Y-91238094D01*
X80859580Y-91238094D02*
X80907200Y-91190475D01*
X80907200Y-91190475D02*
X80954819Y-91095237D01*
X80954819Y-91095237D02*
X80954819Y-90904761D01*
X80954819Y-90904761D02*
X80907200Y-90809523D01*
X80907200Y-90809523D02*
X80859580Y-90761904D01*
X80859580Y-90761904D02*
X80764342Y-90714285D01*
X80764342Y-90714285D02*
X80526247Y-90714285D01*
X80526247Y-90714285D02*
X80431009Y-90761904D01*
X80431009Y-90761904D02*
X80383390Y-90809523D01*
X80383390Y-90809523D02*
X80335771Y-90904761D01*
X80335771Y-90904761D02*
X80335771Y-91095237D01*
X80335771Y-91095237D02*
X80383390Y-91190475D01*
X80383390Y-91190475D02*
X80431009Y-91238094D01*
X80431009Y-91238094D02*
X80526247Y-91285713D01*
X112954819Y-97142857D02*
X112478628Y-97476190D01*
X112954819Y-97714285D02*
X111954819Y-97714285D01*
X111954819Y-97714285D02*
X111954819Y-97333333D01*
X111954819Y-97333333D02*
X112002438Y-97238095D01*
X112002438Y-97238095D02*
X112050057Y-97190476D01*
X112050057Y-97190476D02*
X112145295Y-97142857D01*
X112145295Y-97142857D02*
X112288152Y-97142857D01*
X112288152Y-97142857D02*
X112383390Y-97190476D01*
X112383390Y-97190476D02*
X112431009Y-97238095D01*
X112431009Y-97238095D02*
X112478628Y-97333333D01*
X112478628Y-97333333D02*
X112478628Y-97714285D01*
X112954819Y-96190476D02*
X112954819Y-96761904D01*
X112954819Y-96476190D02*
X111954819Y-96476190D01*
X111954819Y-96476190D02*
X112097676Y-96571428D01*
X112097676Y-96571428D02*
X112192914Y-96666666D01*
X112192914Y-96666666D02*
X112240533Y-96761904D01*
X111954819Y-95857142D02*
X111954819Y-95190476D01*
X111954819Y-95190476D02*
X112954819Y-95619047D01*
X78454819Y-91666666D02*
X77978628Y-91999999D01*
X78454819Y-92238094D02*
X77454819Y-92238094D01*
X77454819Y-92238094D02*
X77454819Y-91857142D01*
X77454819Y-91857142D02*
X77502438Y-91761904D01*
X77502438Y-91761904D02*
X77550057Y-91714285D01*
X77550057Y-91714285D02*
X77645295Y-91666666D01*
X77645295Y-91666666D02*
X77788152Y-91666666D01*
X77788152Y-91666666D02*
X77883390Y-91714285D01*
X77883390Y-91714285D02*
X77931009Y-91761904D01*
X77931009Y-91761904D02*
X77978628Y-91857142D01*
X77978628Y-91857142D02*
X77978628Y-92238094D01*
X77454819Y-90761904D02*
X77454819Y-91238094D01*
X77454819Y-91238094D02*
X77931009Y-91285713D01*
X77931009Y-91285713D02*
X77883390Y-91238094D01*
X77883390Y-91238094D02*
X77835771Y-91142856D01*
X77835771Y-91142856D02*
X77835771Y-90904761D01*
X77835771Y-90904761D02*
X77883390Y-90809523D01*
X77883390Y-90809523D02*
X77931009Y-90761904D01*
X77931009Y-90761904D02*
X78026247Y-90714285D01*
X78026247Y-90714285D02*
X78264342Y-90714285D01*
X78264342Y-90714285D02*
X78359580Y-90761904D01*
X78359580Y-90761904D02*
X78407200Y-90809523D01*
X78407200Y-90809523D02*
X78454819Y-90904761D01*
X78454819Y-90904761D02*
X78454819Y-91142856D01*
X78454819Y-91142856D02*
X78407200Y-91238094D01*
X78407200Y-91238094D02*
X78359580Y-91285713D01*
X111424819Y-103286904D02*
X112234342Y-103286904D01*
X112234342Y-103286904D02*
X112329580Y-103239285D01*
X112329580Y-103239285D02*
X112377200Y-103191666D01*
X112377200Y-103191666D02*
X112424819Y-103096428D01*
X112424819Y-103096428D02*
X112424819Y-102905952D01*
X112424819Y-102905952D02*
X112377200Y-102810714D01*
X112377200Y-102810714D02*
X112329580Y-102763095D01*
X112329580Y-102763095D02*
X112234342Y-102715476D01*
X112234342Y-102715476D02*
X111424819Y-102715476D01*
X111424819Y-102334523D02*
X111424819Y-101667857D01*
X111424819Y-101667857D02*
X112424819Y-102096428D01*
X112954819Y-84238094D02*
X111954819Y-84238094D01*
X111954819Y-84238094D02*
X111954819Y-83999999D01*
X111954819Y-83999999D02*
X112002438Y-83857142D01*
X112002438Y-83857142D02*
X112097676Y-83761904D01*
X112097676Y-83761904D02*
X112192914Y-83714285D01*
X112192914Y-83714285D02*
X112383390Y-83666666D01*
X112383390Y-83666666D02*
X112526247Y-83666666D01*
X112526247Y-83666666D02*
X112716723Y-83714285D01*
X112716723Y-83714285D02*
X112811961Y-83761904D01*
X112811961Y-83761904D02*
X112907200Y-83857142D01*
X112907200Y-83857142D02*
X112954819Y-83999999D01*
X112954819Y-83999999D02*
X112954819Y-84238094D01*
X112954819Y-83190475D02*
X112954819Y-82999999D01*
X112954819Y-82999999D02*
X112907200Y-82904761D01*
X112907200Y-82904761D02*
X112859580Y-82857142D01*
X112859580Y-82857142D02*
X112716723Y-82761904D01*
X112716723Y-82761904D02*
X112526247Y-82714285D01*
X112526247Y-82714285D02*
X112145295Y-82714285D01*
X112145295Y-82714285D02*
X112050057Y-82761904D01*
X112050057Y-82761904D02*
X112002438Y-82809523D01*
X112002438Y-82809523D02*
X111954819Y-82904761D01*
X111954819Y-82904761D02*
X111954819Y-83095237D01*
X111954819Y-83095237D02*
X112002438Y-83190475D01*
X112002438Y-83190475D02*
X112050057Y-83238094D01*
X112050057Y-83238094D02*
X112145295Y-83285713D01*
X112145295Y-83285713D02*
X112383390Y-83285713D01*
X112383390Y-83285713D02*
X112478628Y-83238094D01*
X112478628Y-83238094D02*
X112526247Y-83190475D01*
X112526247Y-83190475D02*
X112573866Y-83095237D01*
X112573866Y-83095237D02*
X112573866Y-82904761D01*
X112573866Y-82904761D02*
X112526247Y-82809523D01*
X112526247Y-82809523D02*
X112478628Y-82761904D01*
X112478628Y-82761904D02*
X112383390Y-82714285D01*
X110454819Y-97142857D02*
X109978628Y-97476190D01*
X110454819Y-97714285D02*
X109454819Y-97714285D01*
X109454819Y-97714285D02*
X109454819Y-97333333D01*
X109454819Y-97333333D02*
X109502438Y-97238095D01*
X109502438Y-97238095D02*
X109550057Y-97190476D01*
X109550057Y-97190476D02*
X109645295Y-97142857D01*
X109645295Y-97142857D02*
X109788152Y-97142857D01*
X109788152Y-97142857D02*
X109883390Y-97190476D01*
X109883390Y-97190476D02*
X109931009Y-97238095D01*
X109931009Y-97238095D02*
X109978628Y-97333333D01*
X109978628Y-97333333D02*
X109978628Y-97714285D01*
X110454819Y-96190476D02*
X110454819Y-96761904D01*
X110454819Y-96476190D02*
X109454819Y-96476190D01*
X109454819Y-96476190D02*
X109597676Y-96571428D01*
X109597676Y-96571428D02*
X109692914Y-96666666D01*
X109692914Y-96666666D02*
X109740533Y-96761904D01*
X109454819Y-95333333D02*
X109454819Y-95523809D01*
X109454819Y-95523809D02*
X109502438Y-95619047D01*
X109502438Y-95619047D02*
X109550057Y-95666666D01*
X109550057Y-95666666D02*
X109692914Y-95761904D01*
X109692914Y-95761904D02*
X109883390Y-95809523D01*
X109883390Y-95809523D02*
X110264342Y-95809523D01*
X110264342Y-95809523D02*
X110359580Y-95761904D01*
X110359580Y-95761904D02*
X110407200Y-95714285D01*
X110407200Y-95714285D02*
X110454819Y-95619047D01*
X110454819Y-95619047D02*
X110454819Y-95428571D01*
X110454819Y-95428571D02*
X110407200Y-95333333D01*
X110407200Y-95333333D02*
X110359580Y-95285714D01*
X110359580Y-95285714D02*
X110264342Y-95238095D01*
X110264342Y-95238095D02*
X110026247Y-95238095D01*
X110026247Y-95238095D02*
X109931009Y-95285714D01*
X109931009Y-95285714D02*
X109883390Y-95333333D01*
X109883390Y-95333333D02*
X109835771Y-95428571D01*
X109835771Y-95428571D02*
X109835771Y-95619047D01*
X109835771Y-95619047D02*
X109883390Y-95714285D01*
X109883390Y-95714285D02*
X109931009Y-95761904D01*
X109931009Y-95761904D02*
X110026247Y-95809523D01*
X101954819Y-60238094D02*
X100954819Y-60238094D01*
X100954819Y-60238094D02*
X100954819Y-59999999D01*
X100954819Y-59999999D02*
X101002438Y-59857142D01*
X101002438Y-59857142D02*
X101097676Y-59761904D01*
X101097676Y-59761904D02*
X101192914Y-59714285D01*
X101192914Y-59714285D02*
X101383390Y-59666666D01*
X101383390Y-59666666D02*
X101526247Y-59666666D01*
X101526247Y-59666666D02*
X101716723Y-59714285D01*
X101716723Y-59714285D02*
X101811961Y-59761904D01*
X101811961Y-59761904D02*
X101907200Y-59857142D01*
X101907200Y-59857142D02*
X101954819Y-59999999D01*
X101954819Y-59999999D02*
X101954819Y-60238094D01*
X100954819Y-59333332D02*
X100954819Y-58714285D01*
X100954819Y-58714285D02*
X101335771Y-59047618D01*
X101335771Y-59047618D02*
X101335771Y-58904761D01*
X101335771Y-58904761D02*
X101383390Y-58809523D01*
X101383390Y-58809523D02*
X101431009Y-58761904D01*
X101431009Y-58761904D02*
X101526247Y-58714285D01*
X101526247Y-58714285D02*
X101764342Y-58714285D01*
X101764342Y-58714285D02*
X101859580Y-58761904D01*
X101859580Y-58761904D02*
X101907200Y-58809523D01*
X101907200Y-58809523D02*
X101954819Y-58904761D01*
X101954819Y-58904761D02*
X101954819Y-59190475D01*
X101954819Y-59190475D02*
X101907200Y-59285713D01*
X101907200Y-59285713D02*
X101859580Y-59333332D01*
X82859580Y-65666666D02*
X82907200Y-65714285D01*
X82907200Y-65714285D02*
X82954819Y-65857142D01*
X82954819Y-65857142D02*
X82954819Y-65952380D01*
X82954819Y-65952380D02*
X82907200Y-66095237D01*
X82907200Y-66095237D02*
X82811961Y-66190475D01*
X82811961Y-66190475D02*
X82716723Y-66238094D01*
X82716723Y-66238094D02*
X82526247Y-66285713D01*
X82526247Y-66285713D02*
X82383390Y-66285713D01*
X82383390Y-66285713D02*
X82192914Y-66238094D01*
X82192914Y-66238094D02*
X82097676Y-66190475D01*
X82097676Y-66190475D02*
X82002438Y-66095237D01*
X82002438Y-66095237D02*
X81954819Y-65952380D01*
X81954819Y-65952380D02*
X81954819Y-65857142D01*
X81954819Y-65857142D02*
X82002438Y-65714285D01*
X82002438Y-65714285D02*
X82050057Y-65666666D01*
X82050057Y-65285713D02*
X82002438Y-65238094D01*
X82002438Y-65238094D02*
X81954819Y-65142856D01*
X81954819Y-65142856D02*
X81954819Y-64904761D01*
X81954819Y-64904761D02*
X82002438Y-64809523D01*
X82002438Y-64809523D02*
X82050057Y-64761904D01*
X82050057Y-64761904D02*
X82145295Y-64714285D01*
X82145295Y-64714285D02*
X82240533Y-64714285D01*
X82240533Y-64714285D02*
X82383390Y-64761904D01*
X82383390Y-64761904D02*
X82954819Y-65333332D01*
X82954819Y-65333332D02*
X82954819Y-64714285D01*
X118666666Y-47954819D02*
X118666666Y-48669104D01*
X118666666Y-48669104D02*
X118619047Y-48811961D01*
X118619047Y-48811961D02*
X118523809Y-48907200D01*
X118523809Y-48907200D02*
X118380952Y-48954819D01*
X118380952Y-48954819D02*
X118285714Y-48954819D01*
X119666666Y-48954819D02*
X119095238Y-48954819D01*
X119380952Y-48954819D02*
X119380952Y-47954819D01*
X119380952Y-47954819D02*
X119285714Y-48097676D01*
X119285714Y-48097676D02*
X119190476Y-48192914D01*
X119190476Y-48192914D02*
X119095238Y-48240533D01*
X77954819Y-65666666D02*
X77478628Y-65999999D01*
X77954819Y-66238094D02*
X76954819Y-66238094D01*
X76954819Y-66238094D02*
X76954819Y-65857142D01*
X76954819Y-65857142D02*
X77002438Y-65761904D01*
X77002438Y-65761904D02*
X77050057Y-65714285D01*
X77050057Y-65714285D02*
X77145295Y-65666666D01*
X77145295Y-65666666D02*
X77288152Y-65666666D01*
X77288152Y-65666666D02*
X77383390Y-65714285D01*
X77383390Y-65714285D02*
X77431009Y-65761904D01*
X77431009Y-65761904D02*
X77478628Y-65857142D01*
X77478628Y-65857142D02*
X77478628Y-66238094D01*
X76954819Y-65333332D02*
X76954819Y-64714285D01*
X76954819Y-64714285D02*
X77335771Y-65047618D01*
X77335771Y-65047618D02*
X77335771Y-64904761D01*
X77335771Y-64904761D02*
X77383390Y-64809523D01*
X77383390Y-64809523D02*
X77431009Y-64761904D01*
X77431009Y-64761904D02*
X77526247Y-64714285D01*
X77526247Y-64714285D02*
X77764342Y-64714285D01*
X77764342Y-64714285D02*
X77859580Y-64761904D01*
X77859580Y-64761904D02*
X77907200Y-64809523D01*
X77907200Y-64809523D02*
X77954819Y-64904761D01*
X77954819Y-64904761D02*
X77954819Y-65190475D01*
X77954819Y-65190475D02*
X77907200Y-65285713D01*
X77907200Y-65285713D02*
X77859580Y-65333332D01*
X80954819Y-104666666D02*
X80478628Y-104999999D01*
X80954819Y-105238094D02*
X79954819Y-105238094D01*
X79954819Y-105238094D02*
X79954819Y-104857142D01*
X79954819Y-104857142D02*
X80002438Y-104761904D01*
X80002438Y-104761904D02*
X80050057Y-104714285D01*
X80050057Y-104714285D02*
X80145295Y-104666666D01*
X80145295Y-104666666D02*
X80288152Y-104666666D01*
X80288152Y-104666666D02*
X80383390Y-104714285D01*
X80383390Y-104714285D02*
X80431009Y-104761904D01*
X80431009Y-104761904D02*
X80478628Y-104857142D01*
X80478628Y-104857142D02*
X80478628Y-105238094D01*
X80954819Y-103714285D02*
X80954819Y-104285713D01*
X80954819Y-103999999D02*
X79954819Y-103999999D01*
X79954819Y-103999999D02*
X80097676Y-104095237D01*
X80097676Y-104095237D02*
X80192914Y-104190475D01*
X80192914Y-104190475D02*
X80240533Y-104285713D01*
X95864819Y-79786904D02*
X96674342Y-79786904D01*
X96674342Y-79786904D02*
X96769580Y-79739285D01*
X96769580Y-79739285D02*
X96817200Y-79691666D01*
X96817200Y-79691666D02*
X96864819Y-79596428D01*
X96864819Y-79596428D02*
X96864819Y-79405952D01*
X96864819Y-79405952D02*
X96817200Y-79310714D01*
X96817200Y-79310714D02*
X96769580Y-79263095D01*
X96769580Y-79263095D02*
X96674342Y-79215476D01*
X96674342Y-79215476D02*
X95864819Y-79215476D01*
X95864819Y-78310714D02*
X95864819Y-78501190D01*
X95864819Y-78501190D02*
X95912438Y-78596428D01*
X95912438Y-78596428D02*
X95960057Y-78644047D01*
X95960057Y-78644047D02*
X96102914Y-78739285D01*
X96102914Y-78739285D02*
X96293390Y-78786904D01*
X96293390Y-78786904D02*
X96674342Y-78786904D01*
X96674342Y-78786904D02*
X96769580Y-78739285D01*
X96769580Y-78739285D02*
X96817200Y-78691666D01*
X96817200Y-78691666D02*
X96864819Y-78596428D01*
X96864819Y-78596428D02*
X96864819Y-78405952D01*
X96864819Y-78405952D02*
X96817200Y-78310714D01*
X96817200Y-78310714D02*
X96769580Y-78263095D01*
X96769580Y-78263095D02*
X96674342Y-78215476D01*
X96674342Y-78215476D02*
X96436247Y-78215476D01*
X96436247Y-78215476D02*
X96341009Y-78263095D01*
X96341009Y-78263095D02*
X96293390Y-78310714D01*
X96293390Y-78310714D02*
X96245771Y-78405952D01*
X96245771Y-78405952D02*
X96245771Y-78596428D01*
X96245771Y-78596428D02*
X96293390Y-78691666D01*
X96293390Y-78691666D02*
X96341009Y-78739285D01*
X96341009Y-78739285D02*
X96436247Y-78786904D01*
X106954819Y-73142857D02*
X106478628Y-73476190D01*
X106954819Y-73714285D02*
X105954819Y-73714285D01*
X105954819Y-73714285D02*
X105954819Y-73333333D01*
X105954819Y-73333333D02*
X106002438Y-73238095D01*
X106002438Y-73238095D02*
X106050057Y-73190476D01*
X106050057Y-73190476D02*
X106145295Y-73142857D01*
X106145295Y-73142857D02*
X106288152Y-73142857D01*
X106288152Y-73142857D02*
X106383390Y-73190476D01*
X106383390Y-73190476D02*
X106431009Y-73238095D01*
X106431009Y-73238095D02*
X106478628Y-73333333D01*
X106478628Y-73333333D02*
X106478628Y-73714285D01*
X106954819Y-72190476D02*
X106954819Y-72761904D01*
X106954819Y-72476190D02*
X105954819Y-72476190D01*
X105954819Y-72476190D02*
X106097676Y-72571428D01*
X106097676Y-72571428D02*
X106192914Y-72666666D01*
X106192914Y-72666666D02*
X106240533Y-72761904D01*
X105954819Y-71857142D02*
X105954819Y-71238095D01*
X105954819Y-71238095D02*
X106335771Y-71571428D01*
X106335771Y-71571428D02*
X106335771Y-71428571D01*
X106335771Y-71428571D02*
X106383390Y-71333333D01*
X106383390Y-71333333D02*
X106431009Y-71285714D01*
X106431009Y-71285714D02*
X106526247Y-71238095D01*
X106526247Y-71238095D02*
X106764342Y-71238095D01*
X106764342Y-71238095D02*
X106859580Y-71285714D01*
X106859580Y-71285714D02*
X106907200Y-71333333D01*
X106907200Y-71333333D02*
X106954819Y-71428571D01*
X106954819Y-71428571D02*
X106954819Y-71714285D01*
X106954819Y-71714285D02*
X106907200Y-71809523D01*
X106907200Y-71809523D02*
X106859580Y-71857142D01*
X85738095Y-73954819D02*
X85738095Y-74764342D01*
X85738095Y-74764342D02*
X85785714Y-74859580D01*
X85785714Y-74859580D02*
X85833333Y-74907200D01*
X85833333Y-74907200D02*
X85928571Y-74954819D01*
X85928571Y-74954819D02*
X86119047Y-74954819D01*
X86119047Y-74954819D02*
X86214285Y-74907200D01*
X86214285Y-74907200D02*
X86261904Y-74859580D01*
X86261904Y-74859580D02*
X86309523Y-74764342D01*
X86309523Y-74764342D02*
X86309523Y-73954819D01*
X87261904Y-73954819D02*
X86785714Y-73954819D01*
X86785714Y-73954819D02*
X86738095Y-74431009D01*
X86738095Y-74431009D02*
X86785714Y-74383390D01*
X86785714Y-74383390D02*
X86880952Y-74335771D01*
X86880952Y-74335771D02*
X87119047Y-74335771D01*
X87119047Y-74335771D02*
X87214285Y-74383390D01*
X87214285Y-74383390D02*
X87261904Y-74431009D01*
X87261904Y-74431009D02*
X87309523Y-74526247D01*
X87309523Y-74526247D02*
X87309523Y-74764342D01*
X87309523Y-74764342D02*
X87261904Y-74859580D01*
X87261904Y-74859580D02*
X87214285Y-74907200D01*
X87214285Y-74907200D02*
X87119047Y-74954819D01*
X87119047Y-74954819D02*
X86880952Y-74954819D01*
X86880952Y-74954819D02*
X86785714Y-74907200D01*
X86785714Y-74907200D02*
X86738095Y-74859580D01*
X96954819Y-72166666D02*
X96478628Y-72499999D01*
X96954819Y-72738094D02*
X95954819Y-72738094D01*
X95954819Y-72738094D02*
X95954819Y-72357142D01*
X95954819Y-72357142D02*
X96002438Y-72261904D01*
X96002438Y-72261904D02*
X96050057Y-72214285D01*
X96050057Y-72214285D02*
X96145295Y-72166666D01*
X96145295Y-72166666D02*
X96288152Y-72166666D01*
X96288152Y-72166666D02*
X96383390Y-72214285D01*
X96383390Y-72214285D02*
X96431009Y-72261904D01*
X96431009Y-72261904D02*
X96478628Y-72357142D01*
X96478628Y-72357142D02*
X96478628Y-72738094D01*
X96954819Y-71690475D02*
X96954819Y-71499999D01*
X96954819Y-71499999D02*
X96907200Y-71404761D01*
X96907200Y-71404761D02*
X96859580Y-71357142D01*
X96859580Y-71357142D02*
X96716723Y-71261904D01*
X96716723Y-71261904D02*
X96526247Y-71214285D01*
X96526247Y-71214285D02*
X96145295Y-71214285D01*
X96145295Y-71214285D02*
X96050057Y-71261904D01*
X96050057Y-71261904D02*
X96002438Y-71309523D01*
X96002438Y-71309523D02*
X95954819Y-71404761D01*
X95954819Y-71404761D02*
X95954819Y-71595237D01*
X95954819Y-71595237D02*
X96002438Y-71690475D01*
X96002438Y-71690475D02*
X96050057Y-71738094D01*
X96050057Y-71738094D02*
X96145295Y-71785713D01*
X96145295Y-71785713D02*
X96383390Y-71785713D01*
X96383390Y-71785713D02*
X96478628Y-71738094D01*
X96478628Y-71738094D02*
X96526247Y-71690475D01*
X96526247Y-71690475D02*
X96573866Y-71595237D01*
X96573866Y-71595237D02*
X96573866Y-71404761D01*
X96573866Y-71404761D02*
X96526247Y-71309523D01*
X96526247Y-71309523D02*
X96478628Y-71261904D01*
X96478628Y-71261904D02*
X96383390Y-71214285D01*
X120666666Y-34754819D02*
X120333333Y-34278628D01*
X120095238Y-34754819D02*
X120095238Y-33754819D01*
X120095238Y-33754819D02*
X120476190Y-33754819D01*
X120476190Y-33754819D02*
X120571428Y-33802438D01*
X120571428Y-33802438D02*
X120619047Y-33850057D01*
X120619047Y-33850057D02*
X120666666Y-33945295D01*
X120666666Y-33945295D02*
X120666666Y-34088152D01*
X120666666Y-34088152D02*
X120619047Y-34183390D01*
X120619047Y-34183390D02*
X120571428Y-34231009D01*
X120571428Y-34231009D02*
X120476190Y-34278628D01*
X120476190Y-34278628D02*
X120095238Y-34278628D01*
X121095238Y-34231009D02*
X121428571Y-34231009D01*
X121571428Y-34754819D02*
X121095238Y-34754819D01*
X121095238Y-34754819D02*
X121095238Y-33754819D01*
X121095238Y-33754819D02*
X121571428Y-33754819D01*
X122333333Y-34231009D02*
X122000000Y-34231009D01*
X122000000Y-34754819D02*
X122000000Y-33754819D01*
X122000000Y-33754819D02*
X122476190Y-33754819D01*
X123000000Y-33754819D02*
X123000000Y-33992914D01*
X122761905Y-33897676D02*
X123000000Y-33992914D01*
X123000000Y-33992914D02*
X123238095Y-33897676D01*
X122857143Y-34183390D02*
X123000000Y-33992914D01*
X123000000Y-33992914D02*
X123142857Y-34183390D01*
X123761905Y-33754819D02*
X123761905Y-33992914D01*
X123523810Y-33897676D02*
X123761905Y-33992914D01*
X123761905Y-33992914D02*
X124000000Y-33897676D01*
X123619048Y-34183390D02*
X123761905Y-33992914D01*
X123761905Y-33992914D02*
X123904762Y-34183390D01*
X109454819Y-60238094D02*
X108454819Y-60238094D01*
X108454819Y-60238094D02*
X108454819Y-59999999D01*
X108454819Y-59999999D02*
X108502438Y-59857142D01*
X108502438Y-59857142D02*
X108597676Y-59761904D01*
X108597676Y-59761904D02*
X108692914Y-59714285D01*
X108692914Y-59714285D02*
X108883390Y-59666666D01*
X108883390Y-59666666D02*
X109026247Y-59666666D01*
X109026247Y-59666666D02*
X109216723Y-59714285D01*
X109216723Y-59714285D02*
X109311961Y-59761904D01*
X109311961Y-59761904D02*
X109407200Y-59857142D01*
X109407200Y-59857142D02*
X109454819Y-59999999D01*
X109454819Y-59999999D02*
X109454819Y-60238094D01*
X108454819Y-58809523D02*
X108454819Y-58999999D01*
X108454819Y-58999999D02*
X108502438Y-59095237D01*
X108502438Y-59095237D02*
X108550057Y-59142856D01*
X108550057Y-59142856D02*
X108692914Y-59238094D01*
X108692914Y-59238094D02*
X108883390Y-59285713D01*
X108883390Y-59285713D02*
X109264342Y-59285713D01*
X109264342Y-59285713D02*
X109359580Y-59238094D01*
X109359580Y-59238094D02*
X109407200Y-59190475D01*
X109407200Y-59190475D02*
X109454819Y-59095237D01*
X109454819Y-59095237D02*
X109454819Y-58904761D01*
X109454819Y-58904761D02*
X109407200Y-58809523D01*
X109407200Y-58809523D02*
X109359580Y-58761904D01*
X109359580Y-58761904D02*
X109264342Y-58714285D01*
X109264342Y-58714285D02*
X109026247Y-58714285D01*
X109026247Y-58714285D02*
X108931009Y-58761904D01*
X108931009Y-58761904D02*
X108883390Y-58809523D01*
X108883390Y-58809523D02*
X108835771Y-58904761D01*
X108835771Y-58904761D02*
X108835771Y-59095237D01*
X108835771Y-59095237D02*
X108883390Y-59190475D01*
X108883390Y-59190475D02*
X108931009Y-59238094D01*
X108931009Y-59238094D02*
X109026247Y-59285713D01*
X98838095Y-53652229D02*
X98838095Y-54461752D01*
X98838095Y-54461752D02*
X98885714Y-54556990D01*
X98885714Y-54556990D02*
X98933333Y-54604610D01*
X98933333Y-54604610D02*
X99028571Y-54652229D01*
X99028571Y-54652229D02*
X99219047Y-54652229D01*
X99219047Y-54652229D02*
X99314285Y-54604610D01*
X99314285Y-54604610D02*
X99361904Y-54556990D01*
X99361904Y-54556990D02*
X99409523Y-54461752D01*
X99409523Y-54461752D02*
X99409523Y-53652229D01*
X100409523Y-54652229D02*
X99838095Y-54652229D01*
X100123809Y-54652229D02*
X100123809Y-53652229D01*
X100123809Y-53652229D02*
X100028571Y-53795086D01*
X100028571Y-53795086D02*
X99933333Y-53890324D01*
X99933333Y-53890324D02*
X99838095Y-53937943D01*
X98266666Y-54652229D02*
X97933333Y-54176038D01*
X97695238Y-54652229D02*
X97695238Y-53652229D01*
X97695238Y-53652229D02*
X98076190Y-53652229D01*
X98076190Y-53652229D02*
X98171428Y-53699848D01*
X98171428Y-53699848D02*
X98219047Y-53747467D01*
X98219047Y-53747467D02*
X98266666Y-53842705D01*
X98266666Y-53842705D02*
X98266666Y-53985562D01*
X98266666Y-53985562D02*
X98219047Y-54080800D01*
X98219047Y-54080800D02*
X98171428Y-54128419D01*
X98171428Y-54128419D02*
X98076190Y-54176038D01*
X98076190Y-54176038D02*
X97695238Y-54176038D01*
X98695238Y-54128419D02*
X99028571Y-54128419D01*
X99171428Y-54652229D02*
X98695238Y-54652229D01*
X98695238Y-54652229D02*
X98695238Y-53652229D01*
X98695238Y-53652229D02*
X99171428Y-53652229D01*
X99933333Y-54128419D02*
X99600000Y-54128419D01*
X99600000Y-54652229D02*
X99600000Y-53652229D01*
X99600000Y-53652229D02*
X100076190Y-53652229D01*
X100600000Y-53652229D02*
X100600000Y-53890324D01*
X100361905Y-53795086D02*
X100600000Y-53890324D01*
X100600000Y-53890324D02*
X100838095Y-53795086D01*
X100457143Y-54080800D02*
X100600000Y-53890324D01*
X100600000Y-53890324D02*
X100742857Y-54080800D01*
X101361905Y-53652229D02*
X101361905Y-53890324D01*
X101123810Y-53795086D02*
X101361905Y-53890324D01*
X101361905Y-53890324D02*
X101600000Y-53795086D01*
X101219048Y-54080800D02*
X101361905Y-53890324D01*
X101361905Y-53890324D02*
X101504762Y-54080800D01*
X83359580Y-104666666D02*
X83407200Y-104714285D01*
X83407200Y-104714285D02*
X83454819Y-104857142D01*
X83454819Y-104857142D02*
X83454819Y-104952380D01*
X83454819Y-104952380D02*
X83407200Y-105095237D01*
X83407200Y-105095237D02*
X83311961Y-105190475D01*
X83311961Y-105190475D02*
X83216723Y-105238094D01*
X83216723Y-105238094D02*
X83026247Y-105285713D01*
X83026247Y-105285713D02*
X82883390Y-105285713D01*
X82883390Y-105285713D02*
X82692914Y-105238094D01*
X82692914Y-105238094D02*
X82597676Y-105190475D01*
X82597676Y-105190475D02*
X82502438Y-105095237D01*
X82502438Y-105095237D02*
X82454819Y-104952380D01*
X82454819Y-104952380D02*
X82454819Y-104857142D01*
X82454819Y-104857142D02*
X82502438Y-104714285D01*
X82502438Y-104714285D02*
X82550057Y-104666666D01*
X83454819Y-103714285D02*
X83454819Y-104285713D01*
X83454819Y-103999999D02*
X82454819Y-103999999D01*
X82454819Y-103999999D02*
X82597676Y-104095237D01*
X82597676Y-104095237D02*
X82692914Y-104190475D01*
X82692914Y-104190475D02*
X82740533Y-104285713D01*
X112539580Y-77666666D02*
X112587200Y-77714285D01*
X112587200Y-77714285D02*
X112634819Y-77857142D01*
X112634819Y-77857142D02*
X112634819Y-77952380D01*
X112634819Y-77952380D02*
X112587200Y-78095237D01*
X112587200Y-78095237D02*
X112491961Y-78190475D01*
X112491961Y-78190475D02*
X112396723Y-78238094D01*
X112396723Y-78238094D02*
X112206247Y-78285713D01*
X112206247Y-78285713D02*
X112063390Y-78285713D01*
X112063390Y-78285713D02*
X111872914Y-78238094D01*
X111872914Y-78238094D02*
X111777676Y-78190475D01*
X111777676Y-78190475D02*
X111682438Y-78095237D01*
X111682438Y-78095237D02*
X111634819Y-77952380D01*
X111634819Y-77952380D02*
X111634819Y-77857142D01*
X111634819Y-77857142D02*
X111682438Y-77714285D01*
X111682438Y-77714285D02*
X111730057Y-77666666D01*
X111634819Y-76761904D02*
X111634819Y-77238094D01*
X111634819Y-77238094D02*
X112111009Y-77285713D01*
X112111009Y-77285713D02*
X112063390Y-77238094D01*
X112063390Y-77238094D02*
X112015771Y-77142856D01*
X112015771Y-77142856D02*
X112015771Y-76904761D01*
X112015771Y-76904761D02*
X112063390Y-76809523D01*
X112063390Y-76809523D02*
X112111009Y-76761904D01*
X112111009Y-76761904D02*
X112206247Y-76714285D01*
X112206247Y-76714285D02*
X112444342Y-76714285D01*
X112444342Y-76714285D02*
X112539580Y-76761904D01*
X112539580Y-76761904D02*
X112587200Y-76809523D01*
X112587200Y-76809523D02*
X112634819Y-76904761D01*
X112634819Y-76904761D02*
X112634819Y-77142856D01*
X112634819Y-77142856D02*
X112587200Y-77238094D01*
X112587200Y-77238094D02*
X112539580Y-77285713D01*
X78454819Y-104666666D02*
X77978628Y-104999999D01*
X78454819Y-105238094D02*
X77454819Y-105238094D01*
X77454819Y-105238094D02*
X77454819Y-104857142D01*
X77454819Y-104857142D02*
X77502438Y-104761904D01*
X77502438Y-104761904D02*
X77550057Y-104714285D01*
X77550057Y-104714285D02*
X77645295Y-104666666D01*
X77645295Y-104666666D02*
X77788152Y-104666666D01*
X77788152Y-104666666D02*
X77883390Y-104714285D01*
X77883390Y-104714285D02*
X77931009Y-104761904D01*
X77931009Y-104761904D02*
X77978628Y-104857142D01*
X77978628Y-104857142D02*
X77978628Y-105238094D01*
X77550057Y-104285713D02*
X77502438Y-104238094D01*
X77502438Y-104238094D02*
X77454819Y-104142856D01*
X77454819Y-104142856D02*
X77454819Y-103904761D01*
X77454819Y-103904761D02*
X77502438Y-103809523D01*
X77502438Y-103809523D02*
X77550057Y-103761904D01*
X77550057Y-103761904D02*
X77645295Y-103714285D01*
X77645295Y-103714285D02*
X77740533Y-103714285D01*
X77740533Y-103714285D02*
X77883390Y-103761904D01*
X77883390Y-103761904D02*
X78454819Y-104333332D01*
X78454819Y-104333332D02*
X78454819Y-103714285D01*
X73166666Y-34754819D02*
X72833333Y-34278628D01*
X72595238Y-34754819D02*
X72595238Y-33754819D01*
X72595238Y-33754819D02*
X72976190Y-33754819D01*
X72976190Y-33754819D02*
X73071428Y-33802438D01*
X73071428Y-33802438D02*
X73119047Y-33850057D01*
X73119047Y-33850057D02*
X73166666Y-33945295D01*
X73166666Y-33945295D02*
X73166666Y-34088152D01*
X73166666Y-34088152D02*
X73119047Y-34183390D01*
X73119047Y-34183390D02*
X73071428Y-34231009D01*
X73071428Y-34231009D02*
X72976190Y-34278628D01*
X72976190Y-34278628D02*
X72595238Y-34278628D01*
X73595238Y-34231009D02*
X73928571Y-34231009D01*
X74071428Y-34754819D02*
X73595238Y-34754819D01*
X73595238Y-34754819D02*
X73595238Y-33754819D01*
X73595238Y-33754819D02*
X74071428Y-33754819D01*
X74833333Y-34231009D02*
X74500000Y-34231009D01*
X74500000Y-34754819D02*
X74500000Y-33754819D01*
X74500000Y-33754819D02*
X74976190Y-33754819D01*
X75500000Y-33754819D02*
X75500000Y-33992914D01*
X75261905Y-33897676D02*
X75500000Y-33992914D01*
X75500000Y-33992914D02*
X75738095Y-33897676D01*
X75357143Y-34183390D02*
X75500000Y-33992914D01*
X75500000Y-33992914D02*
X75642857Y-34183390D01*
X76261905Y-33754819D02*
X76261905Y-33992914D01*
X76023810Y-33897676D02*
X76261905Y-33992914D01*
X76261905Y-33992914D02*
X76500000Y-33897676D01*
X76119048Y-34183390D02*
X76261905Y-33992914D01*
X76261905Y-33992914D02*
X76404762Y-34183390D01*
X81454819Y-78666666D02*
X80978628Y-78999999D01*
X81454819Y-79238094D02*
X80454819Y-79238094D01*
X80454819Y-79238094D02*
X80454819Y-78857142D01*
X80454819Y-78857142D02*
X80502438Y-78761904D01*
X80502438Y-78761904D02*
X80550057Y-78714285D01*
X80550057Y-78714285D02*
X80645295Y-78666666D01*
X80645295Y-78666666D02*
X80788152Y-78666666D01*
X80788152Y-78666666D02*
X80883390Y-78714285D01*
X80883390Y-78714285D02*
X80931009Y-78761904D01*
X80931009Y-78761904D02*
X80978628Y-78857142D01*
X80978628Y-78857142D02*
X80978628Y-79238094D01*
X80883390Y-78095237D02*
X80835771Y-78190475D01*
X80835771Y-78190475D02*
X80788152Y-78238094D01*
X80788152Y-78238094D02*
X80692914Y-78285713D01*
X80692914Y-78285713D02*
X80645295Y-78285713D01*
X80645295Y-78285713D02*
X80550057Y-78238094D01*
X80550057Y-78238094D02*
X80502438Y-78190475D01*
X80502438Y-78190475D02*
X80454819Y-78095237D01*
X80454819Y-78095237D02*
X80454819Y-77904761D01*
X80454819Y-77904761D02*
X80502438Y-77809523D01*
X80502438Y-77809523D02*
X80550057Y-77761904D01*
X80550057Y-77761904D02*
X80645295Y-77714285D01*
X80645295Y-77714285D02*
X80692914Y-77714285D01*
X80692914Y-77714285D02*
X80788152Y-77761904D01*
X80788152Y-77761904D02*
X80835771Y-77809523D01*
X80835771Y-77809523D02*
X80883390Y-77904761D01*
X80883390Y-77904761D02*
X80883390Y-78095237D01*
X80883390Y-78095237D02*
X80931009Y-78190475D01*
X80931009Y-78190475D02*
X80978628Y-78238094D01*
X80978628Y-78238094D02*
X81073866Y-78285713D01*
X81073866Y-78285713D02*
X81264342Y-78285713D01*
X81264342Y-78285713D02*
X81359580Y-78238094D01*
X81359580Y-78238094D02*
X81407200Y-78190475D01*
X81407200Y-78190475D02*
X81454819Y-78095237D01*
X81454819Y-78095237D02*
X81454819Y-77904761D01*
X81454819Y-77904761D02*
X81407200Y-77809523D01*
X81407200Y-77809523D02*
X81359580Y-77761904D01*
X81359580Y-77761904D02*
X81264342Y-77714285D01*
X81264342Y-77714285D02*
X81073866Y-77714285D01*
X81073866Y-77714285D02*
X80978628Y-77761904D01*
X80978628Y-77761904D02*
X80931009Y-77809523D01*
X80931009Y-77809523D02*
X80883390Y-77904761D01*
X97919580Y-100191666D02*
X97967200Y-100239285D01*
X97967200Y-100239285D02*
X98014819Y-100382142D01*
X98014819Y-100382142D02*
X98014819Y-100477380D01*
X98014819Y-100477380D02*
X97967200Y-100620237D01*
X97967200Y-100620237D02*
X97871961Y-100715475D01*
X97871961Y-100715475D02*
X97776723Y-100763094D01*
X97776723Y-100763094D02*
X97586247Y-100810713D01*
X97586247Y-100810713D02*
X97443390Y-100810713D01*
X97443390Y-100810713D02*
X97252914Y-100763094D01*
X97252914Y-100763094D02*
X97157676Y-100715475D01*
X97157676Y-100715475D02*
X97062438Y-100620237D01*
X97062438Y-100620237D02*
X97014819Y-100477380D01*
X97014819Y-100477380D02*
X97014819Y-100382142D01*
X97014819Y-100382142D02*
X97062438Y-100239285D01*
X97062438Y-100239285D02*
X97110057Y-100191666D01*
X97014819Y-99334523D02*
X97014819Y-99524999D01*
X97014819Y-99524999D02*
X97062438Y-99620237D01*
X97062438Y-99620237D02*
X97110057Y-99667856D01*
X97110057Y-99667856D02*
X97252914Y-99763094D01*
X97252914Y-99763094D02*
X97443390Y-99810713D01*
X97443390Y-99810713D02*
X97824342Y-99810713D01*
X97824342Y-99810713D02*
X97919580Y-99763094D01*
X97919580Y-99763094D02*
X97967200Y-99715475D01*
X97967200Y-99715475D02*
X98014819Y-99620237D01*
X98014819Y-99620237D02*
X98014819Y-99429761D01*
X98014819Y-99429761D02*
X97967200Y-99334523D01*
X97967200Y-99334523D02*
X97919580Y-99286904D01*
X97919580Y-99286904D02*
X97824342Y-99239285D01*
X97824342Y-99239285D02*
X97586247Y-99239285D01*
X97586247Y-99239285D02*
X97491009Y-99286904D01*
X97491009Y-99286904D02*
X97443390Y-99334523D01*
X97443390Y-99334523D02*
X97395771Y-99429761D01*
X97395771Y-99429761D02*
X97395771Y-99620237D01*
X97395771Y-99620237D02*
X97443390Y-99715475D01*
X97443390Y-99715475D02*
X97491009Y-99763094D01*
X97491009Y-99763094D02*
X97586247Y-99810713D01*
D12*
X103265000Y-69314564D02*
X103265000Y-68860436D01*
X104735000Y-69314564D02*
X104735000Y-68860436D01*
X84140000Y-59870000D02*
X84140000Y-54670000D01*
X84140000Y-54670000D02*
X78840000Y-54670000D01*
X82490000Y-59870000D02*
X84140000Y-59870000D01*
X78840000Y-59870000D02*
X80490000Y-59870000D01*
X78840000Y-54670000D02*
X78840000Y-59870000D01*
X82490000Y-59870000D02*
G75*
G03*
X80490000Y-59870000I-1000000J0D01*
G01*
X95500000Y-65360000D02*
X97500000Y-65360000D01*
X95500000Y-65360000D02*
X95500000Y-61350000D01*
X97500000Y-65360000D02*
X97500000Y-61350000D01*
X84340000Y-85870000D02*
X84340000Y-80670000D01*
X84340000Y-80670000D02*
X79040000Y-80670000D01*
X82690000Y-85870000D02*
X84340000Y-85870000D01*
X79040000Y-85870000D02*
X80690000Y-85870000D01*
X79040000Y-80670000D02*
X79040000Y-85870000D01*
X82690000Y-85870000D02*
G75*
G03*
X80690000Y-85870000I-1000000J0D01*
G01*
X84235000Y-75288748D02*
X84235000Y-75811252D01*
X82765000Y-75288748D02*
X82765000Y-75811252D01*
X105500000Y-65360000D02*
X107500000Y-65360000D01*
X105500000Y-65360000D02*
X105500000Y-61350000D01*
X107500000Y-65360000D02*
X107500000Y-61350000D01*
X109000000Y-89360000D02*
X111000000Y-89360000D01*
X109000000Y-89360000D02*
X109000000Y-85350000D01*
X111000000Y-89360000D02*
X111000000Y-85350000D01*
X77765000Y-75814564D02*
X77765000Y-75360436D01*
X79235000Y-75814564D02*
X79235000Y-75360436D01*
X98000000Y-65360000D02*
X100000000Y-65360000D01*
X98000000Y-65360000D02*
X98000000Y-61350000D01*
X100000000Y-65360000D02*
X100000000Y-61350000D01*
X108265000Y-69314564D02*
X108265000Y-68860436D01*
X109735000Y-69314564D02*
X109735000Y-68860436D01*
X79265000Y-62814564D02*
X79265000Y-62360436D01*
X80735000Y-62814564D02*
X80735000Y-62360436D01*
X84640000Y-98830000D02*
X84640000Y-93630000D01*
X84640000Y-93630000D02*
X79340000Y-93630000D01*
X82990000Y-98830000D02*
X84640000Y-98830000D01*
X79340000Y-98830000D02*
X80990000Y-98830000D01*
X79340000Y-93630000D02*
X79340000Y-98830000D01*
X82990000Y-98830000D02*
G75*
G03*
X80990000Y-98830000I-1000000J0D01*
G01*
X83735000Y-88288748D02*
X83735000Y-88811252D01*
X82265000Y-88288748D02*
X82265000Y-88811252D01*
X98265000Y-69314564D02*
X98265000Y-68860436D01*
X99735000Y-69314564D02*
X99735000Y-68860436D01*
X100765000Y-69314564D02*
X100765000Y-68860436D01*
X102235000Y-69314564D02*
X102235000Y-68860436D01*
X106500000Y-89360000D02*
X108500000Y-89360000D01*
X106500000Y-89360000D02*
X106500000Y-85350000D01*
X108500000Y-89360000D02*
X108500000Y-85350000D01*
X103000000Y-65360000D02*
X105000000Y-65360000D01*
X103000000Y-65360000D02*
X103000000Y-61350000D01*
X105000000Y-65360000D02*
X105000000Y-61350000D01*
X106765000Y-93314564D02*
X106765000Y-92860436D01*
X108235000Y-93314564D02*
X108235000Y-92860436D01*
X79765000Y-88814564D02*
X79765000Y-88360436D01*
X81235000Y-88814564D02*
X81235000Y-88360436D01*
X111765000Y-93314564D02*
X111765000Y-92860436D01*
X113235000Y-93314564D02*
X113235000Y-92860436D01*
X77265000Y-88814564D02*
X77265000Y-88360436D01*
X78735000Y-88814564D02*
X78735000Y-88360436D01*
X111125000Y-102525000D02*
X111125000Y-99075000D01*
X111125000Y-102525000D02*
X111125000Y-104475000D01*
X102255000Y-102525000D02*
X102255000Y-100575000D01*
X102255000Y-102525000D02*
X102255000Y-104475000D01*
X111500000Y-89360000D02*
X113500000Y-89360000D01*
X111500000Y-89360000D02*
X111500000Y-85350000D01*
X113500000Y-89360000D02*
X113500000Y-85350000D01*
X109265000Y-93314564D02*
X109265000Y-92860436D01*
X110735000Y-93314564D02*
X110735000Y-92860436D01*
X100500000Y-65360000D02*
X102500000Y-65360000D01*
X100500000Y-65360000D02*
X100500000Y-61350000D01*
X102500000Y-65360000D02*
X102500000Y-61350000D01*
X83235000Y-62288748D02*
X83235000Y-62811252D01*
X81765000Y-62288748D02*
X81765000Y-62811252D01*
X117590000Y-49660331D02*
X78270000Y-49660331D01*
X117590000Y-35120331D02*
X117590000Y-49660331D01*
X107875000Y-50554669D02*
X107375000Y-50554669D01*
X107625000Y-50121656D02*
X107875000Y-50554669D01*
X107375000Y-50554669D02*
X107625000Y-50121656D01*
X78270000Y-49660331D02*
X78270000Y-35120331D01*
X76765000Y-62814564D02*
X76765000Y-62360436D01*
X78235000Y-62814564D02*
X78235000Y-62360436D01*
X79765000Y-101814564D02*
X79765000Y-101360436D01*
X81235000Y-101814564D02*
X81235000Y-101360436D01*
X97255000Y-79025000D02*
X97255000Y-82475000D01*
X97255000Y-79025000D02*
X97255000Y-77075000D01*
X106125000Y-79025000D02*
X106125000Y-80975000D01*
X106125000Y-79025000D02*
X106125000Y-77075000D01*
X105765000Y-69314564D02*
X105765000Y-68860436D01*
X107235000Y-69314564D02*
X107235000Y-68860436D01*
X84640000Y-72830000D02*
X84640000Y-67630000D01*
X84640000Y-67630000D02*
X79340000Y-67630000D01*
X82990000Y-72830000D02*
X84640000Y-72830000D01*
X79340000Y-72830000D02*
X80990000Y-72830000D01*
X79340000Y-67630000D02*
X79340000Y-72830000D01*
X82990000Y-72830000D02*
G75*
G03*
X80990000Y-72830000I-1000000J0D01*
G01*
X95765000Y-69314564D02*
X95765000Y-68860436D01*
X97235000Y-69314564D02*
X97235000Y-68860436D01*
X108000000Y-65360000D02*
X110000000Y-65360000D01*
X108000000Y-65360000D02*
X108000000Y-61350000D01*
X110000000Y-65360000D02*
X110000000Y-61350000D01*
X90000000Y-51997410D02*
X90000000Y-109997410D01*
X90000000Y-109997410D02*
X119000000Y-109997410D01*
X119000000Y-51997410D02*
X90000000Y-51997410D01*
X119000000Y-109997410D02*
X119000000Y-51997410D01*
X83735000Y-101288748D02*
X83735000Y-101811252D01*
X82265000Y-101288748D02*
X82265000Y-101811252D01*
X111235000Y-77238748D02*
X111235000Y-77761252D01*
X109765000Y-77238748D02*
X109765000Y-77761252D01*
X77265000Y-101814564D02*
X77265000Y-101360436D01*
X78735000Y-101814564D02*
X78735000Y-101360436D01*
X80265000Y-75814564D02*
X80265000Y-75360436D01*
X81735000Y-75814564D02*
X81735000Y-75360436D01*
X98505000Y-100286252D02*
X98505000Y-99763748D01*
X99975000Y-100286252D02*
X99975000Y-99763748D01*
%LPC*%
D13*
X104000000Y-70000000D03*
X104000000Y-68175000D03*
D14*
X85300000Y-58540000D03*
D15*
X85300000Y-56000000D03*
X77680000Y-56000000D03*
X77680000Y-58540000D03*
D16*
X96500000Y-64650000D03*
X96500000Y-61350000D03*
D14*
X85500000Y-84540000D03*
D15*
X85500000Y-82000000D03*
X77880000Y-82000000D03*
X77880000Y-84540000D03*
D17*
X83500000Y-74600000D03*
X83500000Y-76500000D03*
D18*
X74500000Y-112000000D03*
D16*
X106500000Y-64650000D03*
X106500000Y-61350000D03*
X110000000Y-88650000D03*
X110000000Y-85350000D03*
D13*
X78500000Y-76500000D03*
X78500000Y-74675000D03*
D16*
X99000000Y-64650000D03*
X99000000Y-61350000D03*
D13*
X109000000Y-70000000D03*
X109000000Y-68175000D03*
X80000000Y-63500000D03*
X80000000Y-61675000D03*
D14*
X85800000Y-97500000D03*
D15*
X85800000Y-94960000D03*
X78180000Y-94960000D03*
X78180000Y-97500000D03*
D17*
X83000000Y-87600000D03*
X83000000Y-89500000D03*
D13*
X99000000Y-70000000D03*
X99000000Y-68175000D03*
X101500000Y-70000000D03*
X101500000Y-68175000D03*
D16*
X107500000Y-88650000D03*
X107500000Y-85350000D03*
D18*
X122000000Y-112000000D03*
D16*
X104000000Y-64650000D03*
X104000000Y-61350000D03*
D13*
X107500000Y-94000000D03*
X107500000Y-92175000D03*
X80500000Y-89500000D03*
X80500000Y-87675000D03*
X112500000Y-94000000D03*
X112500000Y-92175000D03*
X78000000Y-89500000D03*
X78000000Y-87675000D03*
D19*
X110500000Y-100050000D03*
X109230000Y-100050000D03*
X107960000Y-100050000D03*
X106690000Y-100050000D03*
X105420000Y-100050000D03*
X104150000Y-100050000D03*
X102880000Y-100050000D03*
X102880000Y-105000000D03*
X104150000Y-105000000D03*
X105420000Y-105000000D03*
X106690000Y-105000000D03*
X107960000Y-105000000D03*
X109230000Y-105000000D03*
X110500000Y-105000000D03*
D16*
X112500000Y-88650000D03*
X112500000Y-85350000D03*
D13*
X110000000Y-94000000D03*
X110000000Y-92175000D03*
D16*
X101500000Y-64650000D03*
X101500000Y-61350000D03*
D17*
X82500000Y-61600000D03*
X82500000Y-63500000D03*
D20*
X114580000Y-46380331D03*
X81280000Y-46380331D03*
D14*
X107625000Y-47800331D03*
D21*
X104855000Y-47800331D03*
X102085000Y-47800331D03*
X99315000Y-47800331D03*
X96545000Y-47800331D03*
X93775000Y-47800331D03*
X91005000Y-47800331D03*
X88235000Y-47800331D03*
X106240000Y-44960331D03*
X103470000Y-44960331D03*
X100700000Y-44960331D03*
X97930000Y-44960331D03*
X95160000Y-44960331D03*
X92390000Y-44960331D03*
X89620000Y-44960331D03*
D13*
X77500000Y-63500000D03*
X77500000Y-61675000D03*
X80500000Y-102500000D03*
X80500000Y-100675000D03*
D22*
X97880000Y-81500000D03*
X99150000Y-81500000D03*
X100420000Y-81500000D03*
X101690000Y-81500000D03*
X102960000Y-81500000D03*
X104230000Y-81500000D03*
X105500000Y-81500000D03*
X105500000Y-76550000D03*
X104230000Y-76550000D03*
X102960000Y-76550000D03*
X101690000Y-76550000D03*
X100420000Y-76550000D03*
X99150000Y-76550000D03*
X97880000Y-76550000D03*
D13*
X106500000Y-70000000D03*
X106500000Y-68175000D03*
D14*
X85800000Y-71500000D03*
D15*
X85800000Y-68960000D03*
X78180000Y-68960000D03*
X78180000Y-71500000D03*
D13*
X96500000Y-70000000D03*
X96500000Y-68175000D03*
D18*
X122000000Y-38500000D03*
D16*
X109000000Y-64650000D03*
X109000000Y-61350000D03*
D23*
X92500000Y-54500000D03*
X92500000Y-107500000D03*
X116500000Y-54500000D03*
X116500000Y-107500000D03*
D24*
X91800000Y-59397410D03*
D25*
X91800000Y-61937410D03*
X91800000Y-64477410D03*
X91800000Y-67017410D03*
X91800000Y-69557410D03*
X91800000Y-72097410D03*
X91800000Y-74637410D03*
X91800000Y-77177410D03*
X91800000Y-79717410D03*
X91800000Y-82257410D03*
X91800000Y-84797410D03*
X91800000Y-87337410D03*
X91800000Y-89877410D03*
X91800000Y-92417410D03*
X91800000Y-94957410D03*
X91800000Y-97497410D03*
X91800000Y-100037410D03*
X91800000Y-102577410D03*
X117200000Y-102577410D03*
X117200000Y-100037410D03*
X117200000Y-97497410D03*
X117200000Y-94957410D03*
X117200000Y-92417410D03*
X117200000Y-89877410D03*
X117200000Y-87337410D03*
X117200000Y-84797410D03*
X117200000Y-82257410D03*
X117200000Y-79717410D03*
X117200000Y-77177410D03*
X117200000Y-74637410D03*
X117200000Y-72097410D03*
X117200000Y-69557410D03*
X117200000Y-67017410D03*
X117200000Y-64477410D03*
X117200000Y-61937410D03*
D24*
X117200000Y-59397410D03*
D17*
X83000000Y-100600000D03*
X83000000Y-102500000D03*
X110500000Y-76550000D03*
X110500000Y-78450000D03*
D13*
X78000000Y-102500000D03*
X78000000Y-100675000D03*
D18*
X74500000Y-38500000D03*
D13*
X81000000Y-76500000D03*
X81000000Y-74675000D03*
D26*
X99240000Y-100975000D03*
X99240000Y-99075000D03*
%LPD*%
M02*
